<?xml version="1.0" encoding="UTF-8"?><svg id="Layer_1" xmlns="http://www.w3.org/2000/svg" viewBox="0 0 350 300"><defs><style>.cls-1{fill:#f37062;}.cls-2{fill:#231f20;}.cls-3{fill:#ef4d74;}.cls-4{fill:#f5a2bc;}.cls-5{fill:#f19c41;}.cls-6{fill:#e92390;}.cls-7{fill:#f6bb4d;}.cls-8{fill:#ef4d76;}.cls-9{fill:#cf1482;}</style></defs><polygon class="cls-8" points="188.1 218.4 167.69 206.62 167.78 213.65 165.58 217.32 126.26 194.57 136.08 176.45 146.81 182.7 146.82 168.54 157.09 174.53 168.85 159.82 187.93 170.83 188.1 218.4"/><path class="cls-2" d="M188.1,218.97c-.1,0-.2-.03-.29-.08l-19.54-11.28.08,6.03c0,.11-.03.21-.08.3l-2.2,3.67c-.16.27-.5.36-.78.2l-39.32-22.75c-.27-.15-.36-.49-.22-.77l9.82-18.11c.07-.14.2-.24.35-.28.15-.04.31-.02.44.06l9.88,5.75v-13.17c0-.2.11-.39.29-.49.18-.1.4-.1.57,0l9.85,5.74,11.45-14.33c.18-.22.49-.28.73-.14l19.08,11.02c.18.1.28.29.29.49l.17,47.57c0,.2-.11.39-.28.5-.09.05-.19.08-.29.08ZM167.69,206.05c.1,0,.2.03.29.08l19.55,11.28-.16-46.25-18.37-10.61-11.45,14.34c-.18.22-.49.28-.73.14l-9.42-5.49v13.17c0,.2-.11.39-.29.49-.18.1-.39.1-.57,0l-10.23-5.95-9.28,17.11,38.36,22.2,1.83-3.05-.09-6.87c0-.2.11-.4.28-.5.09-.05.19-.08.29-.08Z"/><polygon class="cls-8" points="95.43 271.72 70.64 257.4 54.31 236.49 54.32 224.24 64.59 230.18 64.6 218.45 74.87 212.37 95.43 224.24 95.43 271.72"/><path class="cls-2" d="M95.43,272.29c-.1,0-.2-.03-.29-.08l-24.79-14.31c-.06-.04-.12-.09-.16-.14l-16.32-20.91c-.08-.1-.12-.22-.12-.35v-12.25c0-.2.11-.39.29-.49.18-.1.39-.1.57,0l9.42,5.44v-10.74c0-.2.11-.39.29-.49l10.27-6.08c.18-.1.4-.11.58,0l20.56,11.87c.18.1.29.29.29.49v47.47c0,.2-.11.39-.29.49-.09.05-.19.08-.29.08ZM71.02,256.96l23.84,13.76v-46.16s-19.98-11.54-19.98-11.54l-9.71,5.74v11.4c0,.2-.11.39-.29.49-.18.1-.39.1-.57,0l-9.42-5.44v11.07s16.13,20.67,16.13,20.67Z"/><polygon class="cls-8" points="110.84 262.81 105.97 259.99 105.71 247.98 110.84 262.81"/><path class="cls-2" d="M110.84,263.38c-.1,0-.2-.03-.29-.08l-4.87-2.81c-.17-.1-.28-.28-.29-.48l-.26-12.02c0-.28.19-.52.47-.57.27-.05.55.11.64.37l5.14,14.83c.08.22,0,.47-.18.63-.1.09-.23.13-.36.13ZM106.53,259.66l3.27,1.89-3.45-9.95.18,8.06Z"/><polygon class="cls-8" points="64.6 242.04 23.48 218.31 23.48 265.78 64.6 289.52 64.6 242.04"/><path class="cls-2" d="M64.6,290.09c-.1,0-.2-.03-.29-.08l-41.11-23.74c-.18-.1-.29-.29-.29-.49v-47.47c0-.2.11-.39.29-.49.18-.1.39-.1.57,0l41.11,23.74c.18.1.29.29.29.49v47.47c0,.2-.11.39-.29.49-.09.05-.19.08-.29.08ZM24.05,265.45l39.97,23.08v-46.16s-39.97-23.08-39.97-23.08v46.16Z"/><polygon class="cls-8" points="244.15 138.38 244.15 150.27 218.86 135.66 218.84 129.28 224.3 126.86 233.89 132.43 244.15 138.38"/><path class="cls-2" d="M244.15,150.84c-.1,0-.2-.03-.29-.08l-25.29-14.61c-.18-.1-.28-.29-.29-.49l-.02-6.37c0-.23.13-.43.34-.52l5.46-2.43c.17-.07.36-.06.52.03l19.85,11.52c.18.1.28.29.28.49v11.89c0,.2-.1.39-.28.49-.09.05-.19.08-.29.08ZM219.43,135.33l24.15,13.96v-10.57s-19.32-11.21-19.32-11.21l-4.85,2.16.02,5.67Z"/><path class="cls-8" d="M132.46,217.72l-29.49-17.02,1.66,4.96-18.56-.08,9.35,6.79,19.84,15.02-3.61,10.18,17.76,10.25c.75.43,1.69-.08,1.73-.95l1.32-28.66"/><path class="cls-2" d="M129.99,248.54c-.3,0-.59-.08-.86-.23l-17.76-10.25c-.24-.14-.34-.43-.25-.68l3.47-9.79-19.51-14.76-9.34-6.78c-.2-.15-.28-.4-.21-.64.08-.23.3-.39.54-.39h0s17.76.08,17.76.08l-1.41-4.21c-.08-.22,0-.47.18-.62.18-.15.44-.17.65-.05l29.49,17.02-.56.97.85.04-1.32,28.66c-.03.61-.36,1.14-.9,1.43-.26.14-.55.21-.83.21ZM112.35,237.32l17.35,10.01c.26.15.49.05.57,0,.09-.05.29-.19.3-.49l1.32-28.66h.26s-28.15-16.24-28.15-16.24l1.18,3.53c.06.17.03.37-.08.52-.11.15-.28.22-.46.24l-16.79-.07,7.92,5.75,19.85,15.02c.2.15.28.41.19.65l-3.45,9.74Z"/><path class="cls-8" d="M225.13,164.32l-29.49-17.02,1.66,4.96-9.21,6.71h0l14.42,15.29,1.81,9.91,17.76,10.25c.75.43,1.69-.08,1.73-.95l1.32-28.66"/><path class="cls-2" d="M222.66,195.14c-.3,0-.59-.08-.86-.23l-17.76-10.25c-.14-.08-.25-.23-.28-.39l-1.78-9.74-14.31-15.17c-.11-.12-.17-.28-.15-.44.02-.16.1-.31.23-.41l8.87-6.46-1.53-4.57c-.08-.22,0-.47.18-.62.18-.15.44-.17.65-.05l29.48,17.02-.56.97.85.04-1.32,28.66c-.03.61-.36,1.14-.9,1.44-.26.14-.55.21-.83.21ZM204.84,183.81l17.53,10.11c.26.15.49.05.57,0,.09-.05.29-.19.3-.49l1.32-28.66h.26s-28.15-16.24-28.15-16.24l1.18,3.54c.08.24,0,.5-.2.64l-8.68,6.33,13.98,14.82c.08.08.13.18.15.29l1.76,9.65Z"/><polyline class="cls-8" points="157.1 236.11 157.1 224.24 146.83 218.31 146.82 230.17 157.1 236.11"/><path class="cls-2" d="M157.1,236.68c-.1,0-.2-.03-.29-.08l-10.28-5.94c-.18-.1-.29-.29-.29-.49v-11.86c0-.2.11-.39.29-.49.18-.1.39-.1.57,0l10.27,5.93c.18.1.29.29.29.49v11.87c0,.2-.11.39-.29.49-.09.05-.19.08-.29.08ZM147.39,229.84l9.14,5.28v-10.55s-9.13-5.28-9.13-5.28v10.55Z"/><polyline class="cls-8" points="254.43 179.94 204.64 149.32 204.61 144.84 208.49 147.09 208.49 139.81 218.86 141.11 213.47 132.51 244.15 150.27 254.43 144.34 254.43 179.94"/><path class="cls-2" d="M254.43,180.51c-.1,0-.21-.03-.3-.08l-49.79-30.62c-.17-.1-.27-.29-.27-.48l-.03-4.48c0-.2.11-.39.28-.5.18-.1.4-.1.57,0l3.02,1.76v-6.3c0-.16.07-.32.19-.43.12-.11.29-.16.45-.14l9.18,1.15-4.76-7.58c-.14-.22-.11-.51.07-.7.18-.19.47-.23.7-.1l30.4,17.6,9.99-5.77c.18-.1.39-.1.57,0,.18.1.29.29.29.49v35.61c0,.21-.11.4-.29.5-.09.05-.18.07-.28.07ZM205.21,149l48.65,29.92v-33.6s-9.42,5.44-9.42,5.44c-.18.1-.39.1-.57,0l-28.69-16.61,4.17,6.65c.12.19.12.42,0,.61-.12.19-.33.29-.55.26l-9.73-1.22v6.64c0,.2-.11.39-.29.49-.18.1-.39.1-.57,0l-3.02-1.76.02,3.17Z"/><polyline class="cls-8" points="228.03 177.35 230.06 178.54 230.33 182.58 229.05 185.4 227.32 184.22 228.03 177.35"/><path class="cls-2" d="M229.05,185.97c-.11,0-.23-.03-.32-.1l-1.73-1.18c-.17-.12-.27-.32-.25-.53l.72-6.88c.02-.19.14-.36.31-.45.17-.09.38-.08.55.02l2.03,1.19c.16.1.27.27.28.45l.27,4.04c0,.09-.01.19-.05.27l-1.28,2.83c-.07.15-.2.27-.37.31-.05.01-.1.02-.15.02ZM227.92,183.94l.89.61.94-2.08-.24-3.59-1.01-.59-.59,5.66Z"/><polygon class="cls-8" points="103.59 238.67 103.39 228.52 107.9 225.65 111.58 234.36 103.59 238.67"/><path class="cls-2" d="M103.59,239.24c-.1,0-.2-.03-.29-.08-.17-.1-.28-.28-.28-.48l-.2-10.15c0-.2.1-.39.26-.49l4.51-2.87c.14-.09.32-.11.48-.06.16.05.29.17.36.32l3.69,8.71c.11.27,0,.58-.26.72l-7.99,4.3c-.08.05-.18.07-.27.07ZM103.96,228.83l.18,8.89,6.71-3.62-3.22-7.61-3.67,2.34Z"/><polygon class="cls-8" points="133.93 209.77 138.23 207.51 138.23 239.28 134.85 241.02 133.93 209.77"/><path class="cls-2" d="M134.85,241.59c-.1,0-.2-.03-.29-.08-.17-.1-.27-.28-.28-.47l-.92-31.26c0-.22.11-.42.31-.52l4.3-2.25c.18-.09.39-.09.56.02.17.1.28.29.28.49v31.77c0,.21-.12.41-.31.51l-3.38,1.74c-.08.04-.17.06-.26.06ZM134.51,210.11l.89,30,2.27-1.17v-30.48s-3.15,1.65-3.15,1.65Z"/><polygon class="cls-5" points="274.99 120.49 259.88 111.78 259.88 111.78 259.88 117.37 249.61 111.63 239.33 117.42 228.21 122.7 228.21 129.14 244.15 138.38 274.99 120.49"/><path class="cls-2" d="M244.15,138.95c-.1,0-.2-.03-.29-.08l-15.93-9.24c-.18-.1-.28-.29-.28-.49v-6.44c0-.22.13-.42.33-.52l11.11-5.27,10.25-5.77c.17-.1.38-.1.56,0l9.42,5.26v-4.62c0-.2.11-.39.29-.49.18-.1.39-.1.57,0l15.1,8.71c.18.1.29.29.29.49s-.11.39-.28.49l-30.84,17.89c-.09.05-.19.08-.29.08ZM228.78,128.81l15.36,8.91,29.7-17.23-13.4-7.73v4.6c0,.2-.11.39-.28.49-.17.1-.39.11-.57,0l-9.99-5.58-10.01,5.63-10.82,5.14v5.75Z"/><polygon class="cls-5" points="230.06 178.54 239.33 173.19 228.03 166.65 228.03 170.18 228.03 174.59 223.3 174.61 230.06 178.54"/><path class="cls-2" d="M230.06,179.11c-.1,0-.2-.03-.29-.08l-6.76-3.93c-.22-.13-.33-.39-.26-.64s.29-.42.55-.42l4.16-.02v-7.37c0-.2.11-.39.29-.49.18-.1.39-.1.57,0l11.3,6.54c.18.1.28.29.28.49s-.11.39-.29.49l-9.26,5.35c-.09.05-.19.08-.29.08ZM225.4,175.17l4.66,2.71,8.12-4.69-9.59-5.55v6.95c0,.31-.25.57-.57.57h-2.63Z"/><polygon class="cls-5" points="208.49 177.71 202.52 174.26 198.03 176.86 198.03 183.73 208.49 177.71"/><path class="cls-2" d="M198.03,184.3c-.1,0-.2-.03-.29-.08-.18-.1-.29-.29-.29-.49v-6.87c0-.2.11-.39.28-.49l4.49-2.6c.18-.1.4-.1.57,0l5.96,3.45c.18.1.29.29.29.49s-.11.39-.29.49l-10.45,6.03c-.09.05-.19.08-.29.08ZM198.6,177.19v5.56s8.74-5.04,8.74-5.04l-4.82-2.79-3.92,2.27Z"/><polygon class="cls-5" points="187.94 170.83 208.5 158.96 187.94 147.09 187.93 158.96 179.93 154.27 167.38 158.96 187.94 170.83"/><path class="cls-2" d="M187.94,171.4c-.1,0-.2-.03-.29-.08l-20.56-11.87c-.19-.11-.3-.32-.28-.54.02-.22.16-.41.37-.49l12.55-4.69c.16-.06.34-.04.49.04l7.15,4.19v-10.87c0-.2.11-.39.29-.49.18-.1.39-.1.57,0l20.56,11.87c.18.1.29.29.29.49s-.11.39-.29.49l-20.56,11.87c-.09.05-.19.08-.29.08ZM168.72,159.07l19.22,11.1,19.42-11.21-18.85-10.88v10.88c0,.2-.11.39-.29.49-.18.1-.4.1-.57,0l-7.77-4.55-11.16,4.17Z"/><polygon class="cls-5" points="167.38 182.7 177.66 176.77 157.1 164.9 157.09 176.77 167.38 182.7"/><path class="cls-2" d="M167.38,183.27c-.1,0-.2-.03-.29-.08l-10.28-5.93c-.18-.1-.29-.29-.29-.49v-11.87c0-.2.12-.39.29-.49.18-.1.39-.1.57,0l20.56,11.87c.18.1.29.29.29.49s-.11.39-.29.49l-10.28,5.93c-.09.05-.19.08-.29.08ZM157.66,176.44l9.71,5.61,9.14-5.28-18.85-10.88v10.55Z"/><path class="cls-5" d="M64.6,242.04l9.29-5.02,7.82,1.03c.15.02.22-.19.09-.26l-15.37-8.87-30.74-17.65-12.2,7.04,41.11,23.74Z"/><path class="cls-2" d="M64.6,242.61c-.1,0-.2-.03-.29-.08l-41.11-23.74c-.18-.1-.29-.29-.29-.49s.11-.39.29-.49l12.2-7.04c.18-.1.39-.1.57,0l30.74,17.65,15.37,8.87c.3.17.43.52.32.85-.11.33-.43.52-.77.48l-7.63-1.01-9.13,4.93c-.08.05-.18.07-.27.07ZM24.63,218.31l39.98,23.08,9.01-4.87c.11-.06.23-.08.35-.06l5.68.75-13.5-7.79-30.46-17.48-11.06,6.38Z"/><polygon class="cls-5" points="97.03 225.17 106.33 220.15 112.69 219.82 97.63 211.1 95.43 209.8 85.15 206.44 55.92 201.43 97.03 225.17"/><path class="cls-2" d="M97.03,225.74c-.1,0-.2-.03-.29-.08l-41.11-23.74c-.24-.14-.35-.43-.25-.69.09-.26.36-.41.63-.37l29.23,5.01s.05.01.08.02l10.28,3.36s.08.03.11.05l2.2,1.3,15.05,8.72c.22.13.33.38.27.63-.06.25-.27.42-.53.44l-6.23.32-9.18,4.96c-.08.05-.18.07-.27.07ZM58.97,202.53l38.08,21.98,9.01-4.87c.07-.04.16-.06.24-.07l4.44-.23-13.39-7.76-2.15-1.27-10.19-3.33-26.04-4.46Z"/><polygon class="cls-5" points="126.87 214.6 143.45 201.21 129.11 192.93 126.26 194.57 116.5 189.08 119.88 198.26 115.99 200.65 105.71 194.71 105.97 200.65 106.01 202.56 106.01 202.56 126.87 214.6"/><path class="cls-2" d="M126.87,215.17c-.1,0-.2-.03-.29-.08l-20.86-12.04c-.17-.1-.28-.28-.29-.48l-.04-1.91-.26-5.93c0-.21.1-.4.27-.51.18-.11.4-.11.58,0l9.98,5.76,3.2-1.97-3.22-8.73c-.08-.22-.02-.48.17-.63.18-.15.44-.18.65-.06l9.48,5.33,2.57-1.48c.18-.1.39-.1.57,0l14.34,8.28c.16.09.27.26.28.45s-.06.37-.21.49l-16.59,13.4c-.1.08-.23.13-.36.13ZM106.57,202.23l20.24,11.69,15.64-12.63-13.34-7.7-2.57,1.48c-.17.1-.39.1-.56,0l-8.41-4.73,2.84,7.72c.09.25,0,.54-.24.68l-3.89,2.39c-.18.11-.4.11-.58,0l-9.38-5.42.21,4.9.03,1.6Z"/><polygon class="cls-5" points="219.11 160.97 235.69 147.57 218.86 137.86 208.57 135.36 208.49 147.09 208.49 147.09 198.21 141.16 198.21 147.02 198.21 147.02 198.21 148.88 198.21 148.91 219.11 160.97"/><path class="cls-2" d="M219.11,161.54c-.1,0-.2-.03-.29-.08l-20.89-12.05c-.18-.1-.29-.29-.29-.49v-1.9s0-5.86,0-5.86c0-.2.11-.39.29-.49.18-.1.39-.1.57,0l9.43,5.44.07-10.75c0-.17.08-.34.22-.45.14-.11.32-.15.48-.1l10.29,2.49c.05.01.1.03.15.06l16.84,9.72c.16.09.27.26.28.45s-.06.37-.21.49l-16.59,13.4c-.1.08-.23.13-.36.13ZM198.78,148.58l20.27,11.69,15.64-12.63-16.04-9.26-9.51-2.3-.07,11.01c0,.2-.11.39-.29.49-.18.1-.39.1-.57,0l-9.42-5.44v4.87s0,1.57,0,1.57Z"/><polyline class="cls-5" points="157.1 224.24 163.09 221.65 165.58 217.32 146.76 206.44 146.83 218.31 157.1 224.24"/><path class="cls-2" d="M157.1,224.81c-.1,0-.2-.03-.29-.08l-10.27-5.93c-.18-.1-.28-.29-.29-.49l-.07-11.87c0-.2.11-.39.28-.5.18-.1.39-.1.57,0l18.82,10.89c.27.16.37.51.21.78l-2.49,4.33c-.06.11-.16.19-.27.24l-5.99,2.59c-.07.03-.15.05-.23.05ZM147.39,217.98l9.74,5.63,5.56-2.4,2.11-3.67-17.47-10.1.06,10.55Z"/><polygon class="cls-5" points="208.49 194.57 203.41 191.64 198.21 194.57 198.21 200.5 208.49 194.57"/><path class="cls-2" d="M198.21,201.07c-.1,0-.2-.03-.29-.08-.18-.1-.29-.29-.29-.49v-5.93c0-.21.11-.4.29-.5l5.2-2.93c.18-.1.39-.1.57,0l5.08,2.93c.18.1.29.29.29.49s-.11.39-.29.49l-10.28,5.93c-.09.05-.19.08-.29.08ZM198.78,194.9v4.61s8.57-4.95,8.57-4.95l-3.94-2.28-4.63,2.61Z"/><polygon class="cls-4" points="244.15 138.38 244.15 150.27 254.43 144.34 254.43 179.94 264.71 174.01 264.71 138.4 274.99 132.47 274.99 120.49 244.15 138.38"/><path class="cls-2" d="M254.43,180.51c-.1,0-.2-.03-.29-.08-.18-.1-.29-.29-.29-.49v-34.62s-9.42,5.44-9.42,5.44c-.18.1-.39.1-.57,0-.18-.1-.29-.29-.29-.49v-11.89c0-.2.1-.39.28-.49l30.84-17.89c.18-.1.39-.1.57,0,.18.1.29.29.29.49v11.98c0,.2-.11.39-.29.49l-9.99,5.77v35.28c0,.2-.11.39-.29.49l-10.28,5.93c-.09.05-.19.08-.29.08ZM254.43,143.77c.1,0,.2.03.29.08.18.1.29.29.29.49v34.62s9.14-5.28,9.14-5.28v-35.28c0-.2.11-.39.29-.49l9.99-5.77v-10.66s-29.7,17.23-29.7,17.23v10.58s9.43-5.44,9.43-5.44c.09-.05.19-.08.29-.08Z"/><polygon class="cls-4" points="187.93 170.83 187.93 218.31 208.49 206.44 208.49 194.57 198.21 200.5 198.21 194.57 208.49 188.77 208.49 177.7 198.21 183.63 198.21 176.77 208.49 170.83 208.49 158.96 187.93 170.83"/><path class="cls-2" d="M187.93,218.88c-.1,0-.2-.03-.29-.08-.18-.1-.29-.29-.29-.49v-47.47c0-.2.11-.39.29-.49l20.56-11.87c.18-.1.39-.1.57,0,.18.1.29.29.29.49v11.87c0,.2-.11.39-.29.49l-9.99,5.77v5.54s9.42-5.43,9.42-5.43c.18-.1.39-.1.57,0,.18.1.29.29.29.49v11.07c0,.21-.11.4-.29.5l-9.99,5.63v4.61s9.42-5.44,9.42-5.44c.18-.1.39-.1.57,0,.18.1.29.29.29.49v11.87c0,.2-.11.39-.29.49l-20.56,11.87c-.09.05-.19.08-.29.08ZM188.5,171.16v46.16s19.42-11.21,19.42-11.21v-10.55s-9.42,5.44-9.42,5.44c-.18.1-.39.1-.57,0-.18-.1-.29-.29-.29-.49v-5.93c0-.21.11-.4.29-.5l9.99-5.63v-9.75s-9.42,5.43-9.42,5.43c-.18.1-.39.1-.57,0-.18-.1-.29-.29-.29-.49v-6.86c0-.2.11-.39.29-.49l9.99-5.77v-10.55s-19.42,11.21-19.42,11.21Z"/><path class="cls-4" d="M135.78,201.03h0c-5.89,3.4-9.52,9.69-9.52,16.49v24.52c0,5.32,5.75,8.64,10.36,5.98h0c6.31-3.64,10.2-10.38,10.2-17.66v-22.96c0-5.66-6.13-9.2-11.04-6.37ZM137.56,215.22v3.65s0,1.36,0,1.36v.38s0,7.48,0,7.48c0,.05,0,.1,0,.14,0,.03,0,.06,0,.1v5.4c0,1.71-.38,3.3-1.01,4.15-.45.62-1.02-.16-1.02-1.41v-4.38s0-1.38,0-1.38v-7.02c0-.07,0-.13,0-.2,0-.05,0-.09,0-.14v-1.74s0-4.02,0-4.02v-1.74c0-1.6.36-3.08.94-3.88.48-.67,1.09.17,1.09,1.5v1.74Z"/><path class="cls-2" d="M133.17,249.53c-1.28,0-2.57-.34-3.74-1.01-2.34-1.35-3.74-3.77-3.74-6.47v-24.52c0-6.98,3.76-13.49,9.81-16.99,2.48-1.43,5.44-1.43,7.93,0,2.48,1.43,3.96,4,3.96,6.87v22.96c0,7.47-4.02,14.42-10.48,18.16-1.17.68-2.45,1.01-3.74,1.01ZM139.46,200.6c-1.17,0-2.33.31-3.39.92h0c-5.7,3.29-9.24,9.42-9.24,16v24.52c0,2.29,1.18,4.34,3.17,5.49,1.98,1.15,4.35,1.14,6.34,0,6.11-3.53,9.91-10.11,9.91-17.17v-22.96c0-2.45-1.27-4.65-3.39-5.88-1.06-.61-2.23-.92-3.39-.92ZM136.21,238.68c-.09,0-.18-.01-.27-.04-.6-.19-.99-1.04-.99-2.15v-20.63c0-1.73.39-3.31,1.05-4.21.29-.4.7-.56,1.1-.43.62.2,1.02,1.09,1.02,2.26v14.71s-.57.06-.57.06l.57.02v.08s0,5.4,0,5.4c0,1.85-.42,3.53-1.12,4.49-.22.3-.5.46-.8.46ZM136.82,212.49c-.45.77-.73,2.04-.73,3.37v20.63c0,.38.06.67.13.86.48-.82.76-2.18.76-3.6v-5.4s0-.09,0-.1v-.09s0-14.68,0-14.68c0-.47-.08-.8-.16-.99Z"/><path class="cls-4" d="M157.1,236.11v-11.87s3.56-2.06,3.56-2.06c4.16-2.34,6.74-6.76,6.74-11.53l-.02-27.95,10.28-5.93v33.88c0,8.47-4.58,16.31-11.96,20.47l-8.6,4.99Z"/><path class="cls-2" d="M157.1,236.68c-.1,0-.2-.03-.28-.08-.18-.1-.29-.29-.29-.49v-11.87c0-.2.11-.39.28-.49l3.56-2.06c3.98-2.25,6.45-6.47,6.45-11.04l-.02-27.95c0-.2.11-.39.29-.49l10.28-5.93c.18-.1.39-.1.57,0,.18.1.29.29.29.49v33.88c0,8.68-4.69,16.71-12.25,20.97l-8.59,4.99c-.09.05-.19.08-.29.08ZM157.67,224.57v10.55s7.74-4.49,7.74-4.49c7.21-4.06,11.68-11.72,11.68-19.98v-32.89s-9.14,5.28-9.14,5.28l.02,27.62c0,4.98-2.69,9.59-7.03,12.03l-3.27,1.89Z"/><path class="cls-4" d="M230.06,180.21c0,1.71-.38,3.3-1.01,4.15-.45.62-1.02-.16-1.02-1.41v-4.38s0-1.38,0-1.38v-7.02c0-.07,0-.13,0-.2,0-.05,0-.09,0-.14v-1.74s0-4.02,0-4.02v-1.74c0-1.6.36-3.08.94-3.88.48-.67,1.09.17,1.09,1.5v1.74s0,2.8,0,2.8l9.26-5.35v-.72s0-4.55,0-4.55c0-5.66-6.13-9.2-11.04-6.37h0c-5.89,3.4-9.52,9.69-9.52,16.49v24.52c0,5.32,5.75,8.64,10.36,5.98h0c6.31-3.64,10.2-10.38,10.2-17.66v-3.64s-9.26,5.35-9.26,5.35v1.67Z"/><path class="cls-2" d="M225.68,196c-1.28,0-2.57-.34-3.74-1.01-2.34-1.35-3.74-3.77-3.74-6.47v-24.52c0-6.98,3.76-13.49,9.81-16.99,2.48-1.43,5.45-1.43,7.93,0,2.48,1.43,3.96,4,3.96,6.87v5.27c0,.2-.11.39-.29.49l-9.26,5.35c-.18.1-.39.1-.57,0-.18-.1-.29-.29-.29-.49v-4.55c0-.46-.08-.8-.16-.99-.45.77-.73,2.04-.73,3.37v20.63c0,.38.06.67.13.86.48-.82.76-2.18.76-3.6v-1.67c0-.2.11-.39.29-.49l9.26-5.35c.18-.1.39-.1.57,0,.18.1.29.29.29.49v3.64c0,7.47-4.02,14.42-10.48,18.16-1.17.68-2.45,1.01-3.74,1.01ZM231.97,147.08c-1.17,0-2.33.31-3.39.92-5.7,3.29-9.24,9.42-9.24,16v24.52c0,2.29,1.18,4.34,3.17,5.49,1.98,1.15,4.35,1.15,6.34,0,6.11-3.53,9.91-10.11,9.91-17.17v-2.65s-8.12,4.69-8.12,4.69v1.34c0,1.85-.42,3.53-1.12,4.49-.28.38-.68.54-1.07.41-.6-.19-.99-1.04-.99-2.15v-20.63c0-1.73.39-3.31,1.05-4.21.29-.4.7-.55,1.1-.43.62.2,1.02,1.09,1.02,2.26v3.56s8.12-4.69,8.12-4.69v-4.95c0-2.45-1.27-4.65-3.39-5.88-1.06-.61-2.23-.92-3.39-.92Z"/><path class="cls-4" d="M119.88,257.6l-5.73-15.56s6.95-9.9,2.71-17.92c-2.4-4.56-7.9-6.89-12.66-4.94-2.19.9-5.1,2.83-8.77,5.06v47.47s10.66-6.16,10.66-6.16l-.39-17.58,5.14,14.84,9.03-5.21ZM109.22,232.51c-.2,1.17-.74,2.19-1.48,2.92-.29.28-.65.6-1.11.93l-.02.02-2.25,1.59v-8.24c.77-.44,1.31-.77,2.07-1.2.99-.56,2.05.21,2.56,1.43.36.87.36,1.78.24,2.54Z"/><path class="cls-2" d="M95.43,272.29c-.1,0-.2-.03-.29-.08-.18-.1-.29-.29-.29-.49v-47.47c0-.2.1-.38.27-.49.81-.49,1.57-.97,2.31-1.42,2.67-1.66,4.79-2.96,6.54-3.68,4.9-2.01,10.78.28,13.38,5.2,1.81,3.43,1.9,7.72.27,12.42-1.01,2.92-2.37,5.12-2.85,5.84l5.63,15.28c.1.26,0,.55-.25.69l-9.03,5.21c-.15.08-.32.1-.48.04-.16-.06-.28-.19-.34-.35l-3.95-11.41.31,13.95c0,.21-.1.4-.29.51l-10.66,6.16c-.09.05-.19.08-.29.08ZM96,224.56v46.17s9.52-5.49,9.52-5.49l-.38-17.24c0-.28.19-.52.47-.57.28-.05.55.11.64.37l4.91,14.18,8.02-4.63-5.56-15.11c-.06-.18-.04-.37.07-.52.07-.1,6.7-9.71,2.67-17.33-2.33-4.41-7.57-6.47-11.94-4.68-1.67.68-3.85,2.03-6.37,3.6-.65.4-1.33.82-2.04,1.26ZM104.35,238.55c-.09,0-.18-.02-.26-.06-.19-.1-.31-.29-.31-.51v-8.24c0-.2.11-.39.29-.49l.81-.47c.41-.24.79-.46,1.26-.73.51-.28,1.06-.34,1.6-.15.74.25,1.38.93,1.77,1.86.35.85.45,1.81.27,2.85-.21,1.24-.79,2.39-1.65,3.23-.34.34-.73.67-1.15.97-.02.02-.04.04-.06.05l-2.25,1.59c-.1.07-.21.1-.33.1ZM104.92,230.07v6.81s1.32-.94,1.32-.94c.02-.02.04-.03.05-.04.38-.28.73-.57,1.04-.88.68-.67,1.15-1.6,1.32-2.61h0c.14-.83.07-1.58-.2-2.23-.25-.61-.67-1.07-1.09-1.22-.23-.08-.45-.06-.67.06-.47.26-.85.48-1.25.72l-.53.31Z"/><path class="cls-4" d="M86.02,242.13c-2.4-4.56-7.9-6.89-12.66-4.94-2.19.9-5.22,2.95-8.77,4.86v47.47s10.66-6.15,10.66-6.15l-.38-17.39c5.35-1.34,8.44-5.93,8.44-5.93,0,0,6.95-9.9,2.71-17.92ZM78.22,251.29c-.2,1.17-.74,2.19-1.48,2.92-.29.28-.65.6-1.11.93l-.02.02-2.25,1.59v-8.24c.77-.44,1.31-.77,2.07-1.2.99-.56,2.05.21,2.56,1.43.36.87.36,1.78.24,2.54Z"/><path class="cls-2" d="M64.59,290.09c-.1,0-.2-.03-.29-.08-.18-.1-.29-.29-.29-.49v-47.47c0-.21.12-.4.3-.5,1.43-.77,2.81-1.58,4.03-2.3,1.85-1.09,3.45-2.04,4.79-2.59,4.91-2.01,10.78.28,13.38,5.2h0c1.81,3.43,1.9,7.72.27,12.42-1.22,3.51-2.94,5.99-3.02,6.09-.12.18-3.1,4.54-8.33,6.04l.37,16.94c0,.21-.1.4-.29.51l-10.66,6.15c-.09.05-.19.08-.29.08ZM65.16,242.38v46.15s9.51-5.49,9.51-5.49l-.37-17.05c0-.27.17-.5.43-.57,5.08-1.27,8.08-5.66,8.1-5.7.07-.11,6.7-9.72,2.68-17.34h0c-2.33-4.41-7.57-6.47-11.94-4.68-1.26.52-2.83,1.44-4.65,2.51-1.14.67-2.42,1.43-3.76,2.16ZM73.35,257.33c-.09,0-.18-.02-.26-.06-.19-.1-.31-.29-.31-.51v-8.24c0-.2.11-.39.29-.49l.81-.47c.41-.24.79-.46,1.27-.73.5-.28,1.06-.34,1.6-.15.74.25,1.38.93,1.77,1.86.35.85.45,1.81.27,2.85h0c-.21,1.25-.79,2.39-1.65,3.23-.35.34-.73.67-1.14.97-.02.02-.04.04-.06.05l-2.25,1.59c-.1.07-.21.1-.33.1ZM73.92,248.85v6.81s1.32-.93,1.32-.93c.02-.02.04-.03.05-.04.38-.28.73-.57,1.04-.88.68-.67,1.15-1.6,1.32-2.61.14-.83.07-1.58-.2-2.23-.25-.61-.67-1.07-1.09-1.22-.23-.08-.45-.06-.67.06-.47.26-.85.49-1.25.72l-.53.31Z"/><polyline class="cls-6" points="85.15 170.98 54.32 153.17 54.32 165.04 74.88 176.91 74.88 188.78 64.6 194.71 74.88 200.65 74.88 212.52 85.15 218.45 85.15 170.98"/><path class="cls-2" d="M85.15,219.02c-.1,0-.2-.03-.29-.08l-10.28-5.93c-.18-.1-.29-.29-.29-.49v-11.54s-9.99-5.77-9.99-5.77c-.18-.1-.29-.29-.29-.49s.11-.39.29-.49l9.99-5.77v-11.21s-20.27-11.7-20.27-11.7c-.18-.1-.29-.29-.29-.49v-11.87c0-.2.11-.39.29-.49.18-.1.39-.1.57,0l30.84,17.81c.18.1.29.29.29.49v47.47c0,.2-.11.39-.29.49-.09.05-.19.08-.29.08ZM75.45,212.19l9.14,5.28v-46.16s-29.7-17.15-29.7-17.15v10.56s20.27,11.7,20.27,11.7c.18.1.29.29.29.49v11.87c0,.2-.11.39-.29.49l-9.42,5.44,9.42,5.44c.18.1.29.29.29.49v11.54Z"/><polyline class="cls-6" points="115.99 200.65 85.15 183.3 85.16 135.37 115.98 153.17 115.99 200.65"/><path class="cls-2" d="M115.99,201.22c-.1,0-.19-.02-.28-.07l-30.83-17.34c-.18-.1-.29-.29-.29-.5v-47.94c0-.2.11-.39.29-.49.18-.1.39-.1.57,0l30.83,17.8c.18.1.29.29.29.49v47.47c0,.2-.11.39-.28.49-.09.05-.19.08-.29.08ZM85.73,182.97l29.69,16.7v-46.17s-29.69-17.14-29.69-17.14v46.61Z"/><polyline class="cls-6" points="177.66 117.57 177.66 165.04 146.83 146.98 146.82 99.76 177.66 117.57"/><path class="cls-2" d="M177.66,165.61c-.1,0-.2-.03-.29-.08l-30.84-18.06c-.17-.1-.28-.29-.28-.49v-47.21c0-.2.1-.39.28-.49.18-.1.39-.1.57,0l30.84,17.8c.18.1.29.29.29.49v47.47c0,.2-.11.39-.29.49-.09.05-.19.08-.28.08ZM147.4,146.65l29.7,17.4v-46.15s-29.7-17.15-29.7-17.15v45.9Z"/><polyline class="cls-6" points="198.22 129.44 187.95 123.5 187.94 111.63 167.38 99.76 167.38 87.89 198.22 105.7 198.22 129.44"/><path class="cls-2" d="M198.22,130.01c-.1,0-.2-.03-.29-.08l-10.27-5.93c-.18-.1-.29-.29-.29-.49v-11.54s-20.28-11.7-20.28-11.7c-.18-.1-.29-.29-.29-.49v-11.87c0-.2.11-.39.29-.49.18-.1.39-.1.57,0l30.84,17.8c.18.1.29.29.29.49v23.74c0,.2-.11.39-.29.49-.09.05-.19.08-.29.08ZM188.52,123.17l9.13,5.28v-22.42s-29.7-17.14-29.7-17.14v10.55s20.27,11.7,20.27,11.7c.18.1.29.29.29.49v11.54Z"/><polyline class="cls-6" points="198.22 153.17 187.94 147.24 198.22 141.3 198.22 153.17"/><path class="cls-2" d="M198.22,153.74c-.1,0-.2-.03-.29-.08l-10.28-5.93c-.18-.1-.29-.29-.29-.49s.11-.39.29-.49l10.28-5.93c.18-.1.39-.1.57,0,.18.1.29.29.29.49v11.87c0,.2-.11.39-.29.49-.09.05-.19.08-.29.08ZM189.08,147.24l8.57,4.95v-9.89s-8.57,4.95-8.57,4.95Z"/><polygon class="cls-6" points="239.33 110.33 239.33 129.44 229.05 123.5 229.06 111.63 234.2 120.54 235.74 119.64 239.33 110.33"/><path class="cls-2" d="M239.33,130.01c-.1,0-.2-.03-.29-.08l-10.28-5.93c-.18-.1-.29-.29-.29-.49v-11.87c0-.26.18-.48.43-.55.25-.07.51.04.64.27l4.85,8.41.87-.51,3.52-9.12c.1-.26.37-.41.64-.36.27.05.47.29.47.56v19.1c0,.2-.11.39-.29.49-.09.05-.19.08-.29.08ZM229.62,123.17l9.14,5.28v-15.05s-2.49,6.45-2.49,6.45c-.05.12-.13.22-.25.29l-1.54.89c-.13.08-.29.1-.43.06-.15-.04-.27-.13-.35-.27l-4.08-7.06v9.41Z"/><polyline class="cls-6" points="218.78 93.83 187.94 76.03 187.94 87.89 208.5 99.76 208.57 135.36 218.78 141.3 218.78 93.83"/><path class="cls-2" d="M218.78,141.87c-.1,0-.2-.03-.29-.08l-10.21-5.94c-.18-.1-.28-.29-.28-.49l-.07-35.27-20.27-11.7c-.18-.1-.29-.29-.29-.49v-11.87c0-.2.11-.39.29-.49.18-.1.39-.1.57,0l30.84,17.8c.18.1.29.29.29.49v47.47c0,.2-.11.39-.29.49-.09.05-.19.08-.28.08ZM209.14,135.03l9.07,5.28v-46.15s-29.7-17.14-29.7-17.14v10.55s20.27,11.7,20.27,11.7c.18.1.28.29.29.49l.07,35.27Z"/><polyline class="cls-6" points="229.05 87.89 234.68 102.79 239.33 81.96 208.5 64.16 206.12 74.65 229.05 87.89"/><path class="cls-2" d="M234.68,103.36c-.24,0-.45-.15-.53-.37l-5.56-14.71-22.76-13.14c-.22-.13-.33-.38-.27-.62l2.38-10.5c.04-.18.16-.32.33-.4.17-.07.36-.06.51.03l30.84,17.8c.22.12.33.38.27.62l-4.65,20.83c-.05.25-.26.43-.52.44-.01,0-.03,0-.04,0ZM206.77,74.37l22.57,13.03c.11.07.2.17.25.29l4.96,13.11,4.14-18.56-29.8-17.21-2.12,9.33Z"/><polygon class="cls-6" points="259.89 117.57 270.17 64.16 239.34 46.35 235.2 67.7 249.61 76.03 249.61 111.63 259.89 117.57"/><path class="cls-2" d="M259.89,118.14c-.1,0-.2-.03-.29-.08l-10.28-5.93c-.18-.1-.29-.29-.29-.49v-35.27s-14.12-8.16-14.12-8.16c-.21-.12-.32-.36-.27-.6l4.14-21.35c.04-.18.16-.33.32-.41.17-.08.36-.07.52.02l30.83,17.8c.21.12.32.36.28.6l-10.28,53.41c-.04.18-.16.33-.32.41-.08.03-.16.05-.24.05ZM250.18,111.3l9.3,5.37,10.05-52.22-29.79-17.2-3.91,20.17,14.06,8.12c.18.1.29.29.29.49v35.27Z"/><polygon class="cls-6" points="280.45 105.7 277.81 95.37 272.81 98.24 272.26 101.01 280.45 105.7"/><path class="cls-2" d="M280.45,106.27c-.1,0-.2-.03-.28-.08l-8.18-4.69c-.21-.12-.32-.36-.28-.6l.55-2.77c.03-.16.13-.3.28-.38l5-2.87c.15-.09.34-.1.51-.03.16.07.29.21.33.38l2.64,10.32c.06.22-.03.46-.21.59-.1.08-.22.12-.35.12ZM272.9,100.72l6.66,3.82-2.12-8.29-4.13,2.37-.42,2.11Z"/><polyline class="cls-6" points="146.82 170.98 146.82 182.84 131.47 173.98 136.54 171.11 136.55 165.05 146.82 170.98"/><path class="cls-2" d="M146.82,183.41c-.1,0-.2-.03-.29-.08l-15.35-8.87c-.18-.1-.29-.29-.29-.5,0-.2.11-.39.29-.49l4.79-2.7v-5.74c0-.2.11-.39.29-.49.18-.1.39-.1.57,0l10.27,5.93c.18.1.29.29.29.49v11.87c0,.2-.11.39-.29.49-.09.05-.19.08-.29.08ZM132.62,173.98l13.63,7.87v-10.55s-9.13-5.27-9.13-5.27v5.08c0,.21-.12.4-.29.5l-4.21,2.37Z"/><polygon class="cls-6" points="150.84 156.87 136.55 148.44 136.54 141.3 126.27 135.37 136.55 129.44 148.04 136.07 150.84 156.87"/><path class="cls-2" d="M150.84,157.44c-.1,0-.2-.03-.29-.08l-14.29-8.43c-.17-.1-.28-.29-.28-.49v-6.8s-9.99-5.77-9.99-5.77c-.18-.1-.29-.29-.29-.49s.11-.39.29-.49l10.28-5.93c.18-.1.39-.1.57,0l11.49,6.63c.15.09.26.24.28.42l2.8,20.8c.03.22-.07.43-.25.55-.1.06-.2.09-.32.09ZM137.12,148.11l13,7.67-2.61-19.36-10.96-6.33-9.14,5.28,9.42,5.44c.18.1.29.29.29.49v6.81Z"/><polyline class="cls-6" points="54.32 188.78 23.48 170.98 23.48 218.45 54.32 236.25 54.32 188.78"/><path class="cls-2" d="M54.32,236.82c-.1,0-.2-.03-.29-.08l-30.84-17.8c-.18-.1-.29-.29-.29-.49v-47.47c0-.2.11-.39.29-.49.18-.1.39-.1.57,0l30.84,17.8c.18.1.29.29.29.49v47.47c0,.2-.11.39-.29.49-.09.05-.19.08-.29.08ZM24.05,218.12l29.69,17.14v-46.16s-29.69-17.14-29.69-17.14v46.16Z"/><polyline class="cls-6" points="275.4 77.15 277.13 84.03 274.4 82.45"/><path class="cls-2" d="M277.12,84.6c-.1,0-.2-.03-.29-.08l-2.73-1.58.57-.99,1.56.9-1.4-5.57,1.11-.28,1.73,6.88c.06.22-.03.46-.21.59-.1.08-.22.11-.34.11Z"/><polygon class="cls-6" points="301 93.83 287.47 86.02 280.45 58.22 270.17 52.29 270.17 28.55 301 46.35 301 93.83"/><path class="cls-2" d="M301,94.4c-.1,0-.2-.03-.29-.08l-13.53-7.81c-.13-.08-.23-.2-.27-.35l-6.97-27.56-10.07-5.81c-.18-.1-.29-.29-.29-.49v-23.74c0-.2.11-.39.29-.49.18-.1.39-.1.57,0l30.84,17.8c.18.1.29.29.29.49v47.47c0,.2-.11.39-.29.49-.09.05-.19.08-.29.08ZM287.97,85.64l12.47,7.2v-46.16s-29.7-17.14-29.7-17.14v22.42s9.99,5.77,9.99,5.77c.13.08.23.2.27.35l6.97,27.56Z"/><polygon class="cls-6" points="321.56 81.96 311.29 76.03 311.28 62.47 321.56 81.96"/><path class="cls-2" d="M321.56,82.53c-.1,0-.2-.03-.29-.08l-10.27-5.93c-.18-.1-.29-.29-.29-.49v-13.56c0-.26.17-.49.43-.55.26-.06.52.06.64.29l10.28,19.49c.12.22.07.5-.11.68-.11.1-.25.16-.4.16ZM311.86,75.7l8.28,4.78-8.28-15.7v10.92Z"/><polygon class="cls-6" points="311.27 40.43 321.56 60.9 321.56 34.49 290.73 16.68 290.73 28.55 311.27 40.43"/><path class="cls-2" d="M321.56,61.47c-.21,0-.41-.12-.51-.31l-10.22-20.32-20.39-11.79c-.18-.1-.28-.29-.28-.49v-11.87c0-.2.11-.39.28-.49.18-.1.39-.1.57,0l30.84,17.8c.18.1.29.29.29.49v26.42c0,.26-.18.49-.44.55-.04.01-.09.02-.13.02ZM291.3,28.22l20.26,11.71c.1.06.17.14.22.24l9.21,18.33v-23.69s-29.7-17.14-29.7-17.14v10.55Z"/><polygon class="cls-6" points="100.57 209.54 95.7 206.73 95.43 194.71 100.57 209.54"/><path class="cls-2" d="M100.57,210.11c-.1,0-.2-.03-.29-.08l-4.87-2.81c-.17-.1-.28-.28-.29-.48l-.26-12.02c0-.28.19-.52.47-.57.28-.05.55.11.64.37l5.14,14.83c.08.22,0,.47-.18.63-.1.09-.23.13-.36.13ZM96.26,206.4l3.27,1.89-3.45-9.95.18,8.06Z"/><polygon class="cls-9" points="234.2 120.54 229.06 117.57 229.06 111.63 234.2 120.54"/><polygon class="cls-4" points="136.55 148.44 136.55 153.17 130.54 156.64 136.54 160.04 136.55 165.05 146.82 170.98 152.61 169.87 159.95 162.8 158.67 158.9 150.84 156.87 136.55 148.44"/><path class="cls-2" d="M146.82,171.55c-.1,0-.2-.03-.29-.08l-10.27-5.93c-.18-.1-.29-.29-.29-.49v-4.67s-5.72-3.24-5.72-3.24c-.18-.1-.29-.29-.29-.49,0-.2.11-.39.29-.5l5.72-3.3v-4.41c0-.2.11-.39.29-.5.18-.1.4-.1.57,0l14.22,8.39,7.76,2.01c.19.05.34.19.4.37l1.28,3.9c.07.21.01.44-.15.59l-7.35,7.07c-.08.08-.18.13-.29.15l-5.79,1.11s-.07.01-.11.01ZM137.12,164.72l9.8,5.66,5.41-1.04,6.97-6.7-1.07-3.26-7.53-1.95c-.05-.01-.1-.03-.15-.06l-13.43-7.93v3.74c0,.2-.11.39-.29.49l-5.14,2.97,5.13,2.91c.18.1.29.29.29.5v4.68Z"/><polyline class="cls-4" points="136.54 176.91 131.47 173.98 126.26 176.91 126.26 182.84 136.54 176.91"/><path class="cls-2" d="M126.26,183.41c-.1,0-.2-.03-.29-.08-.18-.1-.29-.29-.29-.49v-5.93c0-.21.11-.4.29-.5l5.2-2.93c.18-.1.39-.1.57,0l5.08,2.93c.18.1.29.29.29.49s-.11.39-.29.49l-10.28,5.93c-.09.05-.19.08-.29.08ZM126.83,177.24v4.61s8.57-4.95,8.57-4.95l-3.94-2.28-4.63,2.61Z"/><polyline class="cls-4" points="136.54 160.04 130.52 156.64 126.26 159.11 126.26 165.97 136.18 160.29"/><path class="cls-2" d="M126.26,166.54c-.1,0-.2-.03-.29-.08-.18-.1-.28-.29-.28-.49v-6.86c0-.2.11-.39.28-.49l4.26-2.47c.18-.1.39-.1.57,0l6.02,3.4-.53.94.17.3-9.91,5.68c-.09.05-.19.08-.28.08ZM126.83,159.44v5.55s8.59-4.92,8.59-4.92l-4.89-2.77-3.69,2.14Z"/><polyline class="cls-4" points="105.71 147.24 115.98 153.17 136.54 141.3 115.98 129.43 105.7 135.37 105.71 147.24"/><path class="cls-2" d="M115.99,153.74c-.1,0-.2-.03-.29-.08l-10.27-5.93c-.18-.1-.29-.29-.29-.49v-11.87c-.01-.2.1-.39.27-.49l10.28-5.93c.18-.1.39-.1.57,0l20.56,11.87c.18.1.29.29.29.49s-.11.39-.29.49l-20.56,11.87c-.09.05-.19.08-.29.08ZM106.28,146.91l9.7,5.61,19.42-11.21-19.42-11.21-9.71,5.6v11.21Z"/><polyline class="cls-4" points="187.95 123.5 198.22 129.44 187.94 135.37 187.95 123.5"/><path class="cls-2" d="M187.94,135.94c-.1,0-.2-.03-.29-.08-.18-.1-.29-.29-.29-.49v-11.87c0-.2.11-.39.29-.49.18-.1.39-.1.57,0l10.27,5.93c.18.1.29.29.29.49s-.11.39-.29.49l-10.28,5.93c-.09.05-.19.08-.29.08ZM188.52,124.49v9.89s8.56-4.95,8.56-4.95l-8.56-4.95Z"/><polyline class="cls-4" points="187.94 111.63 177.66 117.57 146.82 99.76 157.1 93.83 187.94 111.63"/><path class="cls-2" d="M177.66,118.14c-.1,0-.2-.03-.29-.08l-30.84-17.8c-.18-.1-.29-.29-.29-.49s.11-.39.29-.49l10.28-5.93c.18-.1.39-.1.57,0l30.84,17.8c.18.1.29.29.29.49s-.11.39-.29.49l-10.28,5.93c-.09.05-.19.08-.29.08ZM147.96,99.76l29.7,17.14,9.14-5.28-29.7-17.14-9.14,5.28Z"/><polygon class="cls-4" points="167.38 87.89 177.66 81.96 208.5 99.76 198.22 105.7 167.38 87.89"/><path class="cls-2" d="M198.22,106.27c-.1,0-.2-.03-.29-.08l-30.84-17.8c-.18-.1-.29-.29-.29-.49s.11-.39.29-.49l10.28-5.93c.18-.1.39-.1.57,0l30.84,17.8c.18.1.29.29.29.49s-.11.39-.29.49l-10.28,5.93c-.09.05-.19.08-.29.08ZM168.52,87.89l29.7,17.14,9.14-5.28-29.7-17.14-9.14,5.28Z"/><polygon class="cls-4" points="198.22 70.09 187.94 76.03 218.78 93.83 229.05 87.89 198.22 70.09"/><path class="cls-2" d="M218.78,94.4c-.1,0-.2-.03-.29-.08l-30.84-17.8c-.18-.1-.29-.29-.29-.49s.11-.39.29-.49l10.28-5.93c.18-.1.39-.1.57,0l30.84,17.8c.18.1.29.29.29.49s-.11.39-.29.49l-10.28,5.93c-.09.05-.19.08-.29.08ZM189.08,76.03l29.7,17.14,9.14-5.28-29.7-17.14-9.14,5.28Z"/><polygon class="cls-4" points="208.5 64.16 218.78 58.22 249.61 76.03 239.33 81.96 208.5 64.16"/><path class="cls-2" d="M239.33,82.53c-.1,0-.2-.03-.29-.08l-30.84-17.8c-.18-.1-.29-.29-.29-.49s.11-.39.29-.49l10.28-5.93c.18-.1.39-.1.57,0l30.84,17.8c.18.1.29.29.29.49s-.11.39-.29.49l-10.28,5.93c-.09.05-.19.08-.29.08ZM209.64,64.16l29.69,17.14,9.14-5.28-29.7-17.14-9.14,5.28Z"/><polygon class="cls-4" points="239.34 46.35 249.61 40.42 280.45 58.22 270.17 64.16 239.34 46.35"/><path class="cls-2" d="M270.17,64.73c-.1,0-.2-.03-.29-.08l-30.83-17.8c-.18-.1-.29-.29-.29-.49s.11-.39.29-.49l10.27-5.93c.18-.1.39-.1.57,0l30.84,17.8c.18.1.29.29.29.49s-.11.39-.29.49l-10.28,5.93c-.09.05-.19.08-.29.08ZM240.48,46.35l29.69,17.14,9.14-5.28-29.69-17.14-9.13,5.28Z"/><polyline class="cls-4" points="270.17 28.55 280.45 22.62 311.27 40.43 301 46.35 270.17 28.55"/><path class="cls-2" d="M301,46.92c-.1,0-.2-.03-.29-.08l-30.84-17.8c-.18-.1-.29-.29-.29-.49s.11-.39.29-.49l10.28-5.93c.18-.1.39-.1.57,0l30.82,17.81c.18.1.29.29.29.49s-.11.39-.29.49l-10.26,5.93c-.09.05-.19.08-.29.08ZM271.31,28.55l29.7,17.14,9.12-5.27-29.68-17.15-9.14,5.28Z"/><polyline class="cls-4" points="290.73 16.68 301 10.75 331.84 28.55 321.56 34.49 290.73 16.68"/><path class="cls-2" d="M321.56,35.06c-.1,0-.2-.03-.29-.08l-30.84-17.8c-.18-.1-.29-.29-.29-.49s.11-.39.29-.49l10.28-5.93c.18-.1.39-.1.57,0l30.84,17.8c.18.1.29.29.29.49s-.11.39-.29.49l-10.28,5.93c-.09.05-.19.08-.29.08ZM291.87,16.68l29.7,17.14,9.14-5.28-29.7-17.14-9.14,5.28Z"/><polygon class="cls-4" points="167.38 123.5 136.55 105.7 127.83 116.69 136.55 129.44 148.04 136.07 167.38 135.37 167.38 123.5"/><path class="cls-2" d="M148.04,136.64c-.1,0-.2-.03-.29-.08l-11.49-6.63c-.07-.04-.14-.1-.19-.17l-8.72-12.75c-.14-.21-.13-.48.02-.68l8.72-10.99c.17-.22.49-.28.73-.14l30.84,17.8c.18.1.29.29.29.49v11.87c0,.31-.24.56-.55.57l-19.34.7s-.01,0-.02,0ZM136.95,129.01l11.24,6.49,18.63-.67v-10.99s-30.12-17.39-30.12-17.39l-8.15,10.27,8.41,12.3Z"/><polygon class="cls-4" points="103.05 166.95 85.15 156.29 85.16 159.11 64.6 147.24 64.6 159.11 85.15 170.98 103.05 166.95"/><path class="cls-2" d="M85.15,171.55c-.1,0-.2-.03-.29-.08l-20.56-11.87c-.18-.1-.29-.29-.29-.49v-11.87c0-.2.11-.39.29-.49.18-.1.39-.1.57,0l19.7,11.37v-1.83c0-.21.11-.39.28-.5.18-.1.4-.1.57,0l17.9,10.66c.2.12.31.35.27.58s-.21.42-.44.47l-17.89,4.02s-.08.01-.13.01ZM65.17,158.78l20.08,11.59,16.28-3.66-15.8-9.41v1.81c0,.2-.1.39-.28.49-.18.1-.39.1-.57,0l-19.7-11.38v10.55Z"/><polygon class="cls-4" points="23.48 170.98 33.76 165.04 53.74 164.56 64.6 170.98 74.88 176.91 54.32 188.78 23.48 170.98"/><path class="cls-2" d="M54.32,189.35c-.1,0-.2-.03-.29-.08l-30.84-17.8c-.18-.1-.29-.29-.29-.49s.11-.39.29-.49l10.28-5.93c.08-.05.18-.07.27-.08l19.98-.48c.13,0,.21.02.3.08l10.85,6.41,10.27,5.93c.18.1.29.29.29.49s-.11.39-.29.49l-20.56,11.87c-.09.05-.19.08-.29.08ZM24.62,170.98l29.69,17.14,19.42-11.21-9.42-5.44-10.72-6.33-19.67.47-9.3,5.37Z"/><polygon class="cls-4" points="74.88 200.65 64.6 194.71 64.6 206.58 74.88 200.65"/><path class="cls-2" d="M64.6,207.15c-.1,0-.2-.03-.29-.08-.18-.1-.29-.29-.29-.49v-11.87c0-.2.11-.39.29-.49.18-.1.39-.1.57,0l10.28,5.93c.18.1.29.29.29.49s-.11.39-.29.49l-10.28,5.93c-.09.05-.19.08-.29.08ZM65.17,195.7v9.89s8.57-4.95,8.57-4.95l-8.57-4.95Z"/><polygon class="cls-4" points="277.13 84.03 274.4 82.45 273.72 86.02 277.13 84.03"/><path class="cls-2" d="M273.72,86.59c-.12,0-.23-.04-.33-.1-.18-.13-.27-.35-.23-.57l.68-3.57c.03-.18.15-.34.32-.41.17-.08.36-.07.52.02l2.73,1.58c.18.1.28.29.28.49s-.11.39-.28.49l-3.4,1.99c-.09.05-.19.08-.29.08ZM274.81,83.34l-.29,1.55,1.48-.86-1.18-.68Z"/><polygon class="cls-7" points="115.98 153.17 115.99 200.65 136.54 188.78 136.54 176.91 126.26 182.84 126.26 176.91 136.54 171.11 136.54 160.04 126.26 165.97 126.26 159.11 136.54 153.17 136.54 141.3 115.98 153.17"/><path class="cls-2" d="M115.99,201.22c-.1,0-.2-.03-.29-.08-.18-.1-.29-.29-.29-.49v-47.47c0-.2.11-.39.29-.49l20.56-11.87c.18-.1.39-.1.57,0,.18.1.29.29.29.49v11.87c0,.2-.11.39-.29.49l-9.99,5.77v5.54s9.42-5.43,9.42-5.43c.18-.1.39-.1.57,0,.18.1.29.29.29.49v11.07c0,.21-.11.4-.29.5l-9.99,5.63v4.61s9.42-5.44,9.42-5.44c.18-.1.39-.1.57,0,.18.1.29.29.29.49v11.87c0,.2-.11.39-.29.49l-20.56,11.87c-.09.05-.19.08-.29.08ZM116.56,153.5v46.16s19.42-11.21,19.42-11.21v-10.55s-9.42,5.44-9.42,5.44c-.18.1-.39.1-.57,0-.18-.1-.29-.29-.29-.49v-5.93c0-.21.11-.4.29-.5l9.99-5.63v-9.75s-9.42,5.43-9.42,5.43c-.18.1-.39.1-.57,0-.18-.1-.29-.29-.29-.49v-6.86c0-.2.11-.39.29-.49l9.99-5.77v-10.55s-19.42,11.21-19.42,11.21Z"/><polygon class="cls-7" points="54.32 188.78 74.88 176.91 74.88 188.78 64.6 194.71 64.6 206.58 74.88 200.65 74.88 212.52 64.6 218.45 64.6 230.32 54.32 236.25 54.32 188.78"/><path class="cls-2" d="M54.32,236.82c-.1,0-.2-.03-.29-.08-.18-.1-.29-.29-.29-.49v-47.47c0-.2.11-.39.29-.49l20.56-11.87c.18-.1.39-.1.57,0,.18.1.29.29.29.49v11.87c0,.2-.11.39-.29.49l-9.99,5.77v10.55s9.42-5.44,9.42-5.44c.18-.1.39-.1.57,0,.18.1.29.29.29.49v11.87c0,.2-.11.39-.29.49l-9.99,5.77v11.54c0,.2-.11.39-.29.49l-10.28,5.93c-.09.05-.19.08-.29.08ZM54.89,189.11v46.16s9.14-5.28,9.14-5.28v-11.54c0-.2.11-.39.29-.49l9.99-5.77v-10.55s-9.42,5.44-9.42,5.44c-.18.1-.39.1-.57,0-.18-.1-.29-.29-.29-.49v-11.87c0-.2.11-.39.29-.49l9.99-5.77v-10.55s-19.42,11.21-19.42,11.21Z"/><polygon class="cls-7" points="177.66 117.57 177.66 165.04 187.94 159.11 187.94 147.24 198.22 141.3 198.22 153.17 208.59 147.18 208.5 99.76 198.22 105.7 198.22 129.44 187.94 135.37 187.94 111.63 177.66 117.57"/><path class="cls-2" d="M177.66,165.61c-.1,0-.2-.03-.29-.08-.18-.1-.29-.29-.29-.49v-47.47c0-.2.11-.39.29-.49l10.28-5.93c.18-.1.39-.1.57,0,.18.1.29.29.29.49v22.75s9.14-5.28,9.14-5.28v-23.41c0-.2.11-.39.29-.49l10.28-5.93c.18-.1.39-.1.57,0s.29.29.29.49l.09,47.42c0,.2-.11.39-.29.5l-10.37,5.99c-.18.1-.39.1-.57,0-.18-.1-.29-.29-.29-.49v-10.88s-9.14,5.28-9.14,5.28v11.54c0,.2-.11.39-.29.49l-10.28,5.93c-.09.05-.19.08-.29.08ZM178.23,117.9v46.16s9.14-5.28,9.14-5.28v-11.54c0-.2.11-.39.29-.49l10.28-5.93c.18-.1.39-.1.57,0,.18.1.29.29.29.49v10.88s9.23-5.33,9.23-5.33l-.09-46.11-9.14,5.28v23.41c0,.2-.11.39-.29.49l-10.28,5.93c-.18.1-.39.1-.57,0-.18-.1-.29-.29-.29-.49v-22.75s-9.14,5.28-9.14,5.28Z"/><polygon class="cls-7" points="218.78 141.3 218.78 93.83 229.05 87.89 234.68 102.79 239.33 81.96 249.61 76.03 249.61 123.44 239.33 129.44 239.33 110.33 235.74 119.64 234.19 120.53 229.05 111.63 229.05 135.37 218.78 141.3"/><path class="cls-2" d="M218.78,141.87c-.1,0-.2-.03-.29-.08-.18-.1-.29-.29-.29-.49v-47.47c0-.2.11-.39.29-.49l10.28-5.93c.14-.08.32-.1.48-.04.16.06.28.18.34.34l4.96,13.11,4.23-18.97c.03-.16.13-.29.27-.37l10.28-5.93c.18-.1.39-.1.57,0,.18.1.29.29.29.49v47.42c0,.2-.11.39-.28.49l-10.28,5.99c-.18.1-.39.1-.57,0-.18-.1-.29-.29-.29-.49v-16.04s-2.49,6.45-2.49,6.45c-.05.12-.13.22-.25.29l-1.55.89c-.27.16-.62.06-.78-.21l-4.07-7.06v21.61c0,.2-.11.39-.29.49l-10.28,5.93c-.09.05-.19.08-.29.08ZM219.35,94.16v46.16s9.14-5.28,9.14-5.28v-23.41c0-.26.17-.48.42-.55.25-.07.51.04.64.27l4.85,8.41.88-.51,3.52-9.12c.1-.26.37-.41.64-.36.27.05.47.29.47.56v18.11s9.14-5.33,9.14-5.33v-46.1s-9.21,5.32-9.21,5.32l-4.59,20.59c-.05.25-.26.43-.52.44-.26.02-.49-.13-.57-.37l-5.39-14.27-9.41,5.43Z"/><polygon class="cls-7" points="290.96 99.63 280.45 105.7 277.81 95.35 272.81 98.24 270.17 111.63 259.89 117.57 270.17 64.16 280.45 58.22 290.96 99.63"/><path class="cls-2" d="M259.89,118.14c-.12,0-.23-.04-.33-.11-.18-.13-.27-.35-.23-.57l10.28-53.41c.03-.16.13-.3.28-.39l10.28-5.93c.15-.09.34-.1.51-.03.16.07.29.21.33.39l10.51,41.41c.06.25-.05.51-.27.63l-10.51,6.07c-.16.09-.34.1-.51.03-.16-.07-.29-.21-.33-.38l-2.46-9.61-4.12,2.38-2.59,13.14c-.03.16-.13.3-.27.38l-10.28,5.93c-.09.05-.19.08-.29.08ZM270.68,64.52l-9.99,51.93,8.97-5.18,2.59-13.14c.03-.16.13-.3.27-.38l5-2.89c.15-.09.34-.1.51-.03.16.07.29.21.33.38l2.46,9.61,9.49-5.48-10.22-40.26-9.4,5.43Z"/><polygon class="cls-7" points="331.88 76.1 331.84 28.55 321.56 34.49 321.56 60.9 311.28 40.41 311.27 40.43 301 46.35 301 93.83 311.28 87.89 311.28 62.47 321.56 81.96 329.78 77.29 329.78 77.29 331.88 76.1"/><path class="cls-2" d="M301,94.4c-.1,0-.2-.03-.29-.08-.18-.1-.29-.29-.29-.49v-47.47c0-.2.11-.39.29-.49l10.23-5.9c.1-.07.23-.11.35-.11.21.01.4.12.49.3l9.2,18.34v-24.01c0-.2.11-.39.29-.49l10.28-5.93c.18-.1.39-.1.57,0,.18.1.29.29.29.49l.04,47.55c0,.21-.11.4-.29.5l-10.32,5.86c-.13.08-.29.09-.44.05-.15-.04-.27-.14-.34-.28l-9.2-17.45v23.12c0,.2-.11.39-.29.49l-10.28,5.93c-.09.05-.19.08-.29.08ZM301.57,46.68v46.16s9.14-5.28,9.14-5.28v-25.1c0-.26.18-.49.43-.55.26-.06.52.06.64.29l10,18.97,9.52-5.41-.04-46.23-9.14,5.28v26.09c0,.26-.18.49-.44.55-.26.06-.52-.06-.64-.3l-10.01-19.95-9.47,5.47Z"/><path class="cls-7" d="M109.6,204.33l-5.73-15.56s6.95-9.9,2.71-17.92c-2.4-4.56-7.9-6.89-12.66-4.94-2.19.9-5.1,2.83-8.77,5.06v47.47s10.66-6.16,10.66-6.16l-.39-17.58,5.14,14.84,9.03-5.21ZM98.95,179.25c-.2,1.17-.74,2.19-1.48,2.92-.29.28-.65.6-1.11.93l-.02.02-2.25,1.59v-8.24c.77-.44,1.31-.77,2.07-1.2.99-.56,2.05.21,2.56,1.43.36.87.36,1.78.24,2.54Z"/><path class="cls-2" d="M85.15,219.02c-.1,0-.2-.03-.29-.08-.18-.1-.29-.29-.29-.49v-47.47c0-.2.1-.38.27-.49.81-.49,1.58-.97,2.31-1.42,2.67-1.65,4.78-2.96,6.54-3.68,4.9-2.01,10.78.28,13.38,5.2,1.81,3.43,1.9,7.72.27,12.42-1.01,2.92-2.37,5.12-2.85,5.84l5.63,15.28c.1.26,0,.55-.25.69l-9.03,5.21c-.15.08-.32.1-.48.04-.16-.06-.28-.19-.34-.35l-3.95-11.41.31,13.95c0,.21-.1.4-.29.51l-10.66,6.16c-.09.05-.19.08-.29.08ZM85.73,171.3v46.17s9.52-5.49,9.52-5.49l-.38-17.24c0-.28.19-.52.47-.57.28-.05.55.11.64.37l4.91,14.18,8.02-4.63-5.56-15.11c-.06-.18-.04-.37.07-.52.07-.1,6.7-9.71,2.67-17.33-2.33-4.41-7.57-6.47-11.94-4.68-1.67.68-3.85,2.03-6.37,3.59-.65.4-1.33.83-2.04,1.26ZM94.08,185.29c-.09,0-.18-.02-.26-.06-.19-.1-.31-.29-.31-.51v-8.24c0-.2.11-.39.29-.49.3-.17.57-.33.83-.48.4-.23.78-.46,1.25-.72.5-.28,1.06-.34,1.6-.15.74.25,1.38.93,1.77,1.86.35.85.45,1.81.27,2.85h0c-.21,1.24-.79,2.39-1.65,3.23-.35.34-.73.67-1.14.97-.02.02-.04.04-.06.05l-2.25,1.59c-.1.07-.21.1-.33.1ZM94.65,176.8v6.81s1.32-.93,1.32-.93c.02-.02.04-.03.05-.04.38-.28.73-.57,1.04-.88.68-.67,1.15-1.6,1.32-2.61h0c.14-.83.07-1.58-.2-2.23-.25-.61-.67-1.07-1.09-1.22-.23-.08-.45-.06-.67.06-.46.26-.84.48-1.24.71-.18.1-.36.21-.55.32Z"/><path class="cls-7" d="M146.82,182.84v-11.87c5.98-2.27,11.49-6.38,11.67-8.63.07-.89.32-2.25-3.56-3.49-6.36-2.03-10.2-7.39-9.73-13.93.52-7.28,2.43-12.5,22.19-21.42v11.87c-5.31.78-11.6,5.06-11.62,9.38,0,1.31,1.32,3.67,4.43,4.59h0c10.8,3.63,9.56,10.63,9.3,13.97-.62,7.94-13.51,15.93-22.66,19.54Z"/><path class="cls-2" d="M146.82,183.41c-.11,0-.22-.03-.32-.1-.16-.11-.25-.28-.25-.47v-11.87c0-.24.15-.45.37-.53,6.09-2.31,11.16-6.34,11.3-8.14v-.09c.07-.74.15-1.75-3.17-2.81-6.63-2.12-10.61-7.81-10.13-14.51.53-7.32,2.38-12.8,22.52-21.9.18-.08.38-.06.54.04.16.1.26.29.26.48v11.87c0,.28-.21.52-.49.56-5.02.73-11.11,4.83-11.14,8.82,0,1.14,1.27,3.22,4.02,4.04,10.67,3.59,10.08,10.36,9.75,14-.02.19-.03.38-.05.55-.29,3.71-3.18,7.79-8.35,11.8-4.08,3.16-9.42,6.16-14.67,8.23-.07.03-.14.04-.21.04ZM147.39,171.37v10.63c8.62-3.57,20.94-11.22,21.52-18.74.01-.18.03-.37.05-.57.31-3.56.84-9.52-8.96-12.82-3.33-.99-4.82-3.6-4.82-5.13.03-4.47,6.16-8.86,11.62-9.86v-10.5c-18.86,8.64-20.54,13.56-21.05,20.58-.45,6.25,3.13,11.37,9.34,13.35,3.86,1.23,4.07,2.71,3.97,3.99v.09c-.22,2.74-6.14,6.79-11.68,8.97Z"/><polyline class="cls-7" points="33.75 141.3 13.2 129.44 44.17 111.56 64.59 123.5 33.75 141.3"/><path class="cls-2" d="M33.75,141.87c-.1,0-.2-.03-.29-.08l-20.55-11.87c-.18-.1-.29-.29-.29-.49s.11-.39.29-.49l30.97-17.88c.18-.1.4-.1.57,0l20.42,11.95c.18.1.28.29.28.49s-.11.39-.29.49l-30.84,17.8c-.09.05-.19.08-.29.08ZM14.34,129.44l19.41,11.21,29.71-17.15-19.29-11.28-29.83,17.22Z"/><polyline class="cls-7" points="74.87 117.57 54.31 105.7 64.59 99.76 85.15 111.63 74.87 117.57"/><path class="cls-2" d="M74.87,118.14c-.1,0-.2-.03-.29-.08l-20.56-11.87c-.18-.1-.29-.29-.29-.49s.11-.39.29-.49l10.28-5.93c.18-.1.39-.1.57,0l20.56,11.87c.18.1.29.29.29.49s-.11.39-.29.49l-10.28,5.93c-.09.05-.19.08-.29.08ZM55.45,105.7l19.42,11.21,9.14-5.28-19.42-11.21-9.14,5.28Z"/><polyline class="cls-7" points="95.43 105.7 74.87 93.83 85.15 87.89 105.71 99.76 95.43 105.7"/><path class="cls-2" d="M95.43,106.27c-.1,0-.2-.03-.29-.08l-20.56-11.87c-.18-.1-.29-.29-.29-.49s.11-.39.29-.49l10.28-5.93c.18-.1.39-.1.57,0l20.56,11.87c.18.1.29.29.29.49s-.11.39-.29.49l-10.28,5.93c-.09.05-.19.08-.29.08ZM76.01,93.83l19.42,11.21,9.14-5.28-19.42-11.21-9.14,5.28Z"/><polyline class="cls-7" points="115.98 93.83 95.43 81.96 115.98 70.09 136.54 81.96 115.98 93.83"/><path class="cls-2" d="M115.98,94.4c-.1,0-.2-.03-.29-.08l-20.56-11.87c-.18-.1-.29-.29-.29-.49s.11-.39.29-.49l20.56-11.87c.18-.1.39-.1.57,0l20.56,11.87c.18.1.29.29.29.49s-.11.39-.29.49l-20.56,11.87c-.09.05-.19.08-.29.08ZM96.57,81.96l19.42,11.21,19.42-11.21-19.42-11.21-19.42,11.21Z"/><polyline class="cls-7" points="95.43 129.44 85.14 123.5 85.15 135.37 95.43 129.44"/><path class="cls-2" d="M85.15,135.94c-.1,0-.2-.03-.29-.08-.18-.1-.29-.29-.29-.49v-11.87c0-.2.1-.39.28-.49.18-.1.39-.1.57,0l10.28,5.93c.18.1.29.29.29.49s-.11.39-.29.49l-10.28,5.93c-.09.05-.19.08-.29.08ZM85.71,124.49v9.89s8.57-4.95,8.57-4.95l-8.57-4.95Z"/><polygon class="cls-7" points="136.54 100.7 130.59 97.26 126.26 99.76 126.26 106.62 136.54 100.7"/><path class="cls-2" d="M126.26,107.19c-.1,0-.2-.03-.29-.08-.18-.1-.29-.29-.29-.49v-6.86c0-.2.11-.39.29-.49l4.33-2.5c.18-.1.39-.1.57,0l5.95,3.44c.18.1.29.29.29.49s-.11.39-.29.49l-10.28,5.92c-.09.05-.19.08-.28.08ZM126.83,100.09v5.54s8.57-4.94,8.57-4.94l-4.81-2.78-3.76,2.17Z"/><polyline class="cls-7" points="136.54 117.57 131.46 114.63 126.26 117.57 126.26 123.5 136.54 117.57"/><path class="cls-2" d="M126.26,124.07c-.1,0-.2-.03-.29-.08-.18-.1-.29-.29-.29-.49v-5.93c0-.21.11-.4.29-.5l5.2-2.93c.18-.1.39-.1.57,0l5.08,2.93c.18.1.29.29.29.49s-.11.39-.29.49l-10.28,5.93c-.09.05-.19.08-.29.08ZM126.83,117.9v4.61s8.57-4.95,8.57-4.95l-3.94-2.28-4.63,2.61Z"/><polygon class="cls-5" points="13.2 129.44 33.75 141.3 33.76 153.17 13.2 141.3 13.2 129.44"/><path class="cls-2" d="M33.76,153.74c-.1,0-.2-.03-.29-.08l-20.56-11.87c-.18-.1-.29-.29-.29-.49v-11.87c0-.2.11-.39.29-.49.18-.1.39-.1.57,0l20.55,11.87c.18.1.29.29.29.49v11.87c0,.2-.1.39-.28.49-.09.05-.19.08-.29.08ZM13.77,140.97l19.42,11.21v-10.55s-19.42-11.21-19.42-11.21v10.55Z"/><polyline class="cls-5" points="44.03 182.84 23.48 170.98 23.48 147.24 33.76 153.17 44.03 147.24 44.03 182.84"/><path class="cls-2" d="M44.03,183.41c-.1,0-.2-.03-.29-.08l-20.56-11.87c-.18-.1-.29-.29-.29-.49v-23.73c0-.2.11-.39.29-.49.18-.1.39-.1.57,0l9.99,5.76,9.99-5.77c.18-.1.39-.1.57,0,.18.1.29.29.29.49v35.61c0,.2-.11.39-.29.49-.09.05-.19.08-.29.08ZM24.05,170.65l19.42,11.21v-33.63s-9.42,5.44-9.42,5.44c-.18.1-.39.1-.57,0l-9.42-5.44v22.42Z"/><polygon class="cls-5" points="54.31 105.7 54.31 117.57 64.59 123.5 64.59 135.37 54.31 141.3 54.31 153.17 74.87 165.04 74.87 117.57 54.31 105.7"/><path class="cls-2" d="M74.87,165.61c-.1,0-.2-.03-.29-.08l-20.56-11.87c-.18-.1-.29-.29-.29-.49v-11.87c0-.2.11-.39.29-.49l9.99-5.77v-11.21s-10-5.77-10-5.77c-.18-.1-.29-.29-.29-.49v-11.87c0-.2.11-.39.29-.49.18-.1.39-.1.57,0l20.56,11.87c.18.1.29.29.29.49v47.47c0,.2-.11.39-.29.49-.09.05-.19.08-.29.08ZM54.88,152.84l19.42,11.21v-46.16s-19.42-11.21-19.42-11.21v10.55s9.99,5.77,9.99,5.77c.18.1.29.29.29.49v11.87c0,.2-.11.39-.29.49l-9.99,5.77v11.21Z"/><polygon class="cls-5" points="74.87 93.83 74.87 105.7 85.15 111.63 85.14 123.5 95.43 129.44 95.43 105.7 74.87 93.83"/><path class="cls-2" d="M95.43,130.01c-.1,0-.2-.03-.29-.08l-10.28-5.93c-.18-.1-.29-.29-.29-.49v-11.54s-9.99-5.76-9.99-5.76c-.18-.1-.29-.29-.29-.49v-11.87c0-.2.11-.39.29-.49.18-.1.39-.1.57,0l20.56,11.87c.18.1.29.29.29.49v23.73c0,.2-.11.39-.29.49-.09.05-.19.08-.29.08ZM85.71,123.17l9.14,5.28v-22.42s-19.42-11.21-19.42-11.21v10.56s9.99,5.76,9.99,5.76c.18.1.29.29.29.49v11.54Z"/><polyline class="cls-5" points="95.43 153.17 85.15 147.24 95.43 141.3 95.43 153.17"/><path class="cls-2" d="M95.43,153.74c-.1,0-.2-.03-.29-.08l-10.28-5.93c-.18-.1-.29-.29-.29-.49s.11-.39.29-.49l10.28-5.93c.18-.1.39-.1.57,0,.18.1.29.29.29.49v11.87c0,.2-.11.39-.29.49-.09.05-.19.08-.29.08ZM86.29,147.24l8.57,4.95v-9.89s-8.57,4.95-8.57,4.95Z"/><polygon class="cls-5" points="95.43 81.96 95.42 93.83 105.71 99.57 105.7 135.37 115.98 141.3 115.98 93.83 95.43 81.96"/><path class="cls-2" d="M115.98,141.87c-.1,0-.2-.03-.29-.08l-10.28-5.94c-.18-.1-.29-.29-.29-.49v-35.47s-9.99-5.57-9.99-5.57c-.18-.1-.29-.29-.29-.5v-11.87c0-.2.11-.39.29-.49.18-.1.39-.1.57,0l20.56,11.87c.18.1.29.29.29.49v47.47c0,.2-.11.39-.29.49-.09.05-.19.08-.29.08ZM106.27,135.04l9.14,5.28v-46.16s-19.42-11.21-19.42-11.21v10.55s9.99,5.57,9.99,5.57c.18.1.29.29.29.5v35.47Z"/><polygon class="cls-1" points="33.75 141.3 33.76 153.17 44.03 147.24 44.03 182.84 54.31 176.91 54.31 141.3 64.59 135.37 64.59 123.5 33.75 141.3"/><path class="cls-2" d="M44.03,183.41c-.1,0-.2-.03-.29-.08-.18-.1-.29-.29-.29-.49v-34.62s-9.42,5.44-9.42,5.44c-.18.1-.39.1-.57,0-.18-.1-.29-.29-.29-.49v-11.87c0-.2.1-.39.28-.49l30.84-17.8c.18-.1.39-.1.57,0,.18.1.29.29.29.49v11.87c0,.2-.11.39-.29.49l-9.99,5.77v35.28c0,.2-.11.39-.29.49l-10.28,5.93c-.09.05-.19.08-.29.08ZM44.03,146.67c.1,0,.2.03.29.08.18.1.29.29.29.49v34.62s9.14-5.28,9.14-5.28v-35.28c0-.2.11-.39.29-.49l9.99-5.77v-10.55s-29.7,17.14-29.7,17.14v10.55s9.43-5.44,9.43-5.44c.09-.05.19-.08.29-.08Z"/><polygon class="cls-1" points="74.87 117.57 74.87 165.04 85.15 159.11 85.15 147.24 95.43 141.3 95.43 153.17 105.71 147.24 105.71 99.57 95.43 105.7 95.43 129.44 85.15 135.37 85.15 111.63 74.87 117.57"/><path class="cls-2" d="M74.87,165.61c-.1,0-.2-.03-.29-.08-.18-.1-.29-.29-.29-.49v-47.47c0-.2.11-.39.29-.49l10.28-5.93c.18-.1.39-.1.57,0,.18.1.29.29.29.49v22.75s9.14-5.28,9.14-5.28v-23.4c0-.2.11-.39.28-.49l10.28-6.14c.18-.1.4-.11.57,0,.18.1.29.29.29.5v47.67c0,.2-.11.39-.29.49l-10.28,5.93c-.18.1-.39.1-.57,0-.18-.1-.29-.29-.29-.49v-10.88s-9.14,5.28-9.14,5.28v11.54c0,.2-.11.39-.29.49l-10.28,5.93c-.09.05-.19.08-.29.08ZM75.44,117.9v46.16s9.14-5.28,9.14-5.28v-11.54c0-.2.11-.39.29-.49l10.28-5.93c.18-.1.39-.1.57,0,.18.1.29.29.29.49v10.88s9.14-5.28,9.14-5.28v-46.34s-9.14,5.46-9.14,5.46v23.41c0,.2-.11.39-.29.49l-10.28,5.93c-.18.1-.39.1-.57,0-.18-.1-.29-.29-.29-.49v-22.75s-9.14,5.28-9.14,5.28Z"/><polygon class="cls-1" points="115.98 93.83 115.98 141.3 136.54 129.44 136.54 117.57 126.26 123.5 126.26 117.57 136.54 111.77 136.54 100.7 126.26 106.62 126.26 99.76 136.54 93.83 136.54 81.96 115.98 93.83"/><path class="cls-2" d="M115.98,141.87c-.1,0-.2-.03-.29-.08-.18-.1-.29-.29-.29-.49v-47.47c0-.2.11-.39.29-.49l20.56-11.87c.18-.1.39-.1.57,0,.18.1.29.29.29.49v11.87c0,.2-.11.39-.29.49l-9.99,5.77v5.54s9.42-5.43,9.42-5.43c.18-.1.39-.1.57,0,.18.1.29.29.29.49v11.07c0,.21-.11.4-.29.5l-9.99,5.63v4.61s9.42-5.44,9.42-5.44c.18-.1.39-.1.57,0,.18.1.29.29.29.49v11.87c0,.2-.11.39-.29.49l-20.56,11.87c-.09.05-.19.08-.29.08ZM116.55,94.16v46.16s19.42-11.21,19.42-11.21v-10.55s-9.42,5.44-9.42,5.44c-.18.1-.39.1-.57,0-.18-.1-.29-.29-.29-.49v-5.93c0-.21.11-.4.29-.5l9.99-5.63v-9.75s-9.42,5.43-9.42,5.43c-.18.1-.39.1-.57,0-.18-.1-.29-.29-.29-.49v-6.86c0-.2.11-.39.29-.49l9.99-5.77v-10.55s-19.42,11.21-19.42,11.21Z"/><polygon class="cls-3" points="277.13 85.92 274.4 84.34 273.72 87.91 277.13 85.92"/><polyline class="cls-6" points="274.4 84.34 277.13 85.92 275.4 79.04"/><polygon class="cls-5" points="24.99 163.13 29.56 160.52 29.56 181.39 24.99 183.97 24.99 163.13"/><path class="cls-2" d="M24.99,184.25s-.1-.01-.14-.04c-.09-.05-.14-.14-.14-.25v-20.84c0-.1.06-.2.15-.25l4.57-2.6c.09-.05.2-.05.28,0,.09.05.14.14.14.25v20.87c0,.1-.06.2-.15.25l-4.57,2.57s-.09.04-.14.04ZM25.28,163.29v20.19s4-2.25,4-2.25v-20.22s-4,2.28-4,2.28Z"/><polygon class="cls-5" points="29.5 191.78 34.02 189.18 34.02 183.97 29.5 186.57 29.5 191.78"/><path class="cls-2" d="M29.5,192.07s-.1-.01-.14-.04c-.09-.05-.14-.15-.14-.25v-5.21c0-.1.05-.2.14-.25l4.51-2.61c.09-.05.2-.05.29,0,.09.05.14.15.14.25v5.21c0,.1-.05.2-.14.25l-4.51,2.61s-.09.04-.14.04ZM29.79,186.74v4.55s3.94-2.28,3.94-2.28v-4.55s-3.94,2.28-3.94,2.28Z"/><polygon class="cls-5" points="34.36 232.01 34.36 247.64 29.84 250.24 29.84 234.61 34.36 232.01"/><path class="cls-2" d="M29.84,250.53s-.1-.01-.14-.04c-.09-.05-.14-.15-.14-.25v-15.63c0-.1.05-.2.14-.25l4.51-2.61c.09-.05.2-.05.29,0,.09.05.14.15.14.25v15.63c0,.1-.05.2-.14.25l-4.51,2.61s-.09.04-.14.04ZM30.13,234.78v14.97s3.94-2.28,3.94-2.28v-14.97s-3.94,2.28-3.94,2.28Z"/><polygon class="cls-5" points="20.82 250.24 25.33 247.64 20.82 245.03 20.82 250.24"/><path class="cls-2" d="M20.82,250.53s-.1-.01-.14-.04c-.09-.05-.14-.15-.14-.25v-5.21c0-.1.05-.2.14-.25.09-.05.2-.05.29,0l4.51,2.61c.09.05.14.15.14.25s-.05.2-.14.25l-4.51,2.61s-.09.04-.14.04ZM21.11,245.52v4.22s3.66-2.11,3.66-2.11l-3.66-2.11Z"/><polygon class="cls-5" points="29.84 255.45 34.36 252.85 34.36 258.06 29.84 260.66 29.84 255.45"/><path class="cls-2" d="M29.84,260.95s-.1-.01-.14-.04c-.09-.05-.14-.15-.14-.25v-5.21c0-.1.05-.2.14-.25l4.51-2.61c.09-.05.2-.05.29,0,.09.05.14.15.14.25v5.21c0,.1-.05.2-.14.25l-4.51,2.61s-.09.04-.14.04ZM30.13,255.62v4.55s3.94-2.28,3.94-2.28v-4.55s-3.94,2.28-3.94,2.28Z"/><polygon class="cls-5" points="34.02 197.2 34.02 223.25 29.5 225.85 29.5 199.8 34.02 197.2"/><path class="cls-2" d="M29.5,226.14s-.1-.01-.14-.04c-.09-.05-.14-.15-.14-.25v-26.05c0-.1.05-.2.14-.25l4.51-2.61c.09-.05.2-.05.29,0,.09.05.14.15.14.25v26.05c0,.1-.05.2-.14.25l-4.51,2.61s-.09.04-.14.04ZM29.79,199.97v25.39s3.94-2.28,3.94-2.28v-25.39s-3.94,2.28-3.94,2.28Z"/><polygon class="cls-5" points="20.48 205.01 24.99 202.41 20.48 199.8 20.48 205.01"/><path class="cls-2" d="M20.48,205.3s-.1-.01-.14-.04c-.09-.05-.14-.15-.14-.25v-5.21c0-.1.05-.2.14-.25.09-.05.2-.05.29,0l4.51,2.61c.09.05.14.15.14.25s-.05.2-.14.25l-4.51,2.61s-.09.04-.14.04ZM20.76,200.3v4.22s3.66-2.11,3.66-2.11l-3.66-2.11Z"/><polygon class="cls-6" points="15.97 157.92 20.48 155.31 29.56 160.52 24.99 163.13 15.97 157.92"/><path class="cls-2" d="M24.99,163.41s-.1-.01-.14-.04l-9.03-5.21c-.09-.05-.14-.15-.14-.25s.05-.2.14-.25l4.51-2.61c.09-.05.2-.05.28,0l9.08,5.21c.09.05.14.15.14.25s-.06.2-.14.25l-4.57,2.61s-.09.04-.14.04ZM16.54,157.92l8.46,4.88,3.99-2.28-8.51-4.88-3.94,2.28Z"/><polygon class="cls-6" points="15.97 178.76 20.48 176.15 20.48 181.36 15.97 178.76"/><path class="cls-2" d="M20.48,181.65s-.1-.01-.14-.04l-4.51-2.61c-.09-.05-.14-.15-.14-.25s.05-.2.14-.25l4.51-2.61c.09-.05.2-.05.29,0,.09.05.14.15.14.25v5.21c0,.1-.06.2-.15.25-.04.03-.09.04-.14.04ZM16.54,178.76l3.66,2.11v-4.22s-3.66,2.11-3.66,2.11Z"/><polygon class="cls-6" points="24.99 183.97 29.56 181.39 34.02 183.97 29.5 186.57 24.99 183.97"/><path class="cls-2" d="M29.5,186.86s-.1-.01-.14-.04l-4.51-2.6c-.09-.05-.14-.15-.14-.25,0-.1.06-.2.15-.25l4.57-2.57c.09-.05.19-.05.28,0l4.45,2.57c.09.05.14.15.14.25s-.05.2-.14.25l-4.51,2.61s-.09.04-.14.04ZM25.57,183.97l3.94,2.27,3.94-2.28-3.89-2.24-3.99,2.25Z"/><polygon class="cls-6" points="16.31 226.8 20.82 224.19 34.36 232.01 29.84 234.61 16.31 226.8"/><path class="cls-2" d="M29.84,234.9s-.1-.01-.14-.04l-13.54-7.82c-.09-.05-.14-.15-.14-.25s.05-.2.14-.25l4.51-2.61c.09-.05.2-.05.29,0l13.54,7.82c.09.05.14.15.14.25s-.05.2-.14.25l-4.51,2.61s-.09.04-.14.04ZM16.88,226.8l12.97,7.49,3.94-2.28-12.97-7.49-3.94,2.28Z"/><polygon class="cls-6" points="16.31 237.22 20.82 234.61 25.33 237.22 25.33 242.43 16.31 237.22"/><path class="cls-2" d="M25.33,242.71s-.1-.01-.14-.04l-9.02-5.21c-.09-.05-.14-.15-.14-.25s.05-.2.14-.25l4.51-2.61c.09-.05.2-.05.29,0l4.51,2.61c.09.05.14.15.14.25v5.21c0,.1-.05.2-.14.25-.04.03-.09.04-.14.04ZM16.88,237.22l8.17,4.72v-4.55s-4.23-2.44-4.23-2.44l-3.94,2.28Z"/><polygon class="cls-6" points="20.82 250.24 25.33 247.64 34.36 252.85 29.84 255.45 20.82 250.24"/><path class="cls-2" d="M29.84,255.74s-.1-.01-.14-.04l-9.02-5.21c-.09-.05-.14-.15-.14-.25s.05-.2.14-.25l4.51-2.61c.09-.05.2-.05.29,0l9.02,5.21c.09.05.14.15.14.25s-.05.2-.14.25l-4.51,2.61s-.09.04-.14.04ZM21.39,250.24l8.45,4.88,3.94-2.28-8.45-4.88-3.94,2.28Z"/><polygon class="cls-6" points="15.97 191.99 20.48 189.38 34.02 197.2 29.5 199.8 15.97 191.99"/><path class="cls-2" d="M29.5,200.09s-.1-.01-.14-.04l-13.54-7.82c-.09-.05-.14-.15-.14-.25s.05-.2.14-.25l4.51-2.61c.09-.05.2-.05.29,0l13.54,7.82c.09.05.14.15.14.25s-.05.2-.14.25l-4.51,2.61s-.09.04-.14.04ZM16.54,191.99l12.97,7.49,3.94-2.28-12.97-7.49-3.94,2.28Z"/><polygon class="cls-6" points="20.48 205.01 24.99 207.62 24.99 202.41 20.48 205.01"/><path class="cls-2" d="M24.99,207.9s-.1-.01-.14-.04l-4.51-2.61c-.09-.05-.14-.15-.14-.25s.05-.2.14-.25l4.51-2.61c.09-.05.2-.05.29,0,.09.05.14.15.14.25v5.21c0,.1-.05.2-.14.25-.04.03-.09.04-.14.04ZM21.05,205.01l3.66,2.11v-4.22s-3.66,2.11-3.66,2.11Z"/><polygon class="cls-6" points="15.97 212.83 20.51 210.22 24.99 212.83 24.99 218.04 15.97 212.83"/><path class="cls-2" d="M24.99,218.32s-.1-.01-.14-.04l-9.02-5.21c-.09-.05-.14-.15-.14-.25s.05-.2.14-.25l4.54-2.6c.09-.05.2-.05.29,0l4.48,2.61c.09.05.14.14.14.25v5.21c0,.1-.05.2-.14.25-.04.03-.09.04-.14.04ZM16.54,212.83l8.17,4.72v-4.55s-4.2-2.44-4.2-2.44l-3.97,2.27Z"/><polygon class="cls-1" points="24.99 183.97 24.99 163.13 15.97 157.92 15.97 163.13 20.48 165.73 20.48 181.36 15.97 178.76 15.97 183.97 20.48 186.57 29.5 191.78 29.5 186.57 24.99 183.97"/><path class="cls-2" d="M29.5,192.07s-.1-.01-.14-.04l-13.54-7.82c-.09-.05-.14-.15-.14-.25v-5.21c0-.1.05-.2.14-.25.09-.05.2-.05.29,0l4.08,2.36v-14.97s-4.37-2.52-4.37-2.52c-.09-.05-.14-.15-.14-.25v-5.21c0-.1.05-.2.14-.25.09-.05.2-.05.29,0l9.03,5.21c.09.05.14.15.14.25v20.68s4.37,2.52,4.37,2.52c.09.05.14.15.14.25v5.21c0,.1-.05.2-.14.25-.04.03-.09.04-.14.04ZM16.25,183.8l12.97,7.49v-4.55s-4.37-2.52-4.37-2.52c-.09-.05-.14-.15-.14-.25v-20.68s-8.45-4.88-8.45-4.88v4.55s4.37,2.52,4.37,2.52c.09.05.14.15.14.25v15.63c0,.1-.05.2-.14.25-.09.05-.2.05-.29,0l-4.08-2.36v4.55Z"/><polygon class="cls-1" points="16.31 226.8 16.31 232.01 25.33 237.22 25.33 242.43 16.31 237.22 16.31 252.85 29.84 260.66 29.84 255.45 20.82 250.24 20.82 245.03 29.84 250.24 29.84 234.61 16.31 226.8"/><path class="cls-2" d="M29.84,260.95s-.1-.01-.14-.04l-13.54-7.82c-.09-.05-.14-.15-.14-.25v-15.63c0-.1.05-.2.14-.25.09-.05.2-.05.29,0l8.6,4.96v-4.55s-8.88-5.13-8.88-5.13c-.09-.05-.14-.15-.14-.25v-5.21c0-.1.05-.2.14-.25.09-.05.2-.05.29,0l13.54,7.82c.09.05.14.15.14.25v15.63c0,.1-.05.2-.14.25-.09.05-.2.05-.29,0l-8.6-4.96v4.55s8.88,5.13,8.88,5.13c.09.05.14.15.14.25v5.21c0,.1-.05.2-.14.25-.04.03-.09.04-.14.04ZM16.59,252.68l12.97,7.49v-4.55s-8.88-5.13-8.88-5.13c-.09-.05-.14-.15-.14-.25v-5.21c0-.1.05-.2.14-.25.09-.05.2-.05.29,0l8.6,4.96v-14.97s-12.97-7.49-12.97-7.49v4.55s8.88,5.13,8.88,5.13c.09.05.14.15.14.25v5.21c0,.1-.05.2-.14.25-.09.05-.2.05-.29,0l-8.6-4.96v14.97Z"/><path class="cls-1" d="M15.97,191.99v15.63s9.02,5.21,9.02,5.21v5.21s-9.02-5.21-9.02-5.21v5.21s13.54,7.82,13.54,7.82v-26.05s-13.54-7.82-13.54-7.82ZM24.99,207.62l-4.51-2.61v-5.21s4.51,2.61,4.51,2.61v5.21Z"/><path class="cls-2" d="M29.5,226.14s-.1-.01-.14-.04l-13.54-7.82c-.09-.05-.14-.15-.14-.25v-5.21c0-.1.05-.2.14-.25.09-.05.2-.05.29,0l8.6,4.97v-4.55s-8.88-5.13-8.88-5.13c-.09-.05-.14-.15-.14-.25v-15.63c0-.1.05-.2.14-.25.09-.05.2-.05.29,0l13.54,7.82c.09.05.14.15.14.25v26.05c0,.1-.05.2-.14.25-.04.03-.09.04-.14.04ZM16.25,217.87l12.97,7.49v-25.39s-12.97-7.49-12.97-7.49v14.97s8.88,5.13,8.88,5.13c.09.05.14.15.14.25v5.21c0,.1-.05.2-.14.25-.09.05-.2.05-.29,0l-8.6-4.97v4.55ZM24.99,207.9s-.1-.01-.14-.04l-4.51-2.61c-.09-.05-.14-.15-.14-.25v-5.21c0-.1.05-.2.14-.25.09-.05.2-.05.29,0l4.51,2.61c.09.05.14.15.14.25v5.21c0,.1-.05.2-.14.25-.04.03-.09.04-.14.04ZM20.76,204.85l3.94,2.28v-4.55s-3.94-2.28-3.94-2.28v4.55Z"/><path class="cls-2" d="M273.72,88.2c-.06,0-.12-.02-.16-.05-.09-.06-.14-.18-.12-.29l1.72-8.91c.03-.13.14-.23.27-.23.14,0,.25.09.28.22l1.68,6.92c.03.12-.02.25-.13.31l-3.4,1.99s-.09.04-.14.04ZM275.48,80.34l-1.35,7.01,2.68-1.57-1.32-5.44Z"/></svg>