<?xml version="1.0" encoding="UTF-8"?><svg id="Layer_1" xmlns="http://www.w3.org/2000/svg" viewBox="0 0 180 180"><defs><style>.cls-1,.cls-2,.cls-3,.cls-4{fill:none;stroke-miterlimit:10;stroke-width:5px;}.cls-1,.cls-3{stroke:#60b3be;}.cls-2,.cls-4{stroke:#abdee5;}.cls-3,.cls-4{stroke-linecap:round;}</style></defs><path class="cls-1" d="M15.6,62.29l30.72-4.46c2.99-.44,5.58-2.32,6.92-5.03L73.66,11.42c3.37-6.83,13.12-6.83,16.49,0l20.42,41.37c1.34,2.71,3.93,4.59,6.92,5.03l45.66,6.63c7.54,1.1,10.55,10.36,5.1,15.68l-33.04,32.2c-2.17,2.11-3.16,5.16-2.64,8.14l8.43,42.11c1.29,7.51-6.6,13.24-13.34,9.69l-40.84-21.47c-2.68-1.41-5.88-1.41-8.56,0l-40.84,21.47c-6.75,3.55-14.63-2.18-13.34-9.69l7.17-42.11"/><path class="cls-1" d="M61.21,63.56l14.74-29.87c2.44-4.93,9.47-4.93,11.91,0l14.74,29.87c.97,1.96,2.84,3.32,5,3.63l32.97,4.79c5.45,.79,7.62,7.48,3.68,11.32l-23.86,23.25c-1.56,1.53-2.28,3.72-1.91,5.88l5.63,32.83c.93,5.42-4.76,9.56-9.63,7l-29.49-15.5c-1.93-1.02-4.24-1.02-6.18,0l-29.49,15.5c-4.87,2.56-10.56-1.58-9.63-7l5.63-32.83c.37-2.15-.34-4.35-1.91-5.88L11.92,73.61c-3.94-3.84-1.77-10.53,3.68-11.32"/><circle class="cls-2" cx="59.32" cy="67.62" r="4.71"/><circle class="cls-1" cx="82.17" cy="116.32" r="4.71"/><circle class="cls-2" cx="32.52" cy="115.86" r="4.71"/><path class="cls-4" d="M69.81,108.52s10.62-10.65,24.72,0"/><path class="cls-3" d="M61.33,100.7s17.91-17.96,41.68,0"/><path class="cls-4" d="M54.61,90.93s23.69-23.76,55.12,0"/></svg>