<?xml version="1.0" encoding="UTF-8"?><svg id="Layer_1" xmlns="http://www.w3.org/2000/svg" xmlns:xlink="http://www.w3.org/1999/xlink" viewBox="0 0 485.92 300"><defs><style>.cls-1{fill:#f37062;}.cls-2{fill:#010101;}.cls-3{fill:url(#linear-gradient-3);}.cls-4{fill:url(#linear-gradient-2);}.cls-5{fill:#231f20;}.cls-6{fill:url(#linear-gradient);}.cls-7{fill:#f5a2bc;}.cls-8{fill:#f19c41;}.cls-9{fill:#fff;}.cls-10{fill:#e92390;}.cls-11{fill:#ef4d76;}</style><linearGradient id="linear-gradient" x1="368.28" y1="367.04" x2="117.24" y2="-67.76" gradientUnits="userSpaceOnUse"><stop offset="0" stop-color="#f36f62"/><stop offset="1" stop-color="#e72590"/></linearGradient><linearGradient id="linear-gradient-2" x1="368.4" y1="367.26" x2="117.12" y2="-67.98" xlink:href="#linear-gradient"/><linearGradient id="linear-gradient-3" x1="58.64" y1="296.17" x2="410.03" y2="199.13" gradientUnits="userSpaceOnUse"><stop offset="0" stop-color="#f36f62"/><stop offset="1" stop-color="#f19c40"/></linearGradient></defs><rect class="cls-6" x=".13" y="-.15" width="485.25" height="299.58"/><path class="cls-4" d="M485.52,299.64H0V-.36h485.52v300ZM.27,299.22h484.98V.05H.27v299.17Z"/><path class="cls-3" d="M0,232.56s305.29,10.84,485.28-175.27l.64,241.93H.27l-.27-66.66Z"/><polygon class="cls-10" points="391.71 241.18 391.3 253.1 246.18 337.51 246.39 326.05 391.71 241.18"/><path class="cls-5" d="M246.12,337.61s-.06-.06-.06-.11l.2-11.46s.02-.08.06-.1l145.32-84.87s.09-.02.12,0c.04.02.06.06.06.11l-.4,11.92s-.02.08-.06.1l-145.12,84.41s-.04.02-.06.02c-.02,0-.04,0-.06-.02ZM391.58,241.39l-145.07,84.73-.2,11.18,144.88-84.27.39-11.64Z"/><polygon class="cls-10" points="338.51 216.33 338.6 221.11 199.72 304.15 199.13 313.77 193.64 311.49 193.63 300.89 338.51 216.33"/><path class="cls-5" d="M199.08,313.88l-5.49-2.27s-.07-.06-.07-.11v-10.6s.01-.08.05-.1l144.88-84.56s.08-.02.12,0c.04.02.06.06.06.1l.09,4.77s-.02.08-.06.11l-138.83,83.01-.59,9.55s-.02.07-.06.1c-.02.01-.04.02-.07.02-.01,0-.03,0-.04,0ZM338.39,216.54l-144.64,84.42v10.45s5.27,2.18,5.27,2.18l.58-9.45s.02-.08.06-.1l138.82-83.01-.09-4.5Z"/><polygon class="cls-7" points="193.63 300.89 193.64 311.49 146.1 288.76 146.58 277.58 193.63 300.89"/><path class="cls-5" d="M193.58,311.6l-47.53-22.73s-.07-.07-.07-.11l.47-11.18s.02-.08.06-.1c.04-.02.08-.02.12,0l47.05,23.31s.07.06.07.11v10.6s-.01.08-.05.1c-.02.01-.04.02-.07.02-.02,0-.03,0-.05-.01ZM146.69,277.77l-.46,10.92,47.29,22.61v-10.33s-46.83-23.19-46.83-23.19Z"/><path class="cls-9" d="M285.55,229.07s-6.91,4.01-3.88,9.51c0,0,1.54-7.63,3.88-9.51Z"/><polygon class="cls-1" points="391.71 241.18 343.62 218.18 199.72 304.15 246.39 326.05 391.71 241.18"/><path class="cls-5" d="M246.33,326.16l-46.66-21.9s-.07-.06-.07-.1.02-.09.06-.11l143.9-85.97s.08-.02.11,0l48.08,23s.07.06.07.1c0,.04-.02.09-.06.11l-145.32,84.87s-.04.02-.06.02c-.02,0-.03,0-.05-.01ZM343.63,218.32l-143.65,85.82,46.4,21.78,145.07-84.72-47.82-22.87Z"/><polygon class="cls-1" points="338.51 216.33 291.2 192.2 146.58 277.58 193.63 300.89 338.51 216.33"/><path class="cls-5" d="M193.57,301l-47.05-23.31s-.07-.06-.07-.1c0-.04.02-.09.06-.11l144.62-85.38s.08-.02.12,0l47.31,24.13s.06.06.07.1c0,.04-.02.09-.06.11l-144.88,84.56s-.04.02-.06.02c-.02,0-.04,0-.05-.01ZM291.2,192.34l-144.37,85.24,46.79,23.18,144.63-84.41-47.05-24Z"/><polygon class="cls-8" points="366.62 238.69 342.5 225.21 217.24 298.03 240.74 311.55 366.62 238.69"/><path class="cls-5" d="M240.68,311.66l-23.5-13.52s-.06-.06-.06-.1c0-.04.02-.08.06-.1l125.26-72.83s.08-.02.12,0l24.12,13.48s.06.06.06.1-.02.08-.06.11l-125.87,72.86s-.04.02-.06.02c-.02,0-.04,0-.06-.02ZM342.5,225.35l-125.02,72.69,23.26,13.38,125.63-72.72-23.87-13.34Z"/><polygon class="cls-8" points="321.83 218.03 296.2 203.91 171.47 278.18 195.98 291.27 321.83 218.03"/><path class="cls-5" d="M195.92,291.38l-24.51-13.09s-.06-.06-.06-.1c0-.04.02-.08.06-.11l124.73-74.27s.08-.02.12,0l25.63,14.12s.06.06.06.1c0,.04-.02.08-.06.11l-125.85,73.24s-.04.02-.06.02c-.02,0-.04,0-.05-.01ZM296.2,204.05l-124.49,74.13,24.26,12.96,125.61-73.1-25.38-13.98Z"/><path class="cls-7" d="M290.55,243.22s4.85-8.77-2.31-13.72c-7.16-4.95-8.29,2.94-8.29,2.94l-.79,9.04s-2.1,5.09,2.56,6.17c4.66,1.08,7.3,4,11.05.2,0,0,.11-1.21-2.23-4.63Z"/><path class="cls-5" d="M285.06,248.86c-1.04-.4-2.11-.81-3.36-1.09-1.3-.3-2.21-.94-2.7-1.89-.94-1.83-.05-4.18.05-4.42l.78-9.03c.02-.14.51-3.38,2.82-4.39,1.5-.66,3.41-.2,5.66,1.37,6.84,4.73,2.81,12.98,2.38,13.81,2.29,3.37,2.21,4.6,2.21,4.65,0,.03-.01.05-.03.07-1.45,1.47-2.74,1.95-4.04,1.93-1.21-.02-2.42-.49-3.77-1ZM290.45,243.28s-.03-.09,0-.13c.05-.09,4.72-8.73-2.27-13.56-2.18-1.51-4.01-1.96-5.43-1.34-2.18.95-2.67,4.17-2.67,4.19l-.79,9.04s0,.02,0,.04c-.01.02-.99,2.45-.06,4.24.46.89,1.31,1.48,2.54,1.77,1.26.29,2.39.72,3.39,1.1,2.81,1.07,4.84,1.85,7.52-.84-.01-.24-.17-1.53-2.21-4.51Z"/><path class="cls-9" d="M285.13,229.72s-6.56,4.56-3.09,9.8c0,0,.91-7.73,3.09-9.8Z"/><path class="cls-5" d="M281.94,239.59c-3.5-5.27,3.05-9.92,3.12-9.96.05-.04.12-.03.16.02.04.05.04.12-.01.16-2.12,2.01-3.04,9.65-3.05,9.72,0,.05-.04.09-.09.1-.01,0-.02,0-.03,0-.04,0-.08-.02-.1-.05ZM281.97,239.17c.18-1.34.92-6.25,2.41-8.68-1.58,1.41-4.69,4.86-2.41,8.68Z"/><path class="cls-10" d="M313.57,207.98s2.06-1.46-.33-5.6c0,0,3.39-9.36-.25-15.97-3.64-6.62-7.98-2.19-7.98-2.19,0,0-3,2.81-2.23,13.39,0,0-1.2,3.51.2,5.74s8.34,5.68,10.59,4.63Z"/><path class="cls-5" d="M302.88,203.41c-1.37-2.18-.33-5.48-.22-5.82-.76-10.5,2.15-13.35,2.27-13.46.07-.07,1.74-1.75,3.92-1.45,1.6.22,3.03,1.45,4.25,3.67,3.49,6.33.55,15.24.28,16.02,2.37,4.15.35,5.65.27,5.71,0,0-.01,0-.02.01-.33.15-.74.22-1.22.21-2.99-.05-8.35-3.01-9.52-4.88ZM314.19,206.68c.19-.78.15-2.15-1.05-4.24-.02-.03-.02-.07,0-.1.03-.09,3.33-9.38-.24-15.87-1.18-2.14-2.55-3.33-4.07-3.54-2.06-.28-3.7,1.36-3.72,1.38-.03.03-2.95,2.92-2.2,13.3,0,.02,0,.03,0,.05-.01.03-1.16,3.48.19,5.64,1.42,2.26,8.29,5.56,10.43,4.59.06-.05.49-.41.68-1.19Z"/><path class="cls-9" d="M308.69,184.39s-6.91,4.01-3.87,9.51c0,0,1.54-7.63,3.87-9.51Z"/><path class="cls-5" d="M304.71,193.96c-3.06-5.54,3.85-9.64,3.92-9.68.05-.03.12-.02.16.04.04.05.03.12-.02.16-2.27,1.83-3.81,9.37-3.83,9.44-.01.05-.05.09-.1.1,0,0-.01,0-.02,0-.04,0-.08-.02-.1-.06ZM304.76,193.55c.29-1.32,1.42-6.16,3.11-8.46-1.69,1.27-5.07,4.46-3.11,8.46Z"/><path class="cls-2" d="M235.32,226l2.27-1.44,46-26.83,5.13-3.05,1.13-.84,1.62-.82.86.58,6.99,3.3,2.92,1.55h.74s.09-.56.09-.56l-.16-.19-1-.55-7.66-3.76-1.97-1.05-.31-.27-.24.14-.25-.15-6.99,3.87-5.28,3.19-10.35,5.96-.89.61-34.65,20.26h0M364.55,228.34l.54-.07-1.85-1.05-16.1-7.82-2.92-1.55h-.26s-.33.32-.33.32l.45.48,1.44.76,15.63,7.57,2.38,1.26h0M338.68,216l.31-.32-.38-.44-2.45-1.3-22.62-11.12-.49-.04-.33.1-.04.26.47.47,2.4,1.26,22.8,11.08h0"/><path class="cls-2" d="M246.36,338.11l.73-.02,21.07-12.47,4.73-2.68,20.91-12.33,4.73-2.68,26.53-15.62,35.99-20.97,5.28-3.19,10.34-5.96,14.17-8.45.9-.65v-.49s-.08-.08-.08-.08l-1.38.59-7.08,3.98-10.9,6.47-10.34,5.96-5.28,3.19-10.34,5.96-5.28,3.19-10.34,5.96-5.28,3.19-4.73,2.68-5.28,3.19-4.73,2.68-.89.61-4.73,2.68-5.28,3.19-4.73,2.68-.89.61-4.73,2.68-5.28,3.19-4.73,2.68-.89.61-32,18.68-.3-9.49-.4-.37-.13.08-.69,9.23-.12-.16-1.27-.66-4.48-2.21-40.85-19.9-16.89-8.43-27.43-13.38-4.19-2.16-3.16-1.43.15-9.3.14-.56,6.64,3.14,36.29,17.72,2.63,1.26,1.15.39.11-.33-.47-.47-2.88-1.51-37.36-18.3-5.02-2.51-.46-.41,27.52-16.21,56.01-32.69,3.17-1.88.58-.51-1.72-.03-36.78,21.47-5.28,3.19-4.73,2.68-.89.61-4.73,2.68-5.28,3.19-4.73,2.68-.89.61-4.73,2.68-.89.61-4.73,2.68-.89.61-11.57,6.66-1.05.77-.13.36-.21,11.6.03.25.31.32h.25s.48-.38.48-.38l.78.52,6.58,3.11,36.77,17.97,6.59,3.1,3.23,1.66,44.44,21.66.4.21.52.5h0M246.1,326.72l1.86-1.07,22.87-13.51,4.73-2.68.89-.61,35.99-20.97,15.3-9.05,51.61-30.11,5.13-3.05.16-.18v-.5s-.32-.11-.32-.11l-.5.02-3.57,2.01-5.28,3.19-10.34,5.96-15.3,9.05-10.34,5.96-5.28,3.19-10.34,5.96-5.28,3.19-4.73,2.68-.89.61-4.73,2.68-5.28,3.19-4.73,2.68-.89.61-4.73,2.68-5.28,3.19-41.18,24.04-.25-.15-.25.15-.64-.38-.39-.39-1.9-1.01-40.01-19.56-1.78-.85-.32-.04-.11.33.47.47,2.88,1.51,41.2,20.07.71.35.26.38h0M387.73,243.7l2.6-1.54.67-.9v-.14s-1.65-1.1-1.65-1.1l-22.93-11.25-.89-.39h-1.51s7.53,3.78,7.53,3.78l18.33,8.89.22.18-.5.43-2.36,1.34-.09.12v.5h0"/><path class="cls-9" d="M240.14,226.12h2.43s17.16-10.11,17.16-10.11l10.35-5.96,14.32-8.58,3.51-1.97.9-.65v-.74s-.3-.32-.3-.32h-.5s-7.63,4.48-7.63,4.48l-1.55.8-5.28,3.19-2.77,1.5-7.24,4.36-23.53,13.7-.15.19h0"/><path class="cls-5" d="M240.14,226.24h2.43s.04,0,.06,0l17.16-10.12,10.34-5.96,14.32-8.59,3.5-1.97.91-.66s.05-.06.05-.1v-.74s0-.06-.02-.09l-.31-.32s-.05-.04-.08-.04h-.5s0-.01,0-.01c-.02,0-.04,0-.06.02l-7.63,4.49-1.55.8-5.29,3.19-2.77,1.5-7.24,4.36-23.53,13.7s-.02.02-.03.03l-.15.19.19.15.14-.17,23.51-13.69,7.24-4.36,2.77-1.5,5.29-3.19,1.55-.79,7.61-4.48h.42s.25.26.25.26v.63s-.86.62-.86.62l-3.5,1.96-14.32,8.59-10.34,5.96-17.13,10.11h-2.4s0,.23,0,.23Z"/><path class="cls-9" d="M157.82,275.64l.5-.02,3.08-1.77.89-.61,39.89-23.32,4.06-2.48,3.51-1.97,4.06-2.48,28.55-16.75-2.96-.09-9.11,5.43-4.73,2.68-9.68,5.77-10.34,5.96-.89.61-9.12,5.26-.89.61-36.23,21.21-.73.47-.41.42v.74s.2.24.2.24h0"/><path class="cls-5" d="M157.83,275.76l.5-.02s.04,0,.06-.02l3.08-1.77.9-.61,39.89-23.31,4.07-2.49,3.5-1.97,4.07-2.49,28.55-16.74s.07-.08.06-.13c-.01-.05-.06-.09-.11-.09l-2.96-.09s-.05,0-.07.02l-9.11,5.43-4.73,2.67-9.68,5.77-10.34,5.96-.9.61-9.12,5.25-.9.61-36.22,21.2-.74.47s-.01.01-.02.02l-.41.42s-.03.05-.03.08v.74s0,.06.02.08l.21.24.18-.16-.18-.21v-.64s.38-.37.38-.37l.72-.46,36.23-21.2.9-.61,9.12-5.25.9-.61,10.34-5.95,9.68-5.77,4.73-2.67,9.08-5.41,2.5.08-28.19,16.53-4.06,2.49-3.5,1.97-4.07,2.49-39.89,23.31-.9.61-3.05,1.75-.47.02v.24Z"/><path class="cls-2" d="M391.91,252.98l.12-.36.18-9.9-.03-.25-.56-.56-.25.19-.12.36-.18,10.15.03.25.21.24.37.08h0"/><path class="cls-9" d="M242.64,316.54l.5-.02,4.3-2.48.89-.61,41.6-24.25.89-.61,10.35-5.96,5.28-3.19,15.96-9.24,5.28-3.19,25.97-15.11,2.84-1.78,14.25-8.31.73-.47.41-.42.02-.64-.5-.38-.33-.05-4.79,2.71-.89.61-14.01,8.07-5.28,3.19-4.73,2.68-16.52,9.75-14.74,8.54-.89.61-62.85,36.68-3.98,2.41-.58.61.44.73h0"/><path class="cls-5" d="M242.65,316.66l.5-.02s.04,0,.06-.02l4.3-2.48.9-.61,41.6-24.25.9-.61,10.34-5.95,5.29-3.19,15.96-9.24,5.29-3.19,25.97-15.1,2.85-1.78,14.25-8.3.74-.48s.01-.01.02-.02l.41-.42s.03-.05.03-.08l.02-.64s-.02-.08-.05-.1l-.5-.38s-.04-.02-.06-.02l-.33-.05s-.05,0-.08.01l-4.79,2.71-.9.61-14,8.06-5.29,3.19-4.73,2.67-16.52,9.76-14.74,8.54-.9.61-62.84,36.68-3.98,2.41s-.02.01-.02.02l-.58.61s-.04.1-.02.15l.44.73.21-.12-.39-.65.5-.53,3.97-2.4,62.85-36.68.9-.61,14.73-8.53,16.52-9.75,4.73-2.67,5.29-3.19,14.01-8.07.9-.61,4.75-2.68.26.04.42.33-.02.53-.37.37-.72.47-14.25,8.3-2.85,1.78-25.97,15.1-5.29,3.19-15.96,9.24-5.29,3.19-10.34,5.96-.9.61-41.6,24.25-.9.61-4.27,2.46-.47.02v.24Z"/><path class="cls-2" d="M246.42,226.23l2.66.02,2.27-1.44,29.39-17.22,5.53-3.42,4.24-2.44,1.46-.94.38-.74-.36-.51h-.65s-12.85,7.4-12.85,7.4l-4.06,2.48-28.17,16.52-.15.19h0M259.24,226.43l6.66-4.03,1.07-.56.33-.04,3.47,1.84,1.65.75.66.45-.62.47-1.8,1.04-.09.27,1.71.04,1.86-1.06.33-.04,2.13,1.18,1.47.02-.37-.32-2.36-1.35.1-.28,7.89-4.76,1.07-.56.32-.06.25.03,6.02,3.39-1.59,1.08-4.49,2.68-.09.27,1.71.04,5.61-3.45,5.85,3.08.84.59,1.47.03-.37-.32-6.87-3.81.38-.38,4.97-2.91,1.62-1.08,1.8-1.03.33-.04,3.22,1.84,4.77,2.5,1.49.99-.49.43-6.44,3.61-.09.27,1.94.04,1.05-.74,12.3-7.13.94-.66.45-.7-.08-.08-.24.14-.25-.15-1.08.54-7.2,4.06-3.48-2.07-5.78-3.05-.36-.39,3.64-2.21,3.87-2.54.36-.11.25.03,3.7,2.09,4.77,2.5,1.31.84.37-.08.22-.39-3.08-1.84-16.26-8.74-2.35-1.44-2.44-1.31-.41-.29.06-.26-.25.14-.49-.17-19.69,11.63-19.18,11.49h0M317.93,227.5h1.22s1.13-.61,1.13-.61l13.59-8.11,3.99-2.21.57-.55.09-.36-.31-.32h-.5s-6.18,3.78-6.18,3.78l-11.81,6.9-1.95,1.18-.15.19h0M329.3,227.68l1.13-.6,8.46-5.06,4.73-2.68.57-.55.09-.36-.31-.32h-.5s-2.27,1.43-2.27,1.43l-13.03,7.6-.62.47h0M338.23,227.83l2.6-1.54.4-.37.9-.39.25.03,4.76,2.43,1.27-.02-2.76-1.74-3.5-1.89h-.26s-.58.66-.58.66l-3,1.59-1.84,1.17h0M268.21,221.13l7.94-4.83,1.13-.6h.51s4.89,2.6,4.89,2.6l.65.44-1.35.95-2.29,1.27-5.45,3.32h-.75M291.67,222.41l-1.31-.84-3.82-2-.92-.59.17-.34.73-.47,4.24-2.44,2.84-1.78.9-.39.25.03,3.45,1.84,2.57,1.55-8.73,5.36h0M278.83,215.28l-.16-.35,1.39-.98,4.24-2.44,3.01-1.92.56.44,4.58,2.39.68.5-.88.66-2.29,1.27-5.45,3.32h-.51M297.75,214.46l-2.33-1.44,1.35-.95,4.24-2.44,1.47-.94.56-.5h.5s3.93,2.09,3.93,2.09l2.13,1.33-1.15.82-6.5,3.89-.76-.02h0M288.89,209.46l-.46-.4.66-.5,6.2-3.62,1.01-.71.37.4,4.88,2.46.59.49-.86.61-6.99,4.12h-.51"/><path class="cls-2" d="M248.84,321.45l.91-.37,2.43-1.4.89-.61,45.51-26.36,12.12-7.17,66.02-38.32,3.17-1.88.16-.18v-.74s-.3-.32-.3-.32h-.74s-.32.26-.32.26l-11.32,6.42-10.17,6-26.95,15.57-.89.61-26.95,15.57-.89.61-6.44,3.61-.89.61-36.23,20.96-.89.61-8.39,4.79-.64.66.21.64h0M199.13,313.77l.44-1.01.14-7.73-.03-.25-.31-.32-.37.08-.25.48-.11,8.23h0M194.42,301.11l.16-.13h.25s.23.16.23.16l.56-.49,1.57-.56.96-.47.21-.2.5-1.06,8.1-4.63,30.68-18.2,3.51-1.97,7.97-4.83,7.17-4.08,7.24-4.36,19.38-11.36.9-.65v-.5s-.32-.11-.32-.11l-.5.02-.64.37-13.59,8.11-13.03,7.6-6.75,4.13-7.9,4.55-19.94,11.87-16.21,9.48-1.62,1.08-2.29,1.27-3.42,2.12-.66.51-.07.4-.15.17-1.87.84h-.5s-.35-.34-.35-.34l-.36-.09-.24.2-.12.36-.19,10.64.02.15.54.39h0M241.35,311.57l-.12-.19.62-.47,8.55-4.92,1.55-.56.41-.52.48-.32,1.55-.8,7.48-4.36,1.31-.56,1.13-.84,2.44-1.41,1.55-.8,5.04-2.95,1.25-.61,1.19-.8,4.88-2.81,1.55-.8,40.19-23.11,1.55-.8,26.28-15.14,1.55-.8,10.5-6.1,3.42-2.11.41-.67-.07-.09h-.5s-6.94,3.82-6.94,3.82l-.53.28-.33.04-1.79-1.09-5.71-3.08.46-.39,2.64-1.6,3.51-1.97,1.29-.97h.26s7.63,4.18,7.63,4.18h.26s.31-.32.31-.32l-.14-.19-1.25-.8-5.25-2.75-7.2-4-3.87-2.05-.32-.08-1.02.05,1.41.85.6.5-.13.13-7.97,4.59h-.27s-2.49-1.34-2.49-1.34l-4.28-2.58.17-.34,3.09-1.81.02-.2-1.21-.06-.26.03-1.13.6-11.78,6.83-1.22-.19-.11.32.18.49-.15.19-19.95,11.66-.91.4-.39.37-3.51,1.97-5.28,3.19-2.05,1.04-.39.37-3.17,1.88-15.96,9.24-6.5,3.89-3,1.7-1.49.51-.4.62-.73.47-41.67,24.32-.58.59v.25s.14.18.14.18l5.38,2.63,9.99,5.43.53.3.37.37,1.08.39,5.92,3.18,1.25.79.33.04h0M240.07,310.67l-2.27-1.34-3.34-1.76-.46-.4.66-.5,7.9-4.55,1.05-.74h.26s5.36,2.84,5.36,2.84l.69.49v.25s-.17.18-.17.18l-8.88,5.02-.46.43h0M232.67,306.65l-.85-.57-4.78-2.5-.92-.59.17-.34.73-.47,8.7-5.06h.51s6.38,3.59,6.38,3.59l-1.72,1.13-8.12,4.74h0M200.61,304.51l.26.06-.12-.19.79-.65v-.2s-.24,0-.24,0l-.97.67-.09.12v.5h0M200.1,303.42l.25-.14.25.15.6-.31,7.86-4.5,41.92-24.77,3.51-1.97,10.41-6.24,3.51-1.97,10.41-6.24,3.51-1.97,7.24-4.36,3.51-1.97,10.41-6.24,3.51-1.97,10.41-6.24,3.51-1.97,8.19-4.92-1.76-.07-2.35,1.3-59.74,35.33-28.17,16.52-10.41,6.24-3.51,1.97-6.35,3.75-1.62,1.08-6.68,3.85-7.82,4.69-.65.91h0M245.21,301.24l-.46-.4.66-.5,9.12-5.26.32-.27h.5s6.05,3.43,6.05,3.43l-.17.34-4.88,2.81-4.68,2.63-.53.28-.33.03h0M221.49,300.53l-3.59-2.19.49-.43,8.59-4.97.61-.31,6.34,3.33.68.5-.15.19-4.73,2.68-4.71,2.85h-.5s-.49-.26-.49-.26h0M195.14,300.84h-.14M236.86,296.67l1.4-1.05,8.7-5.06h.51s6.38,3.59,6.38,3.59l-1.72,1.13-8.72,5.05h0M261.22,297.18l-4.77-2.51-.46-.4,10.1-6.02h.26s6.5,3.64,6.5,3.64l-9.16,5.29-1.13.6h-.51M235.26,295.84l-6.35-3.61-.27-.22.98-.66,9.2-5.29,5.62,2.84,1.25.8.14.19-.15.19-9.86,5.72h0M254.39,293.52l-3.93-2.09-2.33-1.44,1.35-.95,8.06-4.69.58-.33.33-.04,3.45,1.84,3.05,1.8-4.04,2.48-4.73,2.68-1.05.74-.5.02h0M195.98,291.27l.64-.37,2.11-1.31,14.49-8.3.89-.61,14.49-8.3.89-.61,14.49-8.3.89-.61,15.72-9,.89-.61,14.49-8.3,3.91-2.35.32-.31.09-.36-.31-.32h-.5s-8.85,5.18-8.85,5.18l-.9.39-.49-.04-8.41-4.64,10.05-6.14h.51s8.11,4.44,8.11,4.44h.74s0-.19,0-.19l-.31-.32-1.19-.75-5.3-2.8-1.25-.8-.14-.19.88-.66,3.02-1.74,3.58-2.25,1.88-1.11,1.09-.46.21-.31,2.53-1.51.89-.66-.31-.12h-1.46s-1.53.98-1.53.98l-1.07.56-.33.04-3.09-1.68-1.23-.02.37.32,1.96,1.06,1.32.89-9.17,5.63-.9.39-.25-.03-2.97-1.59-3.29-1.94.62-.47,5.46-3.15,1.8-1.21-1.96-.04-5.77,3.42-1.05.74-.49.02-.26-.03-1.05-.59-4.24-2.55,1.44-.94.09-.27-1.71-.04-32.3,19.28-2.29,1.27-4.8,2.95-2.37,1.34-1.14.4-.41.52-1.21.79-2.29,1.27-9.93,6-2.29,1.27-26.8,15.99-.23.39v.25s.13.17.13.17l1.72.57,7.19,3.76,7.2,4,4.77,2.5,3.37,2h0M195.49,290.29l-3.46-1.83-3.53-2.05.38-.38,8.55-5.16.58-.33.33-.04,3.45,1.84,3.57,2.08-1.15.82-8.6,4.98h0M272.69,290.86l-4.77-2.5-.69-.5v-.15s.66-.51.66-.51l3.51-1.97.89-.61,4.32-2.47,3.94,2.08,2.61,1.58-.66.58-8.6,4.97-.37.07h0M243.47,287.63l-.87-.64-2.73-1.55,9.68-5.71h.75s5.61,2.86,5.61,2.86l1.13.8-10.05,5.9h-.5s-.49-.26-.49-.26h0M187.6,286.04l-2.75-1.58-4.79-2.52v-.44s9.67-5.73,9.67-5.73l1.32.83,4.77,2.5,1.13.8-8.52,5.16-.57.55-.17.36h0M261.46,284.86l-2.13-1.33,1.4-1.05,7.97-4.59h.26s.84.59.84.59l4.77,2.5.69.5v.15s-1.15.74-1.15.74l-8.24,4.81h0M201.29,281.32l-1.62-.95-.45-.48.9-.66,8.55-5.16.66-.37,1.32.83,5.25,2.75.69.5v.15s-.66.51-.66.51l-5.95,3.38-3.38,2.07-.37.07h0M284.02,285.35l-3.45-1.84-3.05-1.8.38-.38,3.51-1.97.89-.61,4.32-2.47,6.75,3.77-.62.47-8.47,4.82h0M255.47,281.62l-1.88-1.19-2.48-1.36-.12-.14,1.1-.71,8.23-4.81,6.34,3.33.76.49-.49.43-7.9,4.55-1.07.73h0M173.32,278.17l-.15-.44,4.07-2.53,4.24-2.44,1.06-.73,2.76,1.58,1.65.75,1.42.83-1.15.82-6.2,3.62-2.27,1.44h-.25s-.49-.25-.49-.25h0M274.11,280.01l-4.48-2.55.38-.38,1.95-1.17,6.76-3.88,6.51,3.63-1.11.85-7.91,4.54h0M197.38,279.22l-6.85-3.83.49-.43,9.04-5.39.58-.33.33-.04,7.02,3.92-2.62,1.76-4.97,2.91-1.62,1.08-.65.37-.5.02h0M161.66,277.4l.5-.02,1.86-1.07,34.35-20.31,33.79-19.8,7.24-4.36,3.51-1.97,5.13-3.05.62-.47-2.71-.12-.26.03-.64.37-29.95,17.73-3.51,1.97-45.09,26.64-3.51,1.97-1.47.94-.41.42v.74s.2.24.2.24h0M287.42,275.9l.49-.43,7.48-4.35h.51s1.79,1.1,1.79,1.1l4.75,2.58-.67.58-7.23,4.12-.76-.02h0M210.14,273.32l1.22-.9,7.66-4.56,1.05-.74h.26s1.79,1.09,1.79,1.09l4.77,2.5.53.3.38.44-.15.19-9.28,5.39-.58.33-.33.03h0M261.85,273.22l-.36-.39.62-.47,6.84-3.99,1.07-.56.32-.06.25.03,4.71,2.41,2.07,1.26-1.15.82-7.91,4.54h0M188.7,274.43l-4.58-2.56-.46-.4.66-.5,2.29-1.27,6.02-3.66,1.14-.6,5.79,3.14-.86.61-2.29,1.27-6.02,3.66-1.07.56-.33.03h0M280.77,272.4l-1.18-.83,1.15-.81,3.51-1.97.89-.61,2.35-1.3h.51s5.6,3.09,5.6,3.09l.68.5-.15.19-3.51,1.97-.89.61-3.59,2h0M203.01,269.57l-1.18-.83,1.4-1.05,7.42-4.32,1.05-.74h.26s2.97,1.59,2.97,1.59l4,2.3-4.28,2.72-3.02,1.74-1.62,1.08-1.15.59h0M300.8,272.99l-3.82-2.01-.45-.48.17-.19,7.9-4.55.89-.61,1.13-.6h.51s1.31.85,1.31.85l4.77,2.5.65.44-.62.47-9.68,5.52h-.51M221,266.69l4.28-2.72,3.02-1.74,1.78-1.21h.5s7.81,4.34,7.81,4.34l-8.31,4.88-1.13.6h-.51M275.21,269.35l-3.3-1.95-.46-.4.66-.5,4.73-2.68,2.27-1.44h.26s3.47,1.84,3.47,1.84l1.24.55,2.14,1.25.14.19-.15.19-1.95,1.17-6.03,3.4h0M290.04,267.25l-1.25-.8-.14-.19.15-.19,1.95-1.17,6.84-3.99,1.13-.6h.51s5.6,3.09,5.6,3.09l.68.5-.15.19-9.92,5.76h-.51M196.25,265.77l-1.44-.94,1.72-1.13,7.57-4.45.66-.37,5.79,3.14-1.59,1.08-7.42,4.32-1.06.73-.5-.24h0M214.48,263.25l-1.21-.76-.45-.4.66-.5,7.42-4.32,1.05-.74h.26s5.36,2.84,5.36,2.84l1.49.99-.49.43-8.73,5.29h0M312.03,266.43l-3.82-2.01-.45-.48.9-.66,7.9-4.55,1.05-.74h.74s6.86,3.84,6.86,3.84l-10.17,5.95-.76-.02h0M238.37,264.4l-4.77-2.51-2.33-1.44.62-.47,3.02-1.74,4.96-3.09h.5s5.84,3.1,5.84,3.1l2.09,1.3-.38.38-7.17,4.08-1.53.98-.34-.11h0M287.03,265.59l-3.02-1.64-3.59-2.19,2.94-1.83,4.73-2.68,2.27-1.44h.26s4.23,2.14,4.23,2.14l2.62,1.5.14.19-.15.19-1.95,1.17-7.91,4.55h0M300.8,260.43l-.53-.3-.38-.44.15-.19,1.95-1.17,6.84-3.99,1.13-.6h.51s4.41,2.35,4.41,2.35l1.73,1.05.14.19-.15.19-9.92,5.76h-.51M206.05,258.45l-.14-.19.88-.66,4.24-2.44,2.84-1.78,1.07-.56.33-.04,1.31.84,2.62,1.25,1.73,1-1.72,1.13-7.74,4.58-.5-.24h0M229.62,259.73l-6.08-3.34-.46-.4.66-.5,8.21-4.82h.27s6.53,3.68,6.53,3.68l-.17.34-6.44,3.86-1.79,1.21h0M324.99,260.76l-4.58-2.39-1.49-1,9.94-5.95h.5s7.02,3.92,7.02,3.92l-.67.58-9.19,5.29-.74-.02-.23-.16-.19.12h0M241.69,255.03l-.68-.5.15-.19,3.02-1.74,3.58-2.25,1.13-.6h.5s.84.6.84.6l5.78,3.05,1.19.75.14.19-.15.19-1.95,1.17-6.03,3.4h0M295.24,257.38l-3.59-2.19,9.94-5.95h.5s1.79,1.09,1.79,1.09l2.63,1.26,2.36,1.34-.17.34-8.79,5.16-1.13.6h-.51M216.31,252.35l-.14-.19.88-.66,7.73-4.59h.27s5.66,3.09,5.66,3.09l-1.22.9-7.67,4.55-.57-.21h0M311.79,253.62l-.68-.5.15-.19,1.95-1.17,6.84-3.99,1.07-.56.33-.04,4.41,2.34,1.96,1.24-1.22.9-8.7,5.06h-.51M233.26,250.48l-.15-.44.9-.65,6.93-4.08,2.1,1.05,4.72,2.69-1.35.95-6.5,3.89h-.5s-.24-.23-.24-.23h0M258,253.71l-2.97-1.59-5.2-2.94,9.17-5.64,1.14-.6,1.32.83,4.77,2.5,2.44,1.49-.49.43-8.55,4.92-1.07.56-.32.06h0M336.46,254.44l-4.58-2.39-1.85-1.19,9.32-5.53h.27s5.36,2.84,5.36,2.84l1.25.8.33.05.53-.37-.12-.14-6.02-3.31-.46-.4,1.4-.97,6.35-3.75,1.07-.56.33-.04,7.45,4.14-.86.61-18.71,10.68h-.26s-.23-.17-.23-.17l-.19.12h0M302.88,248.63l1.72-1.13,4.73-2.68,3.49-2.14h.26s2.28,1.34,2.28,1.34l4.05,2,.68.5-.88.66-8.06,4.69-1.13.6h-.51M227.04,246.98l-1.08-.74,7.87-4.72,5.83,3.16-1.89,1.29-2.29,1.27-3.48,2.15-.76-.02h0M322.78,247.04l-.45-.48.9-.66,8.21-4.82h.51s6.38,3.59,6.38,3.59l-1.72,1.13-7.48,4.35-.76-.02h0M243.06,245.63l-1.13-.8.37-.38,4.24-2.44,2.84-1.78,2.49-1.46.37-.08,6.5,3.64-1.11.85-7.66,4.56-1.05.74h-.51M314.04,242.17l-.05-.07,1.84-1.18,7.49-4.35,3.77,1.9,3.46,1.99-9.59,5.65h0M236.31,241.83l-1.32-.89,1.35-.95,4.24-2.44,4.22-2.61h.26s5.78,3.14,5.78,3.14l-.86.61-8.3,4.93-1.14.59-.5-.24h0M291.31,243.92l1.13-.6,26.51-15.71-1.76-.07-26.04,15.38-.64.66.2.25h0M332.58,240.62l.67-.58,4.24-2.44,1.62-1.08,2.29-1.26.33-.04,3.45,1.84,3.05,1.8-.38.38-8.64,5.02h0M259.43,241.9l-.84-.59-5.3-2.8-.16-.35,1.39-.98,7.42-4.32,1.05-.74h.5s3.93,2.09,3.93,2.09l2.27,1.37v.24s-.81.54-.81.54l-9.2,5.53h0M327.01,237.65l-1.67-1-.84-.64.62-.47,7.73-4.59h.74s5.61,2.85,5.61,2.85l1.37.94-9.1,5.28h0M246.37,234.55l-.26-.22.49-.43,8.15-4.79,1.05-.74h.5s3.47,1.85,3.47,1.85l1.65.75.66.45-10.32,6.22h0M344.73,236.08l-2.33-1.44,7.29-4.32.42-.53.41.02,3.93,2.09,2.93,1.75-8.16,4.73h0M291.44,235.73l.49-.02.32-.27,13.27-7.6.62-.47-2-.08-11.94,6.97h-.26s-.23-.18-.23-.18h-.5s-.08.32-.08.32l.15.24-.16.23v.74h0M349.79,229.57v.14h0M301.49,228.38l.31-.32-.38-.44-.63-.39h-1.52s1.89,1.11,1.89,1.11h0"/><path class="cls-2" d="M338.8,222.32l.12-.36.11-6.04-.03-.25-.21-.24-.36-.09-.24.2-.12.36-.11,6.05.52.52h0"/><path class="cls-2" d="M296.91,200.27l.24-.21.12-.36-.17-.43-.83-.38-.38-.42v-.26s.42-.46.42-.46l.02-.4-.57-.42-.72.4h-.5s-.47-.22-.47-.22l-.36.11-.21.23v.5s.66.73.66.73l-.46.56.09.52.49.22.65-.36.32-.03.88.63h0"/><path class="cls-2" d="M247.11,323.84l.12-.56-.02-.39-1.1-.88.87-1.14-.43-.49-.11-.08-.37.08-.68.88-.44.38-.95-.65-.25.2-.09.6.4.49-.41.71.4.59h.4s.74-.64.74-.64l1.32.83h0M157.71,281.92l.49-.02.58-.65h.15s.94.68.94.68l.58-.07.02-.74-.85-.78.24-.25.4-.89-.2-.25-.37-.09-.58.41-.27.39-.37.08-.83-.59-.45-.83h-.53s-.38.5-.38.5l-.05.33.43.71.92.74-.19,1.22h0M384.06,245.79l2.12-1.29.58-.55.9-.4.16-.43-.33-.32-1.32.65-.45.55-1.32.57-.67.51v.4s.22.24.22.24h0M383.6,243.86l.37-.08.45-.7-.87-.98v-.26s.28-.3.28-.3l.4-.8-.56-.42-.98.62-1.06-.91-.6-.73h-.5s-.12.32-.12.32l.02.49.64.83.44.34-1.12.99v.74s.71.1.71.1l.42-.53.8-.36,1.04,1.22.15.35h0"/><path class="cls-9" d="M292.37,197.08l.36-.11.21-.23.02-.41-.4-.28-1.54-.62-1.25-1.01-.4-.02-.42.57.4.59,1.17.82,1.55.62h0"/><path class="cls-5" d="M292.41,197.2l.36-.11s.04-.02.05-.03l.21-.23s.03-.05.03-.08l.02-.41s-.02-.08-.05-.1l-.4-.28s-.02,0-.02-.01l-1.52-.62-1.24-1s-.04-.03-.07-.03l-.4-.02s-.08.02-.1.05l-.42.57s-.03.1,0,.14l.4.59s.02.02.03.03l1.17.82s.02,0,.02.01l1.55.62.09-.22-1.54-.62-1.14-.8-.34-.51.33-.45h.3s1.22,1,1.22,1c0,0,.02.01.03.02l1.53.62.34.23v.29s-.17.17-.17.17l-.33.1.07.23Z"/><path class="cls-9" d="M239.71,318.39l.57-.55v-.26s-.4-.58-.4-.58l-.41-.06-.89-.39-.94-.51-.31-.28-.64-.02-.42.57.32.38,2.32,1.18.46.44h0M154.41,277.72l.33-.31v-.5s-.37-.42-.37-.42l-1.37-.42-.5-.04-.26.02-.57.41-.02.51,1.05.47h.75s.24-.14.24-.14l.37.33h0M376.05,238.82v-.25s-.14-.17-.14-.17l-2.68-1.07-.54-.31-.78-.77h-.5s-.32.3-.32.3v.26s.36.64.36.64l.97.76,3,1.13h0"/><path class="cls-5" d="M239.63,318.3l.53-.51v-.17s-.35-.5-.35-.5l-.36-.05s-.02,0-.03,0l-.9-.39-.94-.51s-.02-.01-.02-.02l-.27-.25-.53-.02-.32.44.24.29,2.3,1.17s.02.01.03.02l.46.44-.17.17-.44-.43-2.3-1.17s-.03-.02-.04-.03l-.32-.38s-.04-.1,0-.15l.42-.57s.06-.05.1-.05h0s.64.02.64.02c.03,0,.06.01.08.03l.3.27.92.5.87.38.39.06s.06.02.08.05l.41.58s.02.05.02.07v.26s-.02.06-.04.08l-.57.55-.17-.17ZM154.32,277.63l.29-.28v-.4s-.32-.36-.32-.36l-1.32-.41-.46-.03-.22.02-.5.35v.37s.94.43.94.43h.68s.21-.13.21-.13c.05-.03.1-.02.15.01l.37.33-.16.18-.3-.26-.16.1s-.04.02-.07.02h-.75s-.03-.01-.05-.02l-1.05-.47s-.07-.07-.07-.11l.02-.51s.02-.07.05-.09l.57-.41s.04-.02.06-.02l.28-.02.5.04s.02,0,.03,0l1.37.42s.04.02.05.03l.38.42s.03.05.03.08v.5s-.02.06-.05.09l-.33.31-.17-.17ZM372.38,238.32s-.02-.01-.03-.02l-.97-.76s-.02-.02-.03-.04l-.37-.64s-.02-.04-.02-.06v-.26s.02-.06.04-.08l.32-.31s.05-.03.09-.03h.5s.06.02.08.04l.77.76.51.29,2.68,1.07s.04.02.05.04l.14.17s.03.05.03.08v.25s-.25,0-.25,0v-.21s-.09-.12-.09-.12l-2.67-1.07-.54-.31s-.02-.01-.03-.02l-.75-.74h-.4s-.25.24-.25.24v.18s.33.59.33.59l.93.73,2.98,1.13-.09.23-3-1.13Z"/><path class="cls-2" d="M313.18,222.78l.12-.31-.19-13.77.33-.32.49.16.19-.16.46-.86.48-1.71-.02-.5-.88-2.66.05-.98.25-.97.51-3.35.09-6.78-.81-2.59-1.84-3.37-.82-.48-.44-.57-1.77-.87-.3-.27-.74.15-.23-.17-.98-.02-.73.63-.49-.17-.67.4-.6,1.04-.63.62-.8,1.25-.51.97-.41,1.55-.48,3.37.34,3.86-.17.5.16.23.02.49-.52,2.24-.22.4-.04.49.4,15.43.36.35.81-11.92.48.64.94.83,2.1,1.22,2.32.91.44.29,3.28.74-.14.17-.04.49-.22,12.57.51.52.37-.33.11.55h0M314.1,207.74h.14M309.85,206.86l-.25.15-.79-.53-1.53-.6-2.34-1.3-.79-.72-.34-.58-.61-.65-.6-1.13.03-1.72.47-1.19.08-4.59-.19-.48-.03-.49.04-1.93.2-.48-.18-.49.5-2.23.69-1.3.5-.72.63-.62.6-1.04.19-.15.49.17.96-.64,1.47.02,1.35.89,1.36,1.27,1.31,2.25.61,1.93.36,2.29-.17.5.16.23v1.22s-.2.47-.2.47l-.05.73.03.49.19.48-.47,1.43.18,1.47-.24.62-.5,2.5.81,2.6.27.55-.18.74.16.23.02.73-.12.32-.97.02-.48-.2-.26.15h0M318.99,189.8l.42-.57-.4-.59h-.64s-.49.16-.49.16l-.93-.43h-.99s-.11.31-.11.31l.11.37,1.37.68h0M314.73,183.11l1.19-.9,2.22-.63v-.5s-.57-.43-.57-.43l-.99-.02-2.1,1.07-.41.42-.04.5.52.52h0M301.01,182.23l.42-.57-.4-.59-1.13-.08-1.43-.47-.49.02-.33.31-.02.38,2.44.93h0M304.54,178.45l.36-.11.21-.23v-.5s-.67-.74-.67-.74l-.4-.65-1.38-1.39-.58.4v.4s.75.81.75.81l1.36,1.88h0M309.4,177.54l.43-.4,1.15-2.79.02-.41-.56-.42-.38.32-.33.55-.63,1.82-.49.74.44.5h0"/><path class="cls-2" d="M288.35,250.74l.4.17h.97s1.54-1.46,1.54-1.46l.9-.4.45-.44.39-.63.03-1.48-.37-.89-.37-.4-.57-1.8-.41-.38-.32.07v-.25s.5-.9.5-.9l.42-1.68.52-1.24v-.75s-.18-.48-.18-.48l.21-.47.05-.97-.63-1.89-1.38-2.91-.7-.98-.53-.42-.79-.97-.4-.65-.44-.45-2.07-1.14-.99-.02-.24.15-.23-.16h-.5s-1.13.59-1.13.59l-1.65,1.22-.85,1.65-.9,2.56-.12,5.33.22.73-.03,1.45-.45,1.38-.77,1.48-.05,1.22.03.26.36.64.53.42.13.27.88.91.14,13.93.35.34.92-12.96.34.04,1.18.9.25-.15,1.31.49,3.06.7-.14.17-.04.49-.25,14.49.03.25.5.53h0M288.04,250.22v.14h0M286.39,248.73l-.76.16-2.09-.68-.95-.49-.38-.38-1.04-.6-2.06-2.15.02-1.23.55-1.02.68-2.33-.38-5.32.05-1.22.93-2.62.72-1.36,1.9-1.34,1.96.03,1.76,1.17.41.81.62.41.32.57.53.42.56.72.92,1.69.83,2.86-.45,2.6-1.06,3.17.11.37.76.43-.17.42.02.74.98,1.76.35.91-.45.81-.36-.19h-.5s-1.7,1.08-1.7,1.08l-.49-.16-.37.32-.38.08h0"/><path class="cls-2" d="M292.34,227.02l.64-.37.81-.78.09-.6-.21-.24-.36-.09-.81.74-1.93,1.27h0M334.6,227.8l2.41.04.25-.03.09-.34-.6-1.13-.98-1.17-.99-.89-.4-.65-.67-.7-.64-.42-1.33-1.36-.76-.41-.68-.59-1.91-1.24-.95-.51-1.79-.62-1.09-.64-3.1-.99-4.05-.51-1.21.22-.97-.05-.49-.18-9.44.75-3.38.44-2.65-.05-3.56-.53-2.14-.69-.48-.26-.39-.39-1.29-.62-.85-.87-1.04-.6-.62-.63-1.28-.84-.4-.55-1.9-1.09-1.85-.74-3.06-.92-.29-.26h-.25s-.29.24-.29.24l-1.94.37-3.03.87-.45,1.02-.3.19-.9,1.61.4.59.23.15-.2.39-1.07,5.39-.06,5.08.31.32.61-.07.65.9.66.65h.49s.17-.13.17-.13l1.53-9.21.33,7.8.34.34.63-1.55,1.07.61.74.76.52.74h.5s.32-.32.32-.32l-.66-1.21-.43-.45-1.21-.89.02-.65.46-.95.02-1.21-.19-.74.51-3.36.23-.71.04-.74-.03-.26-.41-.58-.27-.14-.68-.84-.23-.13v-.5s.35-.31.35-.31l2.32.64,2.17.8,2.33,1.18.53.3.4.55.79.45.61.62.83.38.61.61,1.29.62.61.61,1.67.44,1.14.5h.5s.25-.15.25-.15l.7.41.26-.15,2.14.69h.26s.24-.15.24-.15l.47.41h.5s.25-.15.25-.15l1.43.43,5.16-.6,2.58-.65h.74s.47.2.47.2l.73.05,3.14-.63.49.2.74-.19,4.79.75h.26s.25-.16.25-.16l3.51.74.49.18.4.54.89-.16,1.02.77,1.52.85.39.39,1.04.6.62.63,1.79,1.38.86,1.25.32.21.34.58.79.82h0M283.67,224.93l.45-.63.68-1.85-.02-.49-.32-.31-.44.38-1.14,2.31.23.5h0M297.81,217.53v.14h0M275.84,213.15l.54-.61.98.02.1.33-.04.49-.82.54h0"/><path class="cls-2" d="M340.58,245.06l.84-.45.13-.2.24.15.17-.12.55-8.6.26-.28v-.5s-1.82-2.06-1.82-2.06l-.58-.47-.59-1.13.17-.24v-.5s-.74-.56-.74-.56l-.34-1.08-.48-.5-.87-.63-3.15-.05-.07.08.73,1.05,1.56,2.72.2.13-.32.36-.12.36-.17,10.54.56.42.18-.12.52-7.74.57.35.32,8.79.32.2h.5s.54-.72.54-.72l.44-.38.08.32-.66.94.2.25.37.08h0M295.33,234.35l.73-.02.11-.32-.02-.25-.16-.19-2.09-1.47-1.17-.43-.5-.04-.33.1v.5s.37.42.37.42l1.54.62,1.16.94h0M341.24,234.98v.14h0M337.29,234.17v-.39s.11-.31.11-.31l.48.4.32-.07.02.73-.13.31h0M339.95,234.21l.1-.47.37.09.59.86.07.12-.33.07h0M276.34,229.15l.32-.31v-.26s-.4-.58-.4-.58l-1.62-.08-1.43-.47-.57.1v.5s.38.43.38.43l2.76.65h0M290.97,228.11l1.16-.99-1.51-.07-.24.21-.09.36.45.49h0"/><path class="cls-7" d="M337.74,227.82v-.2s-.6-.63-.6-.63l-.45-.83-.49-.39-.87-1.14-2.63-2.73-1.52-1.1-1.57-1.36-.83-.38-1.32-1.11-2.75-1.14-1.49-1.01h-.25s-.25.16-.25.16l-2.11-.43-.76-.51h-.5s-.48.18-.48.18l-.49-.2-2.16.37-.25-.16-.49.18-1.69-.03-.49-.2-.72.38-.24-.17-.49-.04-2.43.43-.72-.24-1.93-.03-.73.22-.72-.24-1.96.68-4.59.4-.47-.2h-.25s-.23.16-.23.16h-.74s-.7-.43-.7-.43l-.25.15-.49-.16-.49.16-2.06-1.14-.38-.38-1.78-.87-.72-.5-.86-.88-3.21-1.86-.38-.38-2.51-1.21-2.44-.7-.5.19-.73-.04-.23-.16-.25.15-.7-.42-.98-.05-2.28.56-.81.29-.15.17v.26s.54.6.54.6l.51-.02.46-.23,1.72-.42.48.19.5-.15,4.38.77.48.31,1.54.62.62.63,1.23.65.61.74h.25s.24-.15.24-.15l.64.38.5.51.36.6,2.72,1.36.87.64,1.76.86.31.28h.25s.25-.15.25-.15l.94.43h.26s.24-.15.24-.15l.23.16.73.04.48-.19.49-.03.49.04.23.16.48-.39.73.21h1.95s1.39-.46,1.39-.46l1.74-.37.26.17,5.07-.35,1.21.06.24.17.71-.39h.98s.47.2.47.2l.73.05,2.91-.43,4.66,1.05,1.57.95.26-.15,4.23,2.39.86,1.02.4.07.81.67.21.34,1.83,1.41.8.97.34.22.34.58,1.08,1.14.34.58.42.41h0"/><path class="cls-5" d="M336.45,227.89l.17-.17-.41-.4-.33-.57s-.01-.02-.02-.02l-1.07-1.13-.33-.57s-.02-.03-.04-.04l-.32-.21-.79-.95s-.01-.01-.02-.02l-1.81-1.4-.2-.32s-.02-.02-.03-.03l-.81-.67s-.04-.02-.06-.03l-.36-.06-.83-.98s-.02-.02-.03-.03l-4.23-2.39s-.08-.02-.12,0l-.2.11-1.51-.91s-.02-.01-.04-.01l-4.66-1.05s-.03,0-.04,0l-2.9.42-.69-.04-.45-.2s-.03-.01-.05-.01h-.98s-.04.02-.06.03l-.65.36-.18-.12s-.04-.02-.06-.02l-1.21-.06-5.04.35-.22-.15s-.06-.02-.09-.02l-1.74.37-1.38.47h-1.91s-.71-.21-.71-.21c-.04-.01-.08,0-.11.02l-.41.33-.16-.11s-.04-.02-.06-.02l-.49-.04-.51.03s-.03,0-.04,0l-.46.18-.67-.04-.2-.14s-.09-.03-.13,0l-.21.13h-.2s-.91-.41-.91-.41c-.04-.02-.08-.01-.12,0l-.22.14h-.17s-.27-.25-.27-.25c0,0-.02-.01-.03-.02l-1.76-.86-.85-.63-2.71-1.36-.34-.57s-.01-.02-.02-.02l-.5-.51s-.02-.01-.02-.02l-.64-.38s-.09-.02-.13,0l-.21.14h-.16s-.57-.7-.57-.7c-.01-.01-.02-.02-.04-.03l-1.21-.64-.61-.61s-.03-.02-.04-.03l-1.54-.62-.46-.3s-.03-.01-.04-.02l-4.38-.77s-.04,0-.06,0l-.46.14-.44-.18s-.05-.01-.07,0l-1.72.42s-.02,0-.03,0l-.43.21-.43.02-.48-.52v-.17s.11-.12.11-.12l.78-.28,2.25-.55.93.05.67.4s.09.02.12,0l.19-.11.17.12s.04.02.06.02l.73.04s.03,0,.05,0l.46-.17,2.4.69,2.48,1.19.36.36s.02.01.02.02l3.19,1.85.85.87.73.51,1.77.87.36.36s.02.01.03.02l2.06,1.14s.06.02.1,0l.46-.15.45.15s.07,0,.1-.01l.19-.11.64.38s.03.02.06.02h.74s.05,0,.07-.01l.2-.14h.19s.45.2.45.2c.02,0,.04.01.06,0l4.59-.4s.02,0,.03,0l1.92-.66.68.23s.05,0,.07,0l.71-.21,1.89.03.7.24s.04,0,.06,0l2.41-.43.44.04.21.15s.09.03.13,0l.67-.36.44.18s.03,0,.04,0l1.69.03s.03,0,.04,0l.43-.16.2.13s.06.02.09.02l2.13-.36.46.19s.06.01.09,0l.46-.18h.44s.73.5.73.5c.01,0,.03.02.04.02l2.11.43s.06,0,.09-.02l.22-.14h.18s1.46,1,1.46,1c0,0,.01,0,.02.01l2.74,1.13,1.3,1.09s.02.01.03.02l.81.37,1.55,1.35,1.53,1.1,2.62,2.72.86,1.13s.01.02.02.02l.47.38.44.81s.01.02.02.03l.57.59v.15s.24,0,.24,0v-.2s-.01-.06-.04-.08l-.59-.62-.44-.82s-.02-.03-.03-.04l-.48-.38-.86-1.13-2.64-2.74-1.54-1.11-1.56-1.36s-.02-.01-.03-.02l-.81-.37-1.3-1.1s-.02-.01-.03-.02l-2.74-1.14-1.48-1.01s-.04-.02-.07-.02h-.25s-.05,0-.07.01l-.21.13-2.03-.42-.74-.5s-.04-.02-.07-.02h0s-.5,0-.5,0c-.02,0-.03,0-.05,0l-.43.17-.44-.19s-.04-.01-.07,0l-2.12.36-.21-.13s-.07-.02-.11-.01l-.47.17-1.64-.03-.47-.19s-.07-.01-.1,0l-.65.35-.18-.12s-.04-.02-.06-.02l-.49-.04s-.02,0-.03,0l-2.4.42-.69-.23s-.02,0-.04,0l-1.93-.03s-.02,0-.04,0l-.69.21-.68-.23s-.05,0-.08,0l-1.94.67-4.54.4-.44-.19s-.03,0-.05,0h-.25s-.05,0-.07.02l-.2.14h-.67s-.67-.41-.67-.41c-.04-.02-.08-.02-.12,0l-.2.12-.44-.15s-.05,0-.08,0l-.44.14-2-1.11-.37-.37s-.02-.02-.03-.02l-1.78-.87-.7-.49-.84-.86s-.02-.01-.03-.02l-3.19-1.85-.37-.37s-.02-.02-.03-.02l-2.51-1.21-2.46-.71s-.05,0-.08,0l-.47.18-.67-.04-.2-.14s-.09-.03-.13,0l-.19.11-.64-.38s-.04-.02-.06-.02l-.98-.05s-.02,0-.03,0l-2.28.56-.82.29s-.04.02-.05.03l-.15.17s-.03.05-.03.08v.26s0,.06.02.09l.55.6s.06.04.09.04l.51-.02s.03,0,.05-.01l.44-.22,1.67-.41.44.18s.05.01.08,0l.47-.14,4.33.76.46.3,1.54.63.6.61s.02.02.03.02l1.21.64.59.72s.06.04.09.04h.26s.05,0,.07-.01l.18-.12.56.34.48.49.35.59s.03.04.05.05l2.72,1.36.85.63,1.77.86.3.27s.05.03.08.03h.25s.05,0,.07-.01l.19-.12.88.4s.03,0,.05.01h.26s.05,0,.06-.02l.17-.11.17.12s.04.02.06.02l.73.04s.04,0,.05,0l.46-.18.47-.03.44.04.21.14s.1.03.14,0l.43-.35.67.19s.02,0,.03,0h1.95s.03,0,.04,0l1.39-.47,1.68-.35.22.14s.05.02.07.02l5.07-.35,1.16.06.21.15s.09.03.13,0l.69-.38h.92s.45.19.45.19c.01,0,.03,0,.04.01l.73.05s.02,0,.03,0l2.89-.42,4.62,1.04,1.56.94s.09.02.12,0l.2-.12,4.16,2.34.85,1s.04.04.07.04l.37.06.77.64.2.33s.02.02.03.03l1.82,1.4.79.96s.02.02.03.02l.31.2.32.56s.01.02.02.02l1.07,1.13.33.57s.01.02.02.03l.42.41Z"/><path class="cls-7" d="M339.81,232.93l.33-.07.05-.97-.63-1.64-1.72-2.27-.36-.12-.73.02-.07.09.36.65.47.73.6.64,1.27,2.54.32.33h0"/><path class="cls-5" d="M339.84,233.05l.33-.07c.05-.01.09-.06.1-.11l.05-.97s0-.03,0-.05l-.63-1.64s0-.02-.02-.03l-1.72-2.27s-.03-.03-.06-.04l-.36-.12s-.03,0-.04,0l-.73.02s-.07.02-.09.04l-.07.09s-.04.09-.01.14l.36.65.47.74.6.64,1.27,2.52s.01.02.02.03l.32.33.17-.17-.3-.32-1.27-2.52s-.01-.02-.02-.03l-.6-.64-.46-.72-.31-.55.63-.02.3.1,1.68,2.23.62,1.6-.05.85-.24.05.05.24Z"/><path class="cls-1" d="M159.3,180.8s-6.55-4.58,4.77-6.19c0,0,5.13,1.03,1.09,4.95s-5.86,1.24-5.86,1.24Z"/><path class="cls-5" d="M161.73,181.78c-.28.05-.55.06-.81.03-1.06-.11-1.61-.79-1.7-.91-.23-.16-2.26-1.67-1.87-3.29.35-1.48,2.61-2.53,6.71-3.11.01,0,.03,0,.04,0,.09.02,2.25.47,2.67,1.91.27.92-.24,2.02-1.52,3.26-1.28,1.24-2.46,1.95-3.52,2.13ZM163.39,174.85c-3.5.58-5.5,1.55-5.8,2.82-.36,1.52,1.77,3.03,1.79,3.04.01,0,.02.02.03.03,0,0,.51.72,1.54.83,1.19.12,2.58-.58,4.13-2.09,1.21-1.17,1.69-2.18,1.45-3-.36-1.23-2.25-1.68-2.46-1.73-.23.03-.46.07-.68.11Z"/><path class="cls-10" d="M12.13,193.81s14.42-24.89,62.79-22.62c0,0,32.01,1.47,36.11,11.3,4.1,9.82,9.98,41.82,8.73,47.64-1.25,5.82,9.88,52.94,9.88,52.94,0,0,8.23,23.63-1.38,33.38s-20.4,17.36-66.18,22.27c-45.79,4.91-38.01-28.29-38.01-28.29,0,0,3.96-10-.72-33.15-4.68-23.14,1-22.06-9.05-32.29,0,0-5.56-21.09-5.42-32.59.14-11.5,1.14-16.57,3.26-18.61Z"/><path class="cls-5" d="M82.28,336.17c-5.99.99-12.69,1.88-20.2,2.68-15.94,1.71-27.18-.98-33.38-8.01-7.46-8.44-4.79-20.31-4.76-20.43.04-.12,3.89-10.26-.72-33.09-1.74-8.63-2.05-13.83-2.27-17.63-.37-6.31-.48-8.21-6.75-14.59-.02-.02-.03-.03-.03-.06-.06-.21-5.56-21.24-5.42-32.62.14-11.14,1.09-16.56,3.29-18.68.21-.35,3.95-6.45,13.29-12.19,5.61-3.45,12.13-6.11,19.35-7.9,9.03-2.23,19.21-3.1,30.26-2.58.08,0,8.11.39,16.54,1.97,11.34,2.13,17.97,5.29,19.69,9.41,4.1,9.82,9.98,41.92,8.73,47.71-1.23,5.72,9.76,52.42,9.88,52.89.02.05,2.07,5.99,2.91,13.05.78,6.53.67,15.38-4.33,20.45-5.3,5.38-10.43,9.43-19.57,12.98-6.81,2.64-15.44,4.82-26.5,6.65ZM14.4,244.94c6.32,6.43,6.43,8.36,6.8,14.73.22,3.79.52,8.98,2.26,17.6,4.63,22.91.75,33.12.71,33.22-.02.1-2.66,11.85,4.72,20.19,6.15,6.96,17.31,9.62,33.17,7.92,21.34-2.29,36.15-5.25,46.63-9.31,9.1-3.53,14.2-7.56,19.48-12.92,9.44-9.58,1.44-33.02,1.35-33.25-.46-1.94-11.12-47.23-9.88-53.01,1.24-5.77-4.63-37.77-8.72-47.56-4.03-9.64-35.68-11.2-36-11.22-13.77-.65-33.53.64-49.45,10.43-9.52,5.85-13.19,12.06-13.23,12.13,0,.01-.01.02-.02.03-2.15,2.07-3.09,7.43-3.22,18.52-.14,11.14,5.16,31.58,5.41,32.52Z"/><path class="cls-1" d="M17.82,200.87s15.03-24.47,72.92-18.82c0,0,12.78,1.15,13.68,6.6.9,5.44,20.19,120.71,20.19,120.71,0,0-20.67,15.95-49.29,19.05,0,0-25.48,2.35-37.31-4.32l-20.19-123.22Z"/><path class="cls-5" d="M80.44,327.83c-1.67.28-3.37.51-5.11.7-.07,0-6.47.59-14.24.34-7.17-.23-17.01-1.22-23.14-4.68-.03-.02-.06-.05-.06-.09l-20.19-123.22s0-.06.02-.09c1.31-2.13,6.08-7.28,14.8-11.58,6.39-3.15,13.92-5.42,22.39-6.74,10.57-1.66,22.63-1.85,35.85-.56.03,0,3.24.3,6.52,1.26,4.44,1.3,6.88,3.13,7.26,5.44.89,5.38,20,119.56,20.19,120.71,0,.05-.01.09-.05.12-.19.15-18.56,14.13-44.25,18.37ZM38.13,324.01c6.09,3.41,15.85,4.39,22.98,4.62,7.75.24,14.14-.33,14.2-.34,27.5-2.98,47.91-18.03,49.17-18.98-.58-3.49-19.3-115.31-20.18-120.64-.87-5.29-13.44-6.48-13.56-6.49-13.19-1.29-25.22-1.1-35.77.55-8.44,1.33-15.94,3.58-22.31,6.71-8.62,4.24-13.37,9.32-14.7,11.45l20.18,123.11Z"/><path class="cls-8" d="M24.96,245.11l86.46-14.58-7.18-43.41s-8.57-9.49-47.49-4.78c0,0-28.23,2.7-38.94,18.53l7.13,44.24Z"/><path class="cls-5" d="M24.98,245.23s-.07,0-.09-.02c-.03-.02-.05-.05-.05-.08l-7.14-44.24s0-.06.02-.09c5.55-8.21,15.87-12.83,23.55-15.25,8.31-2.63,15.41-3.33,15.48-3.33,11.1-1.34,26.78-2.33,38.38.63,6.96,1.77,9.12,4.1,9.21,4.19.02.02.03.04.03.06l7.18,43.41c.01.07-.03.13-.1.14l-86.46,14.58h0ZM17.95,200.9l7.11,44.07,86.22-14.54-7.15-43.25c-.26-.26-2.58-2.45-9.11-4.11-11.56-2.93-27.18-1.95-38.25-.61-.07,0-7.15.7-15.44,3.32-7.63,2.41-17.87,6.99-23.38,15.11Z"/><polygon class="cls-7" points="28.06 207.81 32.53 236.2 99.5 224.74 95.09 196.73 28.06 207.81"/><path class="cls-5" d="M32.55,236.32s-.07,0-.09-.02c-.03-.02-.05-.05-.05-.08l-4.47-28.38c-.01-.07.04-.13.1-.14l67.04-11.08s.07,0,.09.02c.03.02.05.05.05.08l4.41,28.01c.01.07-.03.13-.1.14l-66.97,11.46h0ZM28.2,207.91l4.43,28.14,66.73-11.42-4.37-27.76-66.79,11.04Z"/><path class="cls-7" d="M35.44,250.94l10.85-2.06,1.1,6.64-10.89,1.8s-3.48-3.41-1.05-6.38Z"/><path class="cls-5" d="M47.41,255.65l-10.89,1.8s-.08,0-.11-.03c-.04-.03-3.53-3.52-1.06-6.55.02-.02.04-.04.07-.04l10.85-2.06s.07,0,.09.02c.03.02.05.05.05.08l1.1,6.64c.01.07-.03.13-.1.14ZM36.54,257.19l10.7-1.77-1.06-6.39-10.67,2.03c-2.12,2.66.64,5.72,1.03,6.13Z"/><path class="cls-7" d="M55.91,245.91s-3.04,5.57,1.78,7.91l8.26-1.37s2.42-1.4-.04-7.12l-10,.58Z"/><path class="cls-5" d="M65.97,252.58l-8.26,1.37s-.05,0-.08-.01c-1.32-.64-2.18-1.58-2.56-2.78-.79-2.47.67-5.18.73-5.3.02-.04.06-.06.1-.06l10-.58c.05,0,.1.03.12.08,2.47,5.76.09,7.22-.01,7.28-.01,0-.03.01-.04.02ZM57.71,253.69l8.19-1.35c.2-.14,2.14-1.66-.08-6.87l-9.84.57c-.21.41-1.37,2.87-.68,5.04.36,1.13,1.17,2.01,2.4,2.62Z"/><path class="cls-7" d="M75.51,243.06s-1.8,3.95-.23,6.04c1.57,2.09,12.53-2.07,12.53-2.07,0,0,1.43-6.08-2.21-6.36s-10.09,2.4-10.09,2.4Z"/><path class="cls-5" d="M79.3,249.6c-1.92.32-3.56.31-4.12-.43-1.6-2.12.14-6,.21-6.16.01-.03.04-.05.07-.06.26-.11,6.52-2.69,10.15-2.4.8.06,1.42.4,1.86,1,1.32,1.8.5,5.37.47,5.52,0,.04-.04.07-.08.09-.29.11-4.93,1.86-8.56,2.46ZM75.61,243.15c-.19.44-1.64,3.98-.22,5.87.61.81,2.93.71,6.72-.3,2.65-.7,5.17-1.63,5.6-1.79.1-.49.72-3.67-.44-5.25-.39-.54-.96-.84-1.68-.89-3.41-.27-9.4,2.13-9.99,2.37Z"/><path class="cls-7" d="M95.81,237.78s-3.8,1.24-1.87,5.52,3.21,2.74,7.45,1.48,3.47-5.89,3.47-5.89c0,0,1.16-3.99-9.05-1.11Z"/><path class="cls-5" d="M97.32,246.2c-1.4.23-2.35-.31-3.5-2.84-.64-1.41-.73-2.66-.27-3.69.65-1.47,2.16-1.98,2.22-2h0c3.22-.91,7.35-1.69,8.78-.25.6.6.47,1.33.43,1.48.05.39.56,4.77-3.56,6-.75.23-1.42.46-2,.67-.82.29-1.5.53-2.1.63ZM95.85,237.9c-.06.02-1.48.52-2.07,1.86-.43.97-.33,2.14.27,3.49,1.54,3.41,2.56,3.05,5.28,2.08.59-.21,1.25-.44,2.01-.67,1.71-.51,2.8-1.63,3.24-3.32.33-1.27.15-2.42.15-2.43,0-.02,0-.04,0-.05,0-.03.19-.71-.36-1.27-.74-.74-2.83-1.29-8.53.32Z"/><path class="cls-10" d="M64.91,267.81s22.16-7.43,21.28,17.23c0,0,1.84,12.54-15.09,16.19-16.93,3.66-17.15-18.07-17.15-18.07,0,0-.89-10.24,10.97-15.36Z"/><path class="cls-5" d="M70.16,301.54c-3.96.65-7.29-.08-9.92-2.18-6.23-4.97-6.41-16.08-6.41-16.19,0-.09-.76-10.38,11.04-15.47,0,0,0,0,.01,0,.1-.03,9.63-3.15,15.92,1.55,3.93,2.94,5.79,8.26,5.52,15.8,0,0,.44,3.19-1.21,6.77-1.52,3.3-5.19,7.64-13.98,9.54-.33.07-.65.13-.97.18ZM64.96,267.92c-11.63,5.02-10.89,15.13-10.89,15.23,0,.12.19,11.11,6.32,16.01,2.78,2.22,6.37,2.87,10.68,1.94,4.8-1.04,11.09-3.51,13.81-9.4,1.62-3.52,1.19-6.62,1.19-6.65.27-7.48-1.56-12.73-5.42-15.62-6.13-4.58-15.43-1.6-15.69-1.51Z"/><path class="cls-11" d="M61.57,269.92s6.9,3.95,15.84,23.16c0,0,2.86,6.11-2.32,7.74l-7.79-12.66-6.97-14.63,1.24-3.61Z"/><path class="cls-5" d="M75.1,300.94s-.1-.01-.13-.06l-7.79-12.66-6.98-14.64s-.02-.06,0-.09l1.24-3.61s.04-.06.07-.08c.04-.01.07,0,.11,0,.07.04,7.04,4.19,15.89,23.21.06.13,1.46,3.19.41,5.58-.49,1.11-1.43,1.9-2.81,2.33,0,0-.01,0-.02,0ZM60.46,273.52l6.95,14.58,7.73,12.56c1.25-.41,2.11-1.14,2.56-2.16,1.01-2.29-.39-5.35-.41-5.38-8.15-17.52-14.67-22.36-15.66-23.02l-1.17,3.41Z"/><path class="cls-10" d="M129.15,281.5s1.44,8.96,6.16-31.32c0,0,7.95-14.53,12.59-18.61s5.01-12.92,5.01-12.92l2.58.43s-1.64,13.93-12.34,23.6c0,0-5.77,12.29-5.79,25.74,0,0-4.32,18.15-6.58,18.53l-1.63-5.45Z"/><path class="cls-5" d="M130.8,287.07c-.06.01-.12-.03-.14-.09l-1.45-4.85c-.12-.24-.17-.52-.18-.61-.01-.06.03-.13.1-.14.06-.01.13.02.15.09l.17.58c.06.11.12.18.17.18,0,0,.01,0,.02,0,.45-.07,2.12-2.74,5.55-32.05,0-.02,0-.03.01-.05.08-.15,8.01-14.59,12.62-18.65,4.55-4,4.97-12.75,4.97-12.84,0-.04.02-.07.05-.09.03-.02.06-.03.1-.03l2.58.43c.07.01.11.07.1.14-.02.14-1.76,14.07-12.36,23.66-.28.6-5.75,12.67-5.77,25.66,0,0,0,.02,0,.03-.01.05-1.1,4.59-2.44,9.13-.68,2.29-2.75,9.25-4.24,9.5h0ZM129.57,282.47l1.3,4.32c1.82-.77,5.2-13.45,6.37-18.39.03-13.32,5.75-25.65,5.81-25.77,0-.02.02-.03.03-.04,10.03-9.06,12.09-22.03,12.28-23.4l-2.33-.39c-.07,1.16-.74,9.08-5.05,12.87-4.49,3.95-12.2,17.93-12.55,18.56-2.5,21.37-4.46,32.22-5.81,32.25-.02,0-.03,0-.05,0Z"/><path class="cls-8" d="M126.56,269.53l-2.19-7.7s1.45-15.03,10.17-26.38c0,0,7.62-9.19,6.83-15.76l2.92.37s-2.2,11.4-7.11,15.82c-4.91,4.41-11.95,26.11-10.62,33.65Z"/><path class="cls-5" d="M126.58,269.66c-.06.01-.12-.03-.14-.09l-2.19-7.7s0-.03,0-.05c.01-.15,1.55-15.2,10.19-26.44.08-.1,7.58-9.23,6.81-15.67,0-.04,0-.08.04-.1.03-.03.07-.04.1-.04l2.92.37s.07.02.09.05c.02.03.03.06.02.1,0,.03-.57,2.9-1.72,6.27-1.07,3.12-2.88,7.32-5.43,9.62-2.25,2.02-5.23,8.14-7.61,15.6-2.44,7.63-3.57,14.5-2.97,17.93.01.07-.03.13-.09.14,0,0,0,0,0,0ZM124.49,261.83l1.8,6.3c-.37-8.45,6.01-28.02,10.8-32.34,2.51-2.26,4.3-6.42,5.36-9.51,1.01-2.95,1.56-5.51,1.69-6.11l-2.63-.33c.64,6.54-6.8,15.6-6.88,15.69-8.43,10.97-10.07,25.61-10.14,26.28Z"/><polygon class="cls-1" points="141.36 219.7 144.28 220.07 147.67 186.9 141.61 188.31 141.36 219.7"/><path class="cls-5" d="M144.3,220.19s-.02,0-.04,0l-2.92-.37c-.06,0-.11-.06-.11-.13l.24-31.39c0-.06.04-.11.1-.12l6.06-1.41s.08,0,.11.03c.03.03.05.07.04.11l-3.38,33.17s-.02.06-.05.09c-.02.01-.04.02-.06.03ZM141.49,219.59l2.68.34,3.35-32.87-5.79,1.34-.24,31.19Z"/><polygon class="cls-8" points="154.51 218.63 152.01 217.48 157.65 185.58 163.12 186.92 154.51 218.63"/><path class="cls-5" d="M154.53,218.75s-.05,0-.07,0l-2.51-1.14c-.05-.02-.08-.08-.07-.14l5.65-31.9s.03-.06.05-.08c.03-.02.06-.02.1-.02l5.46,1.34s.06.03.08.06c.02.03.02.06.01.1l-8.6,31.7s-.03.06-.07.08c-.01,0-.02,0-.03.01ZM152.15,217.41l2.29,1.04,8.53-31.44-5.21-1.28-5.61,31.68Z"/><polygon class="cls-10" points="157.65 185.58 159.96 178.22 164.64 178.41 164.35 186.71 157.65 185.58"/><path class="cls-5" d="M164.37,186.84s-.03,0-.04,0l-6.69-1.13s-.07-.03-.09-.06c-.02-.03-.02-.07-.01-.1l2.31-7.36c.02-.05.07-.09.12-.09l4.68.19c.07,0,.12.06.12.13l-.3,8.3s-.02.07-.05.09c-.02.01-.04.02-.06.03ZM157.82,185.48l6.41,1.09.29-8.04-4.46-.18-2.24,7.13Z"/><polygon class="cls-10" points="143.96 174.87 144.95 168.69 146.58 168.2 146.95 174.8 143.96 174.87"/><path class="cls-5" d="M146.97,174.93s-.01,0-.02,0l-2.99.06s-.07-.01-.1-.04c-.02-.03-.04-.07-.03-.1l.99-6.18s.04-.09.09-.1l1.62-.48s.08,0,.11.02c.03.02.05.06.05.1l.38,6.6s0,.07-.03.09c-.02.02-.04.03-.07.04ZM144.11,174.74l2.71-.06-.36-6.31-1.4.42-.96,5.95Z"/><polygon class="cls-10" points="161.1 174.74 162.93 168.07 164.46 167.82 165.14 175.28 161.1 174.74"/><path class="cls-5" d="M165.16,175.4s-.02,0-.04,0l-4.04-.54s-.07-.02-.09-.05c-.02-.03-.03-.07-.02-.1l1.83-6.66s.05-.08.1-.09l1.53-.25s.07,0,.1.02c.03.02.04.05.05.09l.68,7.46s-.01.08-.04.1c-.02.02-.04.03-.07.03ZM161.26,174.63l3.74.5-.65-7.17-1.32.22-1.77,6.45Z"/><path class="cls-1" d="M143.26,179.69s-5.11-3.64,3.7-4.89c0,0,4,.83.86,3.92-3.14,3.09-4.56.97-4.56.97Z"/><path class="cls-5" d="M145.15,180.5c-.21.04-.42.04-.63.02-.84-.08-1.27-.62-1.36-.74-.2-.14-1.78-1.35-1.47-2.65.29-1.18,2.04-2,5.24-2.45.01,0,.03,0,.04,0,.07.01,1.76.38,2.1,1.53.22.74-.18,1.62-1.18,2.6-.99.98-1.92,1.54-2.75,1.68ZM146.42,175.01c-2.69.45-4.24,1.2-4.48,2.18-.29,1.19,1.37,2.39,1.39,2.4.01,0,.02.02.03.03,0,0,.4.57,1.19.65.92.09,1.98-.46,3.18-1.63.93-.92,1.31-1.71,1.12-2.35-.28-.95-1.71-1.31-1.9-1.35-.18.03-.36.05-.53.08Z"/><polygon class="cls-10" points="147.23 177.79 147.67 186.9 141.61 188.31 143.26 179.69 144.69 176.67 147.23 177.79"/><path class="cls-5" d="M141.63,188.43s-.08,0-.11-.03c-.03-.03-.04-.07-.04-.11l1.65-8.61s0-.02,0-.03l1.43-3.03c.03-.06.1-.09.16-.06l2.55,1.12s.07.06.07.11l.43,9.11c0,.06-.04.11-.1.13l-6.06,1.41s0,0,0,0ZM143.38,179.73l-1.61,8.41,5.77-1.34-.43-8.93-2.36-1.04-1.37,2.9Z"/><path class="cls-2" d="M92.32,334.62h0l.35-.19.54.11,1.4-.69,2.71-.45.78.11,2.23-.4,1.72-.8,2.54-.86.53.09.52-.08,3.68-2.06,1-.19.54.12,3.28-1.46,1.1-.67,1.84-1.42,1.75-.89,4.63-3.46,1.37-.65,1.14-1.58.59-.49.41-.13.33-.61.58-.52,1.51-2.1,1.42-1.38.56-1.09.39-1.43.52-.74.46-2.47.45-1.23.15-.77.18-1.59-.02-2.86.22-1.89-.29-1.72-.36-.7.11-.52-.2-.21-.2-.99-.09-.75.13-.52-.2-1.23-1.54-6.11-2.66-11.58-.4-.93-1.69-6.3-.7-2.04-.81-4.93.13-.52-.09-.75-.12-.49-.29-.45-.53-3.2.12-.78-.28-1.72-.81-1.9-.28-1.72.12-.78-.24-1.48-.36-.7-.41-2.46-.09-.75.13-.52-.36-2.22-.13-.74-.29-.45-.16-.74.04-2.8-.12-.49-.29-.45-.24-1.48.13-.52-.05-.51-.2-.99-.21-.22.31-1.3.18-2.09-.1-4.51-.14-1.01-.36-.7-.45-2.71-.29-4.77-.37-2.21-1.51-6.08-.05-.51.13-.52-2.12-12.82-1.76-6.18-2.39-5.49-.96-1.34-1.18-.85-3.93-1.74-.32-.23-.8-.99-1.22-.23-1.5-.85-1.59-.5-2.72-.42-2.28-.76-2.71-.52-.5-.47-3.04-.15-.73-.17-.65-.46-3.19-.12-1.16-.59-.51.08-.45.29-1,.14-1.57-.42-.24.21-3.47-.16-6.88.17-.51.09-.21.21-.49.11-3.45-.17-8.39.62-.49.11-.45.29-2.46.41-1,.13-.52-.12-1.23.2-1.14.66-.28.05-1.77-.15-1,.14-4.02,1.64-1.74.31-.52-.12-.52.08-5.85,2.36-1.71,1.18-3.89,1.8-.31.42-1.15.72-2.44,1.27-.54.73-1.93,1.2-.33.44-1.89,1.44-.32.43-1.48.87-1.2,1.36-1.82,1.77-.83,1.64-.38,1.11-1.14,1.62-1.15,2.22-.51,1.59-.32,1.69-.57,2-.21,2.07-.04,6.91.44,7.14.16.74.28.45-.12.52.05.51.37,2.22.27.46-.11.53,1.47,8.87.28.45-.08.78.16.99.29.45.12.49.2,1.23-.13.52.05.51.16.74.21.2.12.5-.08.79,2.56,5.16,1.35,2.21,1.31,1.25.85,1.16.58.44-.33.6,1.26,3.1.57,3.45-.11.78.86,2.41-.09,3.8.49,2.96.36.7-.07,2.55.16.74.21.2-.04.78.21.2.05.27.14,3.49.31.74,1.08,9.17.21.22.16.74-.08,4.07.16.74.29.45.2,1.23.23,7.16-.09,2.76-.44,3.28-.41,2.1-.55,1.89-.46,4.35.87,5.44.77,1.65-.11.78.19,1,2.5,4.88,1.27,1.75.99.84.62.33.52.58,1.88,1.35,1.74.68.8.48.91.23.45.31,1.43.58,3.39.92,2.53.23,1.2.34,7.52.74.51-.09.2-.21.27-.05,2.12.1.75.2,5.24-.16,1.23-.21.7-.36.52.12.5-.05.45-.29,1.23-.24.88.11,3.19-.03.75-.16.64-.54.99-.2,1.32.28,2.71-.45.45-.29.49-.12,5.92-.44.36.12,2.13-.78.54.12.7-.36,1.97-.33.78.11.99-.2.21-.21.52.09M84.42,335.03h-3.05s-1.48.25-1.48.25l-.7.36-.5.05-.52-.12-1.48.24-.7.36-1.23.21-2.1-.41-.99.2-.64.54-1.98.36-.51.05-2.81-.25-.7.36-1.24.17-.26-.13-.71.33-1.99.3-5.56-.08-3.8.14-2.83-.23-1.48-.33-5.39-.54-4-1.13-.47-.32-2-.79-1.11-.58-.26-.28-1.1-.26-.47-.54-2.18-1.57-.89-.86-.98-1.35-1.1-2.03-.74-1.71-1.49-4.51.04-1.27-.12-.49-.29-.45-.2-1.23.02-2.66.31-2.65.43-1.22.54-2.82.4-3.08.31-1.31-.26-.49.1-.91-.2-8.42-.13-.76-.29-.45-.33-1.97.06-1.16-.29-4.62-.29-.47-.12-.74.13-.52-.09-.75-.16-.74-.29-.45-.12-.74-1.76-16.93.05-1.02-.45-2.71-.29-.45-.2-.99-.24-1.48.12-.78-.2-1.23-1.56-3.54.29-.81-.49-.6-.44-.33-.51-.79-.43-.32-1.02-1.17-.81-1.43-.4-.46-.71-1.64-.39-.45-.81-1.93-1.97-9.04.09-.53-.09-.75-.33-1.97-.36-.7-.05-.51.13-.52-.69-4.19-.29-.47-.02-2.76-.26-.47-.2-.99-.48-8.68.17-2.14-.26-.47-.09-.51.37-3.32.73-3.12.72-2.37.48-.5.22-.9.52-.74.25-.64.58-.52,1.21-2.89.89-.76,1.68-1.9,1.93-1.2,1.76-1.55.54-.73,1.48-.86,1.24-1.13,2.94-1.62,2.22-1.45,2.17-.8.31-.42,1.48-.98,4.52-1.73,5.37-1.45,1.68-.71,1.97-.32.52.12.75-.09.74-.13.45-.29.74-.16,1.73-.28.78.11,2.22-.37.45-.29.74-.16.39.06.42.27.47-.24.53.11,1.48-.24.7-.36,1.23-.21,8.32-.14.74-.31.52.11,4.29-.2,7.74.22,4.25.55.64.26,2.78.45.22-.21.26-.04.65.43.53.17,2.46.46,2.3.78,2.7.4,1.07.34,1.86,1.11,1.18.42.56.52,1.05.63,1.18.42.46.32,2.28.99.63.67,1.47,2.72,1.56,3.69,1.94,7.38-.12.54.36,2.22.12.49.29.45,1.06,6.41-.12.78.28,1.73.12.49.29.45.25,1.48.05.51-.14.26.13,1,.12.49.29.45.49,2.96.5,6,.36.7.49,2.96.06,3.23-.27,2.86-.18.55.26.47.16.74-.16,2.05.36.7.37,2.22-.13.52.05.51.53,3.2.33.72v2.77s1.86,8.3,1.86,8.3l.49,2.96-.13.52.05.51.16.74.29.45.65,3.94-.12.78.41,2.46,1,2.92,1.36,5.28,1.28,3.11.2,1.23-.11.78,3.22,13.4.21,1.49-.34.55v.26s.62,3.7.62,3.7l.29.45.16.74.08.66-.37.49.32.62.2,1.23-.07,2.39-.22,1.65-.61,1.75-.33,1.69-.31.46-.55,1.97-.84,1.17-1.16,1.15-.94,1.48-.98.77-.87.9-.95,1.32-.51.4-2.04,1.35-3.8,2.87-1.97.94-.31.42-1.36,1-3.42,1.72-1.24.23-.79-.08-2.89,1.7-4.77,1.51-.83.4-3.46.6-.78-.11-1.72.28-.9.36M83.47,327.82h0l7.72-2,.78-.38,4.79-1.55,1.03.04,1.05-.68,3.74-1.29,3.3-1.35.9-.73,1.84-.72.29.12,1.95-.77,2.27-1.12,1.39-.29.32-.6,4.24-2.58,2.37-1.79,1.37-.65.7-.73,1.48-.87.12-.2-20.43-123.77-.18-.35-.28-.16-.43.48-1.81-1.24-4.25-1.72-.48.25-1.58-.72-2.29-.29-.58-.25-1.85-.19-3.87-.66-7.15-.58-2.81.03-1.36-.29-.22.21-.51.09-2.37-.09-.43-.14-.51.05-.45.29-.51.09-.62-.12-5.05.07-.41-.14-.48.24-.27-.11-.21.2-.74.16h-3.04s-.98.17-.98.17l-.71.33-.52-.12-5.42.89-6.42,1.56-1.6.52-.5.05-.52-.12-1,.19-1.83.99-.8-.05-3.47,1.46-.93.52-2.06.8-2.2,1.36-.28-.12-.27.04-1.81,1.33-1.78.92-2.62,1.84-1.09.58-.46.37-.47.65-1.48.87-.33.45-.79.51-.33.44-1.25,1.14-.58.81-.48,1.01.32.71-.12.52.05.51,19.97,120.8.12.49.25.2.38.02.14-.16-1.86-13.64,1.17.19.69.28,4.08.71,2.18.51,11.21.84.76-.1.71-.33.52.12,1.48-.24.72-.33,7.5-.52.49-.12.21-.21.78.08.7-.36,2.46-.41,2.55.08,2.71-.45.49-.12.21-.21.54.08,11.39-2.64.77-.34.75-.09.52.12,1.38-.47,6.48-1.56,2.45-.83,1.03-.52.75-.09.52.12.75-.15,2.97-1.49,2.2-.91,3.77-1.79,5.71-3.2.11-.46-.23-.6-.8-.34-.27.05-.29.51-1.29,1.04-2.45,1.39-3.83,1.96-2.84,1.11-2.72,1.45-1,.19-.52-.12-1.24.17-.51.39-.82.38-3.89,1.35-1.97.32-.52-.12-.5.05-6.5,2.08-2.71.45-.78-.11-1.23.2-6.78,1.88-6.02.28-.47.29-5.91.98-2.41.12-6.79.64-3.3-.11-6.66-.46-1.82-.43-.69-.28-2.19-.25-2.1-.44-.73-.51-1.17-.2-.18-.15-.12-.49-10.19-61.63.02-.6,85.05-14.1.51-.04.17.31,12.72,77.08-1.68,1.57-1.49.86-1.92,1.48-2.45,1.56-.29-.11-2.07,1.62-3.43,1.47-.59.41-4.01,1.4-.91.73-6.49,2.35-9.31,3.06-3.85,1.08-.52-.12-.75.09-1.68.53-1.73.28-.52-.12-.51.05-.74.16-.45.29-.75.09-.52-.12-.7.36-1.97.33-.78-.12-1.23.21-.7.36-2.07-.37-.49.25-.79-.3-.49.26-2.12-.08-1.21-.3-1.01.17-.22.21-1.92-.27-1.46-.36-.47.26-.78-.04-.22.21-2.23-.26-2.46-.66-.76.13-.22.21-1.68-.52-5.83-.92-.64-.26-1.67-.31-3.27-1.04-1.08-.88-.41.08-.27.38.08.51.87.77.75.41,3.73,1.15,1.49.2.57.21,5.41.78,1.15.42,2.9.14,1.41.41,3.96.03,2.35.21,4.69.09,1.78.24.22-.21.76-.13,1.56.43.52-.09.64-.54.26-.07,2.55.08.74-.16.21-.21.49-.12,3.2-.52.78.11M81.03,323.45h0l1.66-1.48.6-1.14.32-1,.21-1.27-.21-1.26-1.19-1.74-1.84-1.75-.82-.37-1.49-.41-1.26.21-.84.55-.14.33-1.22.66-.64.6-.43.6-.36.81-.37,1.75.37,2.25.9,1.54.66.89.6.43,1.33.52,2.23.08M79.88,322.83h0l-1.49.28-.53-.11-.21.2-.26.04-1.25-.53-.64-.59-.63-.99-.77-1.99.33-2.01.83-1.16.84-.55,3.3.37.84.37.44-.72.83.78.82,1.04.33,2-.45,1.25-.84,1.18M106.56,316.86h0l2.14-1.48,1.19-1.66.84-1.8.35-1.69-.32-1.73-.59-1.09-.72-.53-.45-.53-.3-.22-3.11-.91h-.27s-1.24.25-1.24.25l-1.49,1.15-.64.89-.74,1.64-.23,2.75.84,2.23.96,1.44,1.18.84.8.36,1.47.17M77.07,320.67h0l.6.4.68.24,1.35-.64.21-.3.48-1.01v-.26s-.37-1.98-.37-1.98l-.54-.61-2.98-.18-.31.12-.55.47-.24.96.04.28.93,1.77M106.76,315.35h0l-.48.33-1.98-.31-.61-.44-1.23-1.98-.41-2.49.25-.97.36-.81,1.28-1.66,2.15-.35,2.03.57.9.64.24.33.74,1.7-.31,1.68-.79,1.72-.64.89M48.74,324.15h0l1.23-.82.43-.61.9-3.09-.21-1.26-.59-1.09-.89-.85-1.65-1.16-2.24.37-.5.52.2.32-1.1.81-.44.61-.36,1.73.04.28.78,1.95.9,1.22.9.86,1.28.47M78.08,319.24h0l-.15.03M77.7,318.87h0l-.03-.14M47.7,323.3h0l-.73-.3-.58-.42-.63-.68-.84-1.47-.25-1.51.31-.75,1.28-.85.28.11.1-.09.16-.28-.48-.43.05-.09,1.24-.21,1.08.75,1.07,1,.25,1.5-.21,1.27-.32,1-.63.88-.84.55M105.45,313.15h0l.71.28.26-.02,1.06-.7.45-1.43v-.27s-.37-1.98-.37-1.98l-.5-.59-.59-.42-1.26-.45h-.26s-.31.13-.31.13l-.59.52-.45.95v.27s.25,1.24.25,1.24l.61,1.14M48.41,321.56h0l.69-1.57-.17-1.01-.48-.37-.71-.28-.77.13-.59.49-.34.5.34,2.14.94.53.51-.08M80.32,315.33h0l.15-.03M80.12,315.18h0l-.03-.14M106.18,310.36h0l-.03-.14M79.8,314.83h0l.03.14M79.6,314.68h0l-.31.14-.08-.07.31-.14M79.02,314.61h0l-.34.02-.52-.26.55-.13.37.28M105.76,309.86h0l.15-.03M72.78,301.85h0l1.1.2.52-.09,1.09-.6,1.85-1.34.66-.17.49-1.15.59-.48.27.12.51-.08.48-.62.59-.49.27.12.26-.04,2.12-2.01.51-1,1.41-1.38.54-1.95.85-1.8.35-2.53.27-5.62-.6-3.46-1.09-1.66-2.31-4.28-1.28-1.55-2.18-1.57-.48-.55-1.99-.79-1.32-.93-4.4-.27-2.91.03-.99.2-.45.29-1.03-.04-3.67,1.77-.28.74.54.43h.64s1.27-.83,1.27-.83l1.96-.92,2.23-.4,3.47-.12.69.19h2.62s.5.57.5.57l2.07.84,2.53,1.82.9.87.66.89,2.81,5.02.67,1.42.33,2-.26,5.29-.19,1.72-.33,1.38-.65,1.54-.39,1.43-.63.88-.59.53-.51.88-.79.92-.9.65-1.48.87-.27.34-.6.02-.12-.49.13-.52-.13-1-.38-.79-1.22-3.42-1.56-3.05-1.13-1.47-.39-.69-.96-2.03-1.34-1.55-1.01-2.06-.61-.65-.74-.54-.58-.79-1.06-2.33-1.62-1.39-.94-1.97-.34-.46-1.03-.75-.45-.53-1.65-1.16-.51.08-.43.86-1.91.87-.52.4-.54.74-.52.44-.28.68-.64.89-.55.48-1.61,4.04-.51,3.13-.16,3,.2,1.23.28.45-.08.78.32,1.74.74,1.33,1.16,2.92,2.42,4.08.6.65.68.28,1.67,1.19.3.09.51.48,2.46.91,1.05.52,2.53.49.49-.25,1.08.5,1.22-.38,1.04.26M71.7,300.96h0l-1.27.14-3.13-.2-.85-.25-1.04-.52-1.17-.2-1.09-.57-.75-.53-.64-.25-.8-.78-1.17-.63-1.07-1.41-.92-1.78-.74-1.07-1.26-3.36-.68-.95-.09-.52.22-1.29-.63-1.15-.09-.52.13-.67.1-2.21.47-2.98.31-.44.92-2.79.75-.76.28-.68.58-.81.8-.65.46-.78.35-.09,2.02,6.02.87,1.71,1.02,2.55,1.03,2,1.26,2.86.7,1.16.55.63,1.3,2.67,1.21,1.72,2.32,4.28.9,1.09.8,1.23v.6s-.77-.08-.77-.08l-.74.16-.21.2M74.89,300.08h0l-1.1-1.77-.9-1.09-1.99-3.82-1.55-2.19-1.34-2.91-.45-.33-.35-.47-1.08-2.57-1.52-2.84-2.54-6.43-.7-1.26.08-.79-.12-.5-.21-.22.16-1.48.36-.47,1.37.96.53.59.65.47.97,1.99.6.65.74.54.34.46,1.3,2.66.61.65.74.54.4.52.88,1.75.6.81.44.33,1.64,3.14,1.15,1.47,1.84,3.77.99,3.04.22,1.49-.31.78v.41s-1.39.91-1.39.91l-.3.7M99.49,283.33h0l.42-.62-.31-.39-.26-.12-3.4.03-.49.12-.21.21-.74.16-1.3-.26-1.25.18-.31.17.08.51.46.35,5.21-.19.74-.31M49.03,288.85h0l.17-.29-.48-.59-1-.27-2.73.42-.45.29-.49.11-.52-.12-.75.09-.35.18-.17.27.08.51.16.14,5.94-.53M90.28,275.53h0l1.72-.71,2.56-1.33.97-.67-.08-.27-.38-.27-1.25.2-2.74,1.65-.51.08-.26-.13-.26.04-.48.66v.26s.34.45.34.45M48.98,280.07h0l.07-.35-.12-.5-.47-.36-1.36-.34-2.03-.77-.58.18.12.75.48.37,1.88.69,1.75.37M86.73,265.64h0l1.41-1.96,1.19-1.06.27-.37.05-.38-.16-.31-.76.12-.59.5-.66.61-.75,1.03-.53.45-.68.95-.02.39.38.27.5-.05M53.95,269.54h0l.18-.28-.12-.75-2.96-3.22-.5-.34-.51.08-.27.38.04.26,2.45,2.44.82,1.23.76.3M77.74,261.81h0l.27-.38.54-1.35.57-2.03-.14-1.01-.18-.3-.62.52-.7,2.48-.37.82-.64.95.67.49M64.78,263.82h0l-.02-.88-.95-3.03-.51-1.28-.43-.27-.28.37v.26s.45,2.48.45,2.48l.85,2.21.22.29.22.14.26-.04M63.94,253.76h0l1.35-.62.28.13.51-.08.59-.5.83-1.16.28-2.52-.24-1.23-.29-.45-.05-.51.14-.26-.09-.75-.37-.61-1.02-.61-7.21.53h-1.77s-.75.15-.75.15l-1.08.58-.69,2.14-.22,1.24.32,1.73,1.09,1.89.68,1.78,3.72-.16.74-.16.45-.29,2.22-.37M41.26,257.51h0l2.1-.78.52.12.51-.08,1.14-.66,1-.13.79.3.37-.45.09-1.97-.26-.47-.13-.76.15-1.77-.91-2.54-.9-.31-.26.02-1.15.68-1.79-.17-.72.33-.75.09-.55-.33-.42.49-.25.07-.5.05-.27-.12-.22.19-.27-.11-.21.2-.49.11-.53-.11-.42.49-1.27.03-1.19,1.63-.32,1-.21,1.27.05.51.68,1.39.63.67.26,1.15,1.42.45.51-.09.21-.2.27.12.75-.09.46-.27.55.32.71-.33.5-.05M82.52,249.69h0l2.34-.79.28.13,1.01-.16,1.53-.9.67-.64.74-2.57-.18-1.25-1.2-2.67-.87-.89-1.11.41-1,.13-.52-.12-1.19.45-1.73.28-.52-.12-.51.05-.74.16-.21.2-.27-.12-.27.04-.77.37-2.5.84-1.23,1.72-.11,3.49.61,1.11.77,1.07,1.16.28,1.74-.26.46-.27.34.2,2.71-.03M63.7,252.6h0l-.53-.12-.71.33-2.96.49-.53-.11-.23.2-1.71-.21-.78-1.3-.57-1.31-.31-.25-.12-.49.34-2.01.23-.62.42-.58.6-.19.55.34.71-.33,1.72-.29.53.11.21-.2.53.08.46-.27.38.06.42.27.71-.32.52.12.75-.09.47-.28,1.19.48.58,3.36-.2,1.49-.59.97-.21-.1-.27.04-1.13.63M97.96,246.62h0l1.84-.73.21-.26.52.09.75-.12.25-.31,2.23-1.01.88-.92.37-.82.4-1.49-.26-.47-.09-.51.31-.79v-.27s-.33-1.73-.33-1.73l-.55-.3-.76-.67-3.47.12-2.22.37-.62.32-.44-.34-2.11.79-.53-.11-1.19,1.17-.45,1.7.05.51.21,1.23.38.5.99,3.53.37.37,1.17.27.22-.21.52.09.48-.25M43.79,255.52h0l-.39-.06-.7.36-2.96.49-.78-.11-.46.27-.27-.11-.46.27-.75.09.03-.35-.49-.59-.67-.36-.52-.52-.25-1.5.45-1.25.79-1.05.27.12.47-.24.27.11.42-.48.53.08.21-.2.49-.12.75-.09.52.12.46-.27.27.12.75-.09.7-.36,1.79.17.51-.06.86-.58.68,1.47.13,1-.13.52.37,2.32-2.49.91M81.22,248.63h0l-2.51-.24-.22.21-1,.17-.35-.22-1.17-.2-.36-.26-.18-.35-.3-1.99.21-1.22.36-.51.43-.35,2.86-1.2.52.11.21-.2,1.23-.24.52.12.71-.32.52.12.5-.05.7-.36.5-.05.52.12.45-.28.49-.11.66.15,1.05,1.96.28,1.49-.06.38-.61,1.45-1.03.82-.75.15-.79-.08-2.61.87M98.87,245.2h0l-1.71-.12-.72.33-.52-.12-.61.06-1.14-3.72-.26-.21-.07-.25-.05-.51.41-1.5.38-.3,1.41-.68.54.08.22-.19.53.11,1.23-.2,1.19-.45.39.06.42.27h.26s1.72-.3,1.72-.3l.46-.27.13.05,1.16,1.07.05.27-.43,1.56.39,1.23-.28.72-.82,1.15-2.08.79-.21.26-1.27.03M41.04,254.5h0l.59-.52.28-.42-.15-.36-.28-.17-.71.33-1.23.21-1.33-.28-.47.7.77.58.97.25M58.6,250.6h0l4.22-1.17.31-.61-.61-.29h-.27s-.99.21-.99.21l-.21.21-.49.12-1.73.28-.52-.12-.41.06-.32.65.29.37M80.35,245.74h0l1.92-.89.68-.48-.12-.63-.35-.06-.99.19-.42.32-1.67.75-1,.13-.62-.28-.45.61.18.36.56.38M100.37,241.69h0l.32-.08.84-.57.03-.39-.38-.27-3.23.53-.84.55-.12.21.14.36.28.17,1-.13.46-.27.52.11.45-.28M26.17,244.63h0l-.6.1-7.72-43.67,1.36-1.96.59-.53.48-.65,2.6-1.82.93-1.01,2.23-1.28,1.42-1.11,1.77-.92.58-.5,2.34-1.06,1.69-1.09,8.39-3.35,1.74-.31.79.08,5.05-1.56.98-.16.79.08,4.84-1.27,2.05.12,1.17-.63,3.8.06.47-.29,1-.14h4.56s7.18-.19,7.18-.19l.55.15,2.75.07.41.14.74-.3.5.16,1.81.22,5.7.5,1.5.32,1.9.15,1.11.42,1.93.3,1.12.41,1.51.17,3.26,1.47,2.48,1.66,7.08,42.65M99.54,225.9h0l.41-.26.24-1.24-4.56-27.61-.12-.49-.38-.27-66.57,10.97-.5.12-.71.53.44.37-.49,1.08v.27s4.41,26.62,4.41,26.62l.18.35.37.26.97.25M33.87,235.97h0l-.7.11-.15-.14-5.11-27.69.06-.11,66.07-10.96.6.02,4.58,27.46M54.54,230.49h0l.56-.48.28-.71-.09-.52-.81-.81-.71-.28-.51.09-.37.48-.28.72.17,1.01.29.36.66.33M65.84,228.36h0l.75-.57.33-.65-.02-.26-.18-.35-1.14-.79-1.5.24-1.69.71-.64.39-.48.71.21.4,2.75.06,1.27.2M48.43,230.8h0l.35-.17.26-.36.1-.93-.18-5.32-.19-.99-.53-.84-.56-.61-.27-.17h-.26s-1.3.92-1.3.92l-.22.31-.34,1.05-.22,1.24.48,2.72,1.23,1.98.84.83.56.38M81.59,224.54h0l.6-.5.53-.79-1.29-.75-1.25-.43-.23.19-.27-.12-.27.04-1.14.61-2,1.33-.12.21.08.5.17.15,1.97.09.23-.2.53.11M60.94,227.61h0l.27-.37.47-1.51.19-1.56-.18-1.25-.71-1.66-.67-1.07-.42-.42-.66-.33-.27.05-.15.18-.11.97-.07,3.53.09.51.2.21-.11.53.2,1.23.62,1.1.2.12.75-.09M68.69,226.16h0l.37-.48.39-1.76-1.01-5.92-.55-.84-.46-.11-1.6,1.01-.16.22-.2,1.49.81,4.69.94,1.55.71.28M80.17,223.5h0l-.59.02.56-.18M75.74,223.65h0l.48-.68.13-.42.19-1.56-.14-1-.88-2.59-.76-.52-.27.04-.58.49-.16.46-.19,1.56.1.76,1,3.33.48.32M83.71,221.31h0l.73-1.02.06-.38-.85-4.94-.5-.59-.5-.34-.36.15-.47.67-.21.59-.3,1.01-.27,2.23.77,2.11,1.05.73.5-.05M64.61,217.94h0l1.48-.85.68-.65.4-1.49-.15-.37-.28-.17-3.96.65-.64.54-.9.21-.74,1.23.06.42,2.25.82M79.36,215.25h0l2.24-1,.33-.49v-.26s-.12-.49-.12-.49l-.18-.15-1.06-.32-1.49-.17-4.39,1.98-.32.65.48.38,1.49.41M79.02,213.99h0l.15-.03M47.61,218.92h0l.35-1.27.13-1.83-.58-3.72-.98-1.78-.22-.14-.75.09-.4.26-.21,2.73.87,5.44.18.35.28.17,1-.13M59.78,216.73h0l.37-.28.25-.53.52-2.24-.48-2.72-.96-1.78-.79-1.32h-.1s-.69.15-.69.15l-.11.23.26,4.91.44,2.47.5.59M83.42,212.61h0l.41-.56.64-1.71.13-2.1-.15-.75-.83-2.25-.36-.57-.5-.36,1.2-.64.49-.71-.08-.51-.17-.15-4.8-.38-3.26,1.46-.53.77.12.75.38.27.96-.37,2.06.16,1.23-.24.45-.29.98-.16.34.07-.39.92-.12.68-.28,2.32.05.51.4,2.23.9,1.52.22.14M75.31,213.63h0l.56-.48.27-1.1.04-2.67-.33-1.97-.13-.31-1-1.15-.27-.17-.75.09-.4.25-.21,2.74.14,1.01.27.46-.12.27.04.26.2.21-.12.27.09.75.74,1.31.65.33M69.1,214.11h0l.27-.38.21-.6.38-1.65.14-1.83-.18-1.25-.68-1.4-.62-.84-.3-.22-1.49-.19-.35.18-.26.37-.29,2.24.46,2.98.71,1.66.67,1.07.22.13h.26M64.87,206.95h0l.59-.86-.12-.75-.46-.35-2.22-.05-1.01.17-1.24,1.11-.34.5.06.41,1.18.49,3.22-.5M72.4,197.35h0l.18-.28-.04-.26-.38-.27-.51.05-43.88,7.26-.5.12-.48.47.49.48.41-.04,44.13-7.3"/><path class="cls-2" d="M131.16,287.68h0l.26-.2.82-1.33.22-.9.57-.51.55-1.96.68-1.26.39-1.43.32-.47.21-.59,1.08-3.92.3-1.98.44-1.19.3-1.97.67-2.63.27-1.96.38-1.64.13-2.68.41-1.74.15-1.9.52-1.78.26-2.27.59-2.63.49-.98.48-2.47.48-.99.58-1.71.73-1.04.31-.72,2.85-3.97,1.04-.85.99-1.39.25-.64.55-.48.37-.67.68-.79,1.04-2.04.5-.55.34-.92,1.16-1.97v-.42s.67-.79.67-.79l.9-2.16.79-4.31.13-1.83-.13-.76-.5-.41-.09-.51.69-2.82.63-1.77.32-1.68.57-1.95.19-1.28.9-3.01.49-2.23.46-1.23.79-3.54.28-.69.82-3.29.94-2.77.31-1.66.43-.91,1.06-.59.14-.46.41-4.58.42-2.06.42-.59,1.15-1.01.5-1.33-.08-.52-.74-1.68-.58-.61-.07-.25-.66-6.98-.19-.35-.92-.34-.03-.12.12-6.88-.2-.99-.39-.27-.37.5-.13.7-.18,7.41-.19-.11-.42.06-.21.46-.54,3.48-.41,1.42-.19,1.22-.24.47-2.6,1.39-.55,2.3.33,1.99.79.61.17,1-.8,1.46-.24.98.21.22.05.27-.27.84-.2-.1-.26.04-.15.17-.51,2.23-.28.68-.32,1.94-.92,2.82-.83,4.14-.33,2.44-.06,2.5-.48,2.34-.44,4.07-.54,2.49-.53,3.88-.03,2.66.2.99.21.22-.43,2.78-.67,1.84-.34,1.36-.36.81-1.09,1.53-.25.19-.88,1.7-.58.81-1.24,1.13-.28.68-.43.6-1.56,1.59-.31.72-.73,1.04-.26.64-.85,1.22.08.51.38.27.36-.15.67-.76.77-1.41.48-.51.3-.72.79-1.1,1.16-1.15.73-1.19.75-.58,1.04-1.62.26-.64,2.16-3.03.35-1.68.28-.26.98-4.4,1.17.72.13.65-.49,1.83-.18,1.6-.19.51-.46.65-.2,1.17-.72,1.02-1,2.29-.58,1.11-.31.27-.62,1.05-.51,1.18-.52.55-1.76,2.46-.33.75-1.22.81-.28.67-.55.48-.37.67-.73.85-.1.3-.63.71-.67,1.24-.82.84-.34,1.67-.37.83-.64.94.25.48-.36,1.75-.31.46-.34,1.06-.56,2.58-.27,2.28-.37,1.32-.26,2.26-.36,1.56-.17,2.83-.38,1.68-.42,2.78-.56,1.91-.21,1.57-.38,1.09-.46,2.54-.91,3.37-.53,1.06-.39,1.43-.68,1.26-.38,1.43-.58.52-.41,1.16-.58.52-.48,1,.05.39.91.3M130.96,280.36h0l.64-1.2,1.04-3.56.31-.45.78-5.87.63-6.86.07-2.24.32-1.42.15-1.9.37-1.29.3-1.98.45-1.23.48-2.47.22-.35v-.42s.46-.5.46-.5l.34-1.67.26-.54.68-.79.79-2,2.49-3.52-.05-.51-.17-.31-.51.08-1.09,1.48-.59.53-.37.53-.31.72-.68.96-.63,1.47-.53.75-1.39,3.77-.34,1.69-.74,2.48-.29,1.98-.24.89-.47,3.36-.69,9.03-.82,5.6-.31.76-.78,2.89-.61,1.49.13.76.35.05M127.28,272.12h0l-.05-.78.96-6.8.48-5.59.24-.59.65-4.58.52-2.49,1.24-3.57.53-.76.58-1.71.52-.74.39-1.43.53-.75.26-.65,1.14-1.61.31-.72.37-.51.78-.5.64-1.48.81-.54.11-.21-.28-.37-.66-.33-.27.05-.36.29-.69,1.43-.95.73-.43.71-.46,1.12-.43.61-.55.48-.62,1.46-.32.47-.39,1.43-.72,1.02-.27.98-.64,1.21-.42,1.18-.31.45-1.2,4.9-.49,4.13-.25.63-.14,1.14-.34,4.48-.39,2.33-.21.55-.2.04.04-.78-.28-.45-.2-1.23-.09-3.51.08-1.05-.28-.45-.17-1.01.36-1.42.44-.97-.08-.51-.21-.22.2-1.28.44-1.47.89-1.87,1.09-3.32.32-.47.76-2.26.52-.74,1.61-3.15.53-.75.31-.89.89-1.08.31-.72.89-1.25.99-1.68.31-.72.38-.52.55-.48.62-1.46.94-1.33.41-1.17.58-.52,1.16-2.81.52-.74.35-1.68.46-.9.38-2.11.36-.15.55.32.22-.19.09.06.21,1.25-.5,2.59-.43,1.16-.35,1.69-.31.46-.79,2-.89.98.13.75.35.06.5-.11.81-.81.96-2.53.32-.47.17-.52,1.1-4.91-.13-1.17.46-.49.43-5.45.18-7.09.39-3.45.4-1.71,1.05-9.04.17-2.8.29-1.25-.14-1.15.71-.56.03-3.99-.16-.74-.21-.2-.12-.5.12-.78-.28-1.87.92-.85.82-2.07-.09-.52-.92-1.54-.38-.15-.52-.52-.11-.5.21-1.54-.13-.76-.21-.2-.05-.27.28-1.22-.17-8.39-.13-.76-.38-.27-.51.08-.26.38.2.23.14,4.99-.17,1.75-2.31.81-.2,2.8-.54,2.79.02.38-1.25.71-.69.95-.52.44-.43,1.53.71,1.85,1.04.54.15.37-1.13,4.03-.15,2.07.02,2.86-.22,3.24-.28,2.07-.17,5.84-.14,1.12-.04,6.11.11,5.11.47,7.15-.19,1.64-.62,1.45-.2,1.22-.52.73-.79,2-.94,1.33-.42,1.17-1.14,1.62-.31.72-.73.72-.62,1.46-.94,1.33-.26.65-.31.27-1.45,2.2-.63,1.47-.46.82-.48.51-.42,1.17-1.1,1.86-.75,2.24-.32.47-.7,1.89-.39,1.43-.68,1.28-.68,2.15-.23,2.54-.3,1.31.27,6.24.52,2.96,1.03.45.04.12.09.77-.21.34-.09,1.97.21,1.25.38.27M139.48,234.17h0l.59-.52.37-.53.28-.72-.05-.51-.17-.31-.51.08-.98,1.34-.25.88M154.07,217.57h0l-.45-.05-.21.2-.38-.26-.25-1.5.58-3.62.62-2.84.43-4.37.75-3.46-.26-.47-.09-.51.3-1.28.17-1.6.41-2.05.7-2.43.2-1.27.32-1,.31-.45.16-1.42.3-.42.16-1.42.8-.79,1.5-.25.37.23,1.68.35.17.17-.24.97-.31.45-.21.61-.45,2.12-.32.46-1.29,5.14-.28.69-.81,3.54-.48,1.3-.45,2.14-.46,1.24-.78,3.52-.46,1.25-.3,1.97-.61,1.7M143.73,218.85h0l-.99.16-.39-.06-.25-.2-.17-1.01-.24-5.16-.13-7.33.13-3.65.16-1.2.16-5.89.21-1.17.14-3,.27-1.51,1.34-.65.78.11.49-.11.21-.2.52.11.71-.32.18.58-.31,2.72-.08,2.24-1.01,8.86-.41,1.43-.43,3.54-.39,10.75-.18.79M162.54,185.57h0l-.52.09-3.2-.63.16-1.43.52-.74.13-.42.28-1.94.55-1.7.4-.26,1-.13.27.12.21-.2.27-.05.91.46.15,3.46-.19,1.03-.06,2.05-.15.16-.27-.12-.26.04M146.53,186.7h0l-.52.08-.27-.12-.46.27-2.46.41-.35-.06-.05-.27.15-1.83.72-3.04.26-.64.21-1.26.44-.88.21-1.21.2-.28,1.09-.59.27-.04.71.72.07.26.05.5-.12.52.28.45.24,1.23.17,4.03.16,1M164.7,179.31h0l-.13-.76.13-.26-.04-.26-.28-.34-1-.38-1.72-.14-1.01.14-.45.28-.53-.08-.38.48-.37,1.55-.31-.24-.05-.27.32-1.98,1.04-1.09.27.12,1.01-.16.64-.54,1.83.13,1.22.28.79.81-.11.28.2.21.17,1-.16.44-.98.84M142.86,178.95h0l-.29.07-.58-.75-.05-.28.29-.91.72-1.1.53.08,1.36-.9.28.13,1.41-.17.69.58.64-.05.59.75.09.52-.28.72-.28.23-.71-1.24-.25-.17-2.47-.24-.51.09-.37.48M164.32,174.4h0l-.43-.21-1.86-.16-.06-.35.02-.33.36-.81.5-2.53-.05-.67.51-.52.26-.07.35.05.28,1.48M146.33,174.08h0l-.64.1-.89-.31-.02-.14.74-4.53,1.12-.16.14.33-.12.58v3.07M163.88,167.61h0l-.34-.02.31-.14M163.13,167.73h0l-.03-.14"/><polygon class="cls-10" points="369.17 187.42 416.37 182.19 419 202.14 407.2 204.49 429.48 225.87 450.39 196.5 436.63 198.44 434.8 180.54 480.82 173.02 482.8 190.91 470.45 193.05 445.04 236.34 446.73 292.57 462.92 289.92 463.56 310.45 401.24 319.16 399.86 298.98 417.23 296.5 415.42 241.17 383.39 206.35 370.85 208.56 369.17 187.42"/><polygon class="cls-1" points="369.17 187.42 377.61 186.49 428.3 238.02 430.85 314.89 401.24 319.16 399.86 298.98 417.23 296.5 415.67 240.5 383.39 206.35 370.85 208.56 369.17 187.42"/><path class="cls-5" d="M401.22,319.41s-.09-.02-.13-.05c-.05-.04-.09-.11-.09-.18l-1.38-20.18c0-.13.09-.25.22-.27l17.15-2.45-1.55-55.68-32.12-33.98-12.41,2.18c-.07.01-.14,0-.2-.05-.06-.04-.09-.11-.1-.18l-1.68-21.13c-.01-.14.09-.25.22-.27l8.44-.94c.08,0,.15.02.21.07l50.69,51.54s.07.1.07.17l2.56,76.86c0,.13-.09.24-.22.26l-29.61,4.27s-.04,0-.06,0ZM400.13,299.2l1.35,19.68,29.12-4.2-2.55-76.54-50.53-51.38-8.08.9,1.64,20.62,12.27-2.16c.08-.01.17.01.23.07l32.28,34.15s.07.1.07.17l1.56,56c0,.13-.09.24-.22.26l-17.14,2.45Z"/><polygon class="cls-8" points="383.31 185.86 382.85 202.2 401.87 200.36 400.53 183.95 383.31 185.86"/><path class="cls-5" d="M382.83,202.33s-.05-.01-.07-.03c-.03-.02-.04-.06-.04-.1l.46-16.34c0-.06.05-.11.11-.12l17.23-1.91s.07,0,.09.03.04.05.05.09l1.34,16.41c0,.07-.04.13-.11.14l-19.02,1.84s-.02,0-.03,0ZM383.43,185.97l-.45,16.09,18.76-1.82-1.32-16.16-16.99,1.88Z"/><path class="cls-7" d="M417.83,304.08l1.12,7.01,33.61-3.55s.92-4.43.06-8.82l-34.8,5.36Z"/><path class="cls-5" d="M418.94,311.21c-.06,0-.1-.05-.11-.11l-1.12-7.01s0-.07.02-.09c.02-.03.05-.05.08-.05l34.8-5.36c.07-.01.13.03.14.1.85,4.37-.06,8.83-.06,8.87-.01.05-.06.09-.11.1l-33.61,3.55s-.02,0-.03,0ZM417.97,304.18l1.08,6.77,33.4-3.53c.12-.64.81-4.62.07-8.56l-34.56,5.32Z"/><polygon class="cls-7" points="383.84 180.71 384.68 185.51 400.53 183.95 399.84 178.3 383.84 180.71"/><path class="cls-5" d="M384.67,185.63c-.05,0-.1-.05-.11-.1l-.84-4.8s0-.07.02-.1c.02-.03.05-.05.08-.05l16-2.41s.07,0,.09.02c.03.02.04.05.05.08l.69,5.64s0,.07-.03.09c-.02.03-.05.04-.09.05l-15.85,1.56s-.02,0-.03,0ZM383.99,180.82l.8,4.55,15.61-1.54-.66-5.39-15.74,2.37Z"/><path class="cls-1" d="M456.16,189.62s3.12,5.89,7.83,5.6c0,0,7.51-5.53,8.34-10.44,0,0-3.85-6.61-8.28-5.18l-7.89,10.01Z"/><path class="cls-5" d="M463.09,195.32c-4.23-.44-7.01-5.59-7.04-5.65-.02-.04-.02-.1.01-.14l7.89-10.01s.04-.03.06-.04c1.86-.6,3.91.12,5.93,2.08,1.51,1.47,2.49,3.13,2.5,3.15.01.03.02.06.02.08-.35,2.06-1.86,4.46-4.51,7.13-1.97,1.98-3.85,3.38-3.87,3.39-.02.01-.04.02-.07.02-.31.02-.62.01-.91-.02ZM456.31,189.63c.37.66,3.36,5.7,7.64,5.47.51-.39,7.43-5.65,8.25-10.29-.33-.54-3.98-6.37-8.07-5.09l-7.82,9.92Z"/><path class="cls-8" d="M453.79,201.4l-6.76,7.97,5.64,2.76,5.99-6.22s-2.1-3.79-4.88-4.5Z"/><path class="cls-5" d="M452.66,212.25s-.03,0-.04-.01l-5.64-2.76s-.06-.05-.07-.09c0-.04,0-.08.03-.11l6.76-7.97s.08-.05.13-.04c2.8.72,4.87,4.41,4.95,4.56.03.05.02.11-.02.15l-5.99,6.22s-.07.04-.1.04ZM447.23,209.32l5.41,2.65,5.87-6.09c-.32-.54-2.24-3.66-4.68-4.34l-6.6,7.78Z"/><polygon class="cls-7" points="436.75 223.2 440.42 217.41 448.76 224.26 443.97 229.62 436.75 223.2"/><path class="cls-5" d="M443.96,229.74s-.05-.01-.07-.03l-7.22-6.42s-.06-.11-.02-.16l3.67-5.79s.05-.05.09-.06c.04,0,.07,0,.1.03l8.34,6.85s.04.05.05.09,0,.07-.03.09l-4.79,5.36s-.07.05-.11.04ZM436.91,223.18l7.05,6.26,4.62-5.17-8.13-6.68-3.54,5.58Z"/><path class="cls-7" d="M400.17,218.94l.35-1.2,9.3-7.8,4.42,5.46s.19.89-9.31,8.59l-4.75-5.05Z"/><path class="cls-5" d="M404.91,224.12s-.06-.02-.08-.04l-4.75-5.05s-.04-.08-.03-.12l.35-1.2s.02-.05.04-.06l9.3-7.8s.06-.03.09-.03h0s.06.02.08.05l4.42,5.46s.02.03.03.05c.03.16-.25,1.34-9.36,8.71-.03.02-.06.03-.09.03ZM400.31,218.9l4.62,4.92c8.39-6.8,9.12-8.22,9.17-8.38l-4.31-5.33-9.17,7.69-.32,1.1Z"/><polygon class="cls-8" points="409.07 226.84 417.58 218.74 422.64 223.76 412.89 231.09 409.07 226.84"/><path class="cls-5" d="M412.87,231.21s-.06-.02-.08-.04l-3.81-4.25c-.05-.05-.04-.13,0-.17l8.51-8.1s.13-.05.18,0l5.06,5.02s.04.06.04.1c0,.04-.02.07-.05.09l-9.75,7.33s-.06.03-.09.02ZM409.25,226.84l3.66,4.07,9.54-7.17-4.87-4.83-8.33,7.93Z"/><polygon class="cls-7" points="420.47 257.72 426.82 255.77 427.69 261.49 422.19 263.68 420.47 257.72"/><path class="cls-5" d="M422.17,263.81s-.03,0-.04-.01c-.03-.02-.06-.04-.07-.08l-1.72-5.96c-.02-.07.02-.13.08-.15l6.35-1.95s.07,0,.1.01c.03.02.05.05.06.09l.87,5.72c0,.06-.02.11-.08.14l-5.51,2.19s-.04.01-.06,0ZM420.62,257.81l1.65,5.71,5.29-2.1-.83-5.48-6.1,1.87Z"/><path class="cls-8" d="M431.03,255.52l1.16,4.82,5.66-.98-.62-5.63s-3.29-1.48-6.2,1.78Z"/><path class="cls-5" d="M432.17,260.47c-.05,0-.1-.04-.11-.1l-1.16-4.82s0-.08.03-.11c1.53-1.72,3.17-2.12,4.28-2.16,1.2-.04,2.03.33,2.07.34.04.02.07.06.07.1l.62,5.63c0,.07-.04.13-.1.14l-5.66.98s-.02,0-.03,0ZM431.16,255.56l1.12,4.65,5.43-.94-.6-5.44c-.48-.19-3.34-1.15-5.95,1.73Z"/><path class="cls-8" d="M417.89,276.06l2.33,5.16,3.58-.05s2.16.23-.4-8.31l-5.51,3.21Z"/><path class="cls-5" d="M420.2,281.34s-.08-.03-.1-.07l-2.33-5.16c-.03-.06,0-.13.05-.16l5.51-3.21s.07-.02.11,0c.04.01.06.04.07.08,1.67,5.58,1.37,7.53.83,8.19-.26.31-.55.29-.56.29h0l-3.57.06s-.01,0-.01,0ZM418.05,276.11l2.25,4.98,3.5-.05s.19,0,.37-.21c.4-.5.82-2.18-.84-7.79l-5.27,3.07Z"/><path class="cls-7" d="M426.02,273.54l1.25,5.69s5.99.59,6.14-1.56c0,0,.93-7.4-3.48-6.15l-3.91,2.02Z"/><path class="cls-5" d="M427.26,279.36c-.05,0-.1-.05-.11-.1l-1.25-5.69c-.01-.06.01-.11.07-.14l3.91-2.02c1.02-.29,1.83-.17,2.45.36,1.75,1.5,1.24,5.74,1.22,5.92-.02.34-.18.64-.48.89-1.43,1.21-5.62.81-5.8.79h0ZM426.16,273.61l1.21,5.51c.62.05,4.29.31,5.52-.74.24-.2.37-.44.39-.72,0-.05.52-4.29-1.13-5.7-.55-.47-1.28-.58-2.19-.32l-3.8,1.96Z"/><path class="cls-8" d="M435.42,271.1l.12,5.53s4.35,1.04,5.23.08,2.13-6.61-1.3-6.48l-4.05.86Z"/><path class="cls-5" d="M437.98,277.18c-1.23-.13-2.38-.4-2.47-.42-.06-.01-.1-.06-.1-.12l-.12-5.53c0-.06.04-.11.1-.13l4.05-.86c1-.04,1.71.38,2.1,1.21.77,1.67.01,4.74-.67,5.48-.45.49-1.7.5-2.88.38ZM435.66,276.54c1.26.29,4.35.82,5.02.1.55-.6,1.39-3.56.63-5.2-.34-.74-.96-1.1-1.84-1.07l-3.92.84.11,5.33Z"/><path class="cls-10" d="M462.65,184.85l-1.72,2.12s1.18,3.61,3.23,3.89,3.05-1.81,3.05-1.81c0,0-1.67-1.2-2.72-1.37s-1.84-2.83-1.84-2.83Z"/><polygon class="cls-10" points="403.98 218.11 409.8 213.58 411.01 215.71 405.66 219.77 403.98 218.11"/><polygon class="cls-1" points="440.39 220.53 439.55 221.8 442.48 225.53 444.8 224.84 440.39 220.53"/><polygon class="cls-1" points="413.42 225.9 417.87 221.52 418.94 224.05 413.96 227.95 413.42 225.9"/><path class="cls-1" d="M452.16,203.69s-4.77,2.43-1.95,5.72c2.82,3.28,6.29-1.91,6.29-1.91,0,0,.88-4.62-4.34-3.81Z"/><path class="cls-1" d="M434.85,255.22s1.96.59,1.65,1.79-1.82,2-1.82,2c0,0-1.14-.02-1.13-1.07s-.08-1.55,1.29-2.72Z"/><path class="cls-10" d="M424.54,260.51s-1.94-.39-1-3.53,2.61.84,2.61.84c0,0,1.41,2.05-1.61,2.69Z"/><path class="cls-8" d="M430.46,274.07s-2.49-.68-1.87,1.37c.62,2.05,1.64,1.86,2.67,1.26s.41-2.7-.8-2.63Z"/><path class="cls-5" d="M429.95,277.23c-.1-.01-.21-.04-.31-.08-.5-.2-.88-.74-1.16-1.67-.18-.59-.13-1.03.15-1.31.52-.54,1.68-.27,1.86-.22.69-.02,1.17.57,1.35,1.17.18.6.09,1.36-.5,1.7-.4.23-.89.47-1.38.42ZM429.93,274.1c-.38-.04-.87-.03-1.13.24-.21.21-.23.57-.08,1.06.26.85.59,1.34,1.01,1.51.37.15.83.05,1.47-.32.47-.27.53-.91.38-1.41-.15-.51-.56-1.01-1.12-.99-.01,0-.03,0-.04,0,0,0-.22-.06-.5-.09Z"/><path class="cls-10" d="M422.7,274.97l-2.02,1.79s.79,1.77,1.06,1.9,1.49,1.2,1.89-1.7c.4-2.9-.93-1.99-.93-1.99Z"/><path class="cls-1" d="M437.45,272.42s1.57-.13,2.05.97-1.68,1.54-1.68,1.54c0,0-2.38-.33-.37-2.51Z"/><path class="cls-2" d="M400.1,319.91h0l60.58-8.65,1.61-.39.19-.17.06-.38-.82-.58.39-.35.02-.15-.94-1.03-.76-1.37-.92-.09-.93.39-.91,1.91-.51-2.01-.59.35-.17,1.67.39.95.41.53-2.16.48-.39-.02-.67-2.64-.71-.74.22-.4.19-6.42-.07-.49-.66-1.97-.37-.17-1.02-.07-1.3.4-3.43.46-4.59,1.17-4.61.14-2.78.82-.52-.02-.47-.26-.77-.08-1.45.57-3.6.32-1.59.45-3.31.31-1.01.25-2.19.21-2.53.76-.17.36-.13,1.52.97,2.77.32,3.35.38.44.25.06,1.54-.29.23.19.27.03.77-.34.24.18.27-.12.24.19,1.95-.28,3.33-.15.96-.27.95-.48.23.19.77.08,1.29-.55h.27s1,.14,1,.14l.23.19,1.07-.4,3.56-.54.23.2,1.25.17,2.37-.2.96-.21,1.12-.44,4.48-.44,1.61-.32,2.34-.8h.38s.43,2.63.43,2.63l.29.56-1.59.39-31.91,4.6-.42-.04-.76-1.37-.17-.18-.27-.03-.59.33.52,1.26-.16.18-1.22.28-.44-.78-.42-1.35-.4-.44-.64.51-.03.27.51,1.72-1.64.51-.54-.03-.41-1.38.71-.47.3-2.5.05-.77-.15-.81-.13-2.94-.46-3.18-1.31-2.1-.63-.16-.85.44-6.15,1.53-.23-.19-.52-.06-1.73.48-.81.71-.54-3.95-.34-.61-.65.51-.06.52,1.07,16.02-.08.63-.9.39-.37.35.13.21M402.99,318.29h0l-.26.15-.76-.08-.3-.36.04-.63,1.15-.38.36-.28,1.17-.27.29,1.09-.03.4-.89.37M406.97,317.78h0l-1.12.21-.47-1.3-.4-.29,1.26-.32.28-.19,1.14.1.58,1.17-.03.26-.17.16M410.69,317.29h0l-.52-.02-.26.15-.51-.05-.4-.46-.3-.66,2.32-.39.33-.22.23.18.19-.1.26,1.29M402.25,315.86h0l-.41-.03-.2-.59-.59-8.35,1.57-1.14.36-.14,2.74-.34,2.58-.49,2.69-.8.34-.22.99,1.67.27,1.55-.19.25.4,1.09.11,3.25-.29,2.5-.17.16-2.52.66-.77-.09-.23-.2-1.54.29-.74-.29-.49.19-3.06.61M404.43,314.07h0l1.02.11.54-.36.23.19.52.06.42-.17,2.33-.21.43-.38.03-.27-.68-2.26-.16-.18-.51-.05-.17.24-.46.24-3.7.73-.19.18-.11,1.02.31.96M406.61,312.57h0l.32.15-.08.08-.51-.02-.31-.15M408.4,312.49h0l-.28.18-.27-.3.59-.33.06.35M405.37,310.61h0l3.76-.77.46-.61.19-1.51-.04-.34-.35-.71-.36-.16-.52-.03-2.12.81-2.53.44-.14.38.29,1.21.81,1.25M419.57,310.88h0l-.56-3.93-.63-1.35.11-1.02.18-.17,2.2-.51,6.94-.94.63-.3,1.47-.25.24.2,1.02.11,1.82-.75,1.02.08.74.29,3.24-1,4.73-.16,3.61-.93,1.73-.33,2.79-.32.85-.22.38.14.27.61.44,2.24-.42,4-.25.43-1.04.41-1.74.45-.23-.19-.26-.03-.6.45-3.33.23-1.19.21-1.25.44-5.32.18-5.06.48-1.16.37-.52-.02-.47-.26-.51-.05-.16.23-1.44.79-.52-.06-.23-.19-.78.33-.23-.19-.52-.06M405.45,309.37h0l-.32-.49,3.24-1.13.3.37-.45.62-.64.28M405.33,312.74h0v.15M405.61,312.52h0v.15M455.33,310.53h0l.52.05.18-.57-.3-1.81-.35-.37-.65.52-.09.5.31,1.23M463.74,311.08h0l.25-.22.16-1.52-.62-17.43-.39-.42-.48.35-.53.88-.78.86-.58.47-1.15.49-.19.17-.06.27,1.11.67-.8.43-.46.61.05.39.45.51,1.17-.9,1.44-.48.31.84-.03.27-.74.62-.46.18-1.26.29-.5-.22-.13.06-.8.67-.05.51.3.36.51.05.15-.2,1.85-.48.88-.46.33.11-.11,1.37-2.6.43-.47.4-.06.27.55.63,1.35-.62,1.27-.28.09.35-.09.86-1.9.28-.25-.2-.96.3-.17.17-.03.26.29.36,1.25.17,1.67-.31.34,1.39-.11,1.02-.2-.03-1.28-.98-.51-.09-.88.03-.24.22-.05.51.13.19,2.11.89.52.05.37-.16.33,4.02.2.69.38.13M457.62,310.52h0v-.18s.66-.44.66-.44l.65.38-.8.3M461.21,310.13h-.78s-.52.16-.52.16l-.57-.17.21-.49-.56-1.07.54-.8.31.21.59,1.16.87.78M407.13,312.58h0v-.16s.33.12.33.12M402.89,303.45h0l.25.04.52-.44.06-.52-.43-2.24-.39-.43-.37.28-.14,1M404.78,302.39h0l.36.17.6-.05.06-.51-.15-.51.32-.72-.05-.6-.51-.06-.27.19-.71,1.05-.05.52M407.96,302.06h0l.67.08.49-.54-.05-.39-.36-.69-.27-1.21-.17-.16-.65.51-.09.5-.07,1.02M411.04,301.62h0l.39-.04.24-.22.19-1.5-.2-.68-.56-.48-.38.29-.16,1.25.31,1.23M413.89,300.91h0l.38-.31-.28-.97-.41-1.03-.17-.18-.26-.03-.15.32-.05.76.79,1.43M401.49,299.34h0l14.79-2.13.66-.35.05-.51-.32-.15-1.02-.08-14.54,2.15-1.29.39-.18.18.28.37M416.22,300.42h0l.39-.07.24-.22.06-.52-.51-1.49-.16-.18-.51-.05-.15.32-.08,1.02.31.96M418.22,299.5h0l.24.03.25-.22.11-1.02-.57-1.16-.42-.03-.36.3-.03.27.5,1.49M426.93,295.87h0l.86-.47,1.55-1.25.71-.35.92-.74.63-.29,1-.8.63-.29,1.83-1.47.63-.29,3.68-2.98.79-.41,3.32-2.69.64-.74,1.1-.92-.51-.44-.99.54-3.96,3.2-.79.41-3.96,3.2-.71.35-1.75,1.41-.71.35-1.2.96-.63.29-2.38,1.92-.63.29-2.02,1.64-.16.36.08.35.51.06M416.72,294.8h0l.31.97.16.17.26.03.37-.29.16-1.25-.74-16.74.11-1.03.37.51.78.69.4,2.17.35.45.52,1.34,2.67.27.34-.24,1.16-.27.44-.38.03-.27-.76-.67-.53.11-.23-.18-1.09.81-.52-.05-.56-.48-.54-.57-.8-2.95-.72-.75.51-.73.83-.76,2.28-.92.52.06.06.25-.59.37-.53.78-1.31.96-.13,1.26.64.98,1.25,1.07.76.08.25-.15.26.03.44.47.41.06.49-.56-.2-.55-.74-4.09.19-.25-.28-1.26-.35-.65-1.02-.11-1.4.45-1.4.67-1.41,1.14-.86,1.14-.3-5.9,1.57-.85.53-.68.02-.27-.31-.36-1.57.77-.27-.04-.08-.34.08-.75.15-.31.24.18,2.19-.72.03-.3-.54-.49-.28-.03-1.75.48-.24-2.93-.65-18.4-.38-4.06-.41-.79-1.36-1.68-.62-.49-1.42-1.74-.62-.49-1.2-1.47-.56-.42-1.48-1.81-.62-.49-1.2-1.47-.56-.42-1.48-1.81-.62-.49-1.2-1.47-.62-.49-1.2-1.47-.62-.49-1.42-1.74-.62-.49-1.2-1.47-.62-.49-.68-.84,1.33-1.07,1.04-1.32.08-.77-.19-.27-.54.09-.75.96-.71.59-.74,1.16-.8-.69-1.26-1.54-.62-.49-.5-.62,1.04-.29.55-1.13.82-.92.05-.51-.19-.27-.37-.12-.76.59-1.32,1.97-.21.13-1.08-1-1.03-1.32.49-.88.7-.58,1.03-1.32-.41-.56-.24-.02-.64.52-.72,1.03-1.12,1.03-1.37-1.66-.92-.85-.62-.46-.52-.05-.12.34.32.7,1.14,1.4.62.49,1.42,1.74.62.49,1.2,1.46.56.42,1.48,1.81.62.49,1.2,1.46.56.42,1.48,1.81.62.49,1.2,1.46.56.42,1.48,1.81.62.49,1.2,1.46.56.42,1.26,1.54.56.42,1.48,1.81.62.49,1.2,1.47.56.42,1.48,1.81.62.49,1.2,1.46.56.42,1.48,1.81.62.49.67.8.36.08,1.58,46.89.28,5.46M434.58,295.15h0l1.53-1.24.17-.26,1.57-1.14.71-.35.39-.35.02-.15-.54-.48-.99.54-1,.8-.63.29-1.63,1.79-.05.52.34.11M457.91,309.46h.15M424.59,292.93h0l3.42-2.06,5.6-4.54.44-.22.52-.55,7.05-5.72.12-.37-.07-.12-.22-.24-.26-.03-.63.47-.63.29-13.34,10.81-3.47,1.9-.17.36.05.59h.34M450.7,295.32h0l.3-.49-.27-1.55-.38-.71.96-.32.47,2.08.39.5h.27s.37-.3.37-.3l.06-.25-.3-1.53.04-.42.63-.37.39.02.38,1.15,1.19,1.45.45-.51-.32-.71-.35-.45-.33-.71.02-.17,1.64-.51.27.03.17.17.45,1.8.3-.26.06-.25.07-1.01-.14-.4,1.9-.51.52.03.32.16-1.95,2.56.05.39.39.26,1.49-1.78.76-1.1-.39-.48,1.34-.5.19-.17.05-.51-.32-.15-.77-.05-8.44,1.33-.5-.22-.34.22-4.5.68-.19-3.42-1.25-46.51-.24-3.05-.24-.33.05-.51.19-.23-.29-.36-.37.28-.06.25-.26,2.5.39,10.54-.9.39-1.16.71-.9.28-.45.39-.06.41.55.49,1.24-.52,1.43-.88.16.15,1.05,36.86.3,2.62-.25.65.53.49.28.03,2.46-.43.45.7.2,1.93.41.22M461.48,295.33h0l-.26.15-.32-.12,1.4-1.17.3.79-.59.33M424.78,289.84h0l.09-.52.5-.88,1.4-1.13,4.37-2.18,1.08-.65,1.25-1.03-.51-.44-1.72,1.11-1.16.49-4.01,2.11-.58.47-1.32,1.54-.13,1.27.3.35.37-.28M428.48,279.77h0l.48.26,1.02.07,1.38-.64,1.21-.27.65-.35.13-.66.49-.38.04-.43-.32-1.85-.11-2.92-.39-1.05-1.62-.57-.77-.08-.74.4-1.79.25-.69.55-.9.28-1.03,1.09.36,3.07-.2.23-.05.51.72.65.24,1.41.22.27.88.49.55-.36M421.94,277.86h0l-.58-.76.85-.74.53-.74.29,1.64-.11,1.02-.36.05M428.63,278.52h0l-.52-.05-.21.12-.5-1.04-.33-.42-.38-2.75.04-.42,1.08-.63.47-.5,1.83-.36.68-.28,1.02.11.52.64-.11,1.01-.15.04-1.42-.56-.44-.29-.77-.08-.21.15-1.07,1.56-.11,1.02.33.7.84,1.01,1,.14.94-.18,1.14-1.35.51,1.63-.59.33-.93-.04-.48.51-1.22.52-.33-.08M438.02,277.92h0l1.81-.5.24.18.41-.17,1.17-1.67.77-2.54.02-.51-.78-1.83-.42-.51-1.6-.81-1.65.61-1.21.29-.77-.09-.22-.2-.26-.03-.48.37-.46.63.14.52.06,4.53.3,1.23.9.51.53-.15M429.83,276.55h0l-.53-.64.11-1.01.37-.3,1.51.16.02.61-.49.87-.73.35M438.18,276.66h-.78s-.26.13-.26.13l-.23-.18-.26.13-.37-.12-.28-.35-.31-.96.11-1.02.25-.06.59.86.62.46,1.03.11,1.26-.55.46-.61.13-1.27-.81-1.02-.87-.5-.27-.02-.25.15h-.67s-.95,1.28-.95,1.28l-.3-.8.04-.43,2.95-.88,1.52.16.7,1.41-.18,1.78-.53,1.13-.38.44-.72.46M437.34,273.97h0l.05-.52.64-.52.51.05.49.89-.64.53-.76-.08M418.89,264.4h0l1.68-.87.52.05.68.51.28.03,2.22-.19,1.21-.86.18.15.9-.68.9-.28.73-.61-.1-3.68-.47-.75-.27-1.16-.61-.72-.39.05-.41.29-.45-.46-.66-.08-.48.5-1.04.38-1.21.27-.9.52-1.16.27-1.06.63-1.29,1.07.05.39.22.24.51.05,1.54-.99.16,2.3-1.41.58-1.21.27-.23.43.54.64.28.03.96-.31.79-.41.44-.46.18.2.08.38-.1.66-2.03.62-.68.31-.38.34-.05.52.32.15.52.02M444.02,266.45h0l.38-.34-.05-.39-.22-.24-1.49.25-.17.16.05.38.22.24,1.01.11M422.08,262.52h0l-.28-.36-.68-2.26.03-.27.2-.22.21-1.41.53-.44.91-.34.07.6-.26.49.26,1.47.41.78.24.29.87.5.52.05.25-.15.32.12-.26.39-1.27.9-1.47.26-.38-.13M443.32,264.38h0l1.17.05.14-.58-.14-.2-.87-.5-.27-.02-1.06.6-.19.61.2.53.37.12M425.8,261.14h0l1.08-1.71.25.32-.05.51-.19.23.14.26-.06.51-.6.06M442.79,262.41h0l.21-.17,1.6-.3.04-.5-.81-.54-1.23.28-.72.46-.06.67.57.17M424.73,260.1h0l-.75-.91.02-.51.12-.75.89-.49.39.27.37.64-.02.52-.09.51-.46.62-.21.14M435.57,260.69h0l1.97-.66,1.16-.71.16-.36-.23-.58-.26-3.7-.41-.79-.47-.58-.62-.46-.26-.06-2.74.16-.42.33-1.65.53-1.09,1.5.13.27-.19.24.23,1.72.7,2.84.51.63.36.16,1.51.12.34-.24M433.61,259.84h0l-.76-.16-.16-.18-.44-1.68-.44-1.11.13-1.27.28-.38,1.35-.51.9-.68.23.19.5.09,1.03-.1.22.2.41.11.39.83.24,2.37-.16,1.25-.7.38-.96.29-.33-.12,1.62-1.85.11-1.02-.55-1.26-.61-.46-1.53-.16-.7.33-.76.71-.06.68.41,2.21.24.57.78.63-.45.29M435.14,259.65h0v-.15M441.89,260.12h0l2.97-.67.04-.63-.34.05-.23-.19-1.02-.11-1.22.52-.46.4.05.39M419.23,256.99h0l1.21-.8-.04-.5-1.26-.13-.37.3-.08.66M435.11,257.89h0l-.53.47-.56-1.16.09-.92.63-.37.77.08.3.36-.08.77M442.96,257.93h0l1.35-.51.04-.42-.3-.36-.52-.06-1.26.31-.39.2-.04.43.3.36M419.51,254.98h0l1.22-.3.07-.2-.33-.56-1.67-.16-.37.3-.05.51.3.36M443.85,256.02h0l.64-.36.03-.42-.3-.36-2.02-.21-.63.37.02.75,1.01.11.52-.16.5.09M442.44,250.79h0l1.95-.67.17-.17.03-.26-.32-.15-1.27-.1-.96.3-.48.38v.27s.3.36.3.36M422.92,248.29h0l.45-.45.65-.4,2.08-1.69.49-.62,1.88-1.53.71-.36,1.27-1.02.86-.47.91-.74.49-.62,1.67-1.35.29-.11.52-.55,2.5-2.03,1.08-1.14-.16-.53-.37-.12-1.73,1.37-.71.36-1.28,1.26-5.39,4.37-.79.41-6.08,4.93-.16.36.08.38.22.24M428.36,248.8h0l.19-.02.36-.29,1.3-1.73,1.26-1.04.41-.55.66-.32.72-.58.63-.3,1.27-1.02.71-.35,1.6-1.31.49-.62,1.25-1.02.12-.27-.54-.48-.13.07-1.36.87-.77.85-.85.69-.71.36-1.75,1.41-2.02,1.19-.49.62-1.47,1.2-1.02,1.5-.32.29-.05.41M434.62,248.42h0l.2-.34,1.19-.99,2.29-1.41,1.32-1.54-.02-.61-.64.02-2.63,2.13-.71.35-1.74,1.41-.16.36.08.38.22.24M426.81,258.72h0l.11-.33.05.34M422.11,245.09h0l1.39-1.8,2.92-2.38.49-.62,2.08-1.69.12-.27-.54-.48-.13.07-2.57,2.08-.49.62-2.85,2.32-1.04,1.32-.05.26.08.38.22.24M416.81,234.26h0l.22-.14.72-1.03.99-.81,2.71-3.1.99-.81.64-.75.02-.24-.22-.25-.51-.05-1.59,1.26-2.98,3.32-1.72,1.66.16.53.33.37M430.74,235.37h0l.8-1.35,1.68-2.06,2.42-3.79,1.06-2.01-.03-.6-.43.18-.39.46-3.35,5.44-1.97,2.53-.5.89.37.64.25-.06M445.65,236.26h0l.48-.36,1.55-2.61,22.62-38.75.05-.52-.15-.39,2.74-.56,8.86-1.43.72-.38-.02-.6-1.02-.11-10.97,1.76-1.54.37-.18.16-.06.38.86.53-.88,1.17-23.07,39.53-.48.88-.08.51.08.35M413.56,231.44h0l.82-.64.42-.02.52-.54,1.13-.79,1.5-1.35.94-.54.49-.62,2.16-1.75,1.01-.6.46-.62.08-.51-.08-.38-.3-.41.03-.26.73-.62.71-.32.52.64-.31.3-.79,1.34.17.54.36.16.39-.09.82-1.34.21-.13.86.72.36.49-.22.11-.66.88-1.09,1.83.36.65.42.03.2-.14.76-1.29.96-1.24.25.03.39.78-.05.52-.76,1.09-.87.74-.05.51.3.36.39-.05,1.19-.97.83-1.23.91-.4.13-.38-.14-.26.35-.3.42-.02,1.21-1.57,17.75-25.85.05-.52-.14-.26.74-.67-.02-.6-1.02-.11-9.84,1.34-1.17.25-.37.35.51.64.27.03,8.94-1.27.34.08.46.61-.99,1.29-15.2,22.16-2.01,3-.52,1.2-1.83-1.95-1.48-1.27-.19-.38-.96-.75-.59-.71-1.48-1.27-.85-1.18-1.44-1.08-.92-.85-.59-.71-1.48-1.27-1.73-1.84-1.48-1.27-1.73-1.84-1.48-1.27-1.73-1.84-1.1-.75-.28.18-.15.62.59.76,2.62,2.41,1.73,1.84,1.48,1.27,1.73,1.84,1.48,1.27.59.71,1.7,1.55.59.76-.12.37-.72.91-.13-.02-.53-.6-1.32-1.04-.42-.05-1.03.95-.66.32-.64.74-.71.36-.26.33-.65.4-.18.27-.6.37-.49.62-.64.53-1.57,1.95-1.72,1.66-.08.76.43.43.34.84,1.36,1.67.91.85,1.11.77.51.05M434.41,232.55h0l.46-.1,1.05-2.21.67-1,1.01-1.06.45-.63-.07-.1-.66-.08-1.46,1.54-.62.94-.83,1.84.11.53-.18.24M413.09,230.34h0l-.92-.1-2.08-2.52-.69-.45,1.02-1.21.96-.87,1.58-1.95,1.96-1.59.66-.32.49-.62.51-.41,1.26-.77.26.03,1.11,1.3.41.11.37.6.62.49.34.58.84.94-.51.45-.29.11-.75.74-.86.48-1.16,1.29-1.29.92-.63.29-.45.58-1.19.97-.55.09M414.51,228.38h0l.51-.63.93-.63.48-.52.7-.35,1.47-1.19.71-.35.38-.34-.27-1.23-.76-1.23-.34-.83-.65-.05-.7.33-1.33,1.08-1.65,2.02-.7.58-.5.88-.06.53.59,1.47.55.49M443.74,230.24h0l.39-.04.77-.85.7-.35.56-.68.47-.83.84-.91.38-.19,1.37-1.72.06-.52-.33-.7-.47-.58-1.03-.72-.81-.99-1.5-1.02-.37-.44-2.1-1.73-1.75-1.05-.29-.32-.26-.03-.43.19-.39.46-2.59,4.82-.89.97-.02.27.18.4,1.21.8.36.43.82.46.58.7,1.03.72.18.35,1.21.8,1.09,1.32.51.21M414.32,226.7h0l-.28.18-.08-.08.08-.76,1.89-2.24,1.46-1.19.29-.06.56,1.15-.09.12-.77.63-.45.58-.7.35-1.2.96M404.5,224.6h0l1.99-1.16.26-.33.87-.59.49-.62.56-.45,1.09-.65.49-.62.63-.52,1.09-.65.49-.62.65-.41,1.16-1.08.46-.62.08-.77-.52-1.22-1.81-2.24-.58-.45-1.19-2.01-.62-.45-1.54,1.07-2.54,2.2-.49.62-.58.35-1.04,1.43-.91.39-2.05,1.79-.89.53-.08.76.14.26-.46.45-.09.5.33.97.25.3.78.54.37.6.62.49.12.3.63.61,1.03.72.52.59M443.69,228.51h0l-.48-.3-.5-.89-1.5-1.02-.37-.43-.78-.54-.74-1.03-.66-.13-.36-.59-.72-.5,1.28-2.09,1.06-2.04.64-.85,1.51.81,1.4,1.16.8.98,1.29.76.45.39.37.6,1.4,1.2-.08.76-.27.38-.6.37-.71,1.02-.43.36-.46.82-.65.31-.48.51M404.59,223.13h0l-1.36-.78-.97-1.19-.12-.3-1.15-.97-.59-1.06,1-.85,1.14-.7.49-.62.5-.41.71-.36.78-.63.56-.81,1.18-1.18,1.63-1.19.53-.65.98-.53.85,1,.32.66.87.52.47.86.65.53.1.56.41.47-.08.67-1.07.89-.29.11-.84.94-1.6.94-.61.85-1.09.54-2.6,2.33M443.16,226.18h0l1.23-.31.25-.32.76-.52.05-.51-.36-.47-.82-.46-1-1.5-1.48-1.11-.81-1.3-.57-.06-1.14,1.99-.08.78.58,1.3.4.49.82.46,1.03,1.41M442.73,224.8h0l-.59-.45-.31-.65-.87-.52-.18-.23-.54-1,.44-.5,1.73,1.39.69,1.01.32.7-.03.27-.34.08M421.82,221.85h0l-1.33-1.63.8-.32.59-.48.37.16.89.94-.86.65M406.01,220.17h0l1.14-.79.48-.52,1.23-.55,1.55-1.48,1.07-.75.06-.67-.52-1.22-.29-.52-.79-.76-1.75.7-.53.65-2.77,2.25-.29.11-1.6,1.45-.05.51.14.2,1.22.78.57.58.76.11M397.79,219.06h0l.93-1.91-.02-.61-.67-.08-.61.81-.54,1.18.51.65M395.25,218.1h0v-.15M405.19,218.82h0l-.2-.53.15-.62,1.47-1.19.86-.47.63-.52.45-.58.98-.54.37.13.38.78-1.67,1.76-1.84,1-1.24.88M426.32,256.97h0v-.15M420.33,219.96h0v-.15M394.83,215.97h0l1.43-1.86.08-.67-.55-.48-.22.14-.72,1.03-.87.74.02.64.44.52M391.62,214.19h0v-.15M391.42,212.33h0l.83-1.35.31-.31-.36-.64-.42-.03-.21.15-1.04,1.32-.05.52.19.27.36.16M446.05,216.75h0l.52-.08.57-.8.52-.45.1-.39.76-.4.05-.64-1.07-1.06-2.74-1.94-.5.36-.86.92-.79,1.22-.55.57.17.4,1.06.61.3.36,2.05.85M372.02,208.85h0l12.77-2.09.54-.24.13-.38-.29-.36-.77-.09-11.99,1.91-.84.25-.37.35.51.64M370.64,206.96h0l.16-.32.1-1.27-.84-14.5-.18-2-.35-.37-.65.51-.09.77.84,14.49.32,2.46.18.2M372.71,206.42h0l.16-.32.18-2.02-.51-1.91-.4-.02.05.34-.19.23-.11.75.16.51-.07,1.01-.25.49.49.89M374.45,205.51h0l.25-.22.06-.52-.18-.67-.21-2.08-.17-.15-.64.36-.17,1.67.5,1.47.17.18M453.03,212.69h0l1.71-1.84,1.42-.7,1.13-1.72.59-.36.75-1.28.6-.52.09-.5-.08-.38-.47-.86-.56-.53-.74-1.03-.91-.16-.41-.82-.31-.25-2.18-.93-1.83,1.66-.37-.12-.71.32-.87.93-.93,1.43-.76,1.53-1.08,1.54-.48.88-.08.51.16.47,1.65.91,4.02,1.84M452.57,211.2h0l-.58-.14.59-.02M450.11,210.45h0l-.51-.45.56.02.28.37M449.43,209.86h0l-.52-.05-.1-.22-.92-.6.81-1.15.81,1.95M382.99,202.92h0l2.61-.29,1.37-.3,6.01-.57,1.21-.36.77.09.22.2.5.09,1.56-.56.77.05.74.29,2.58-.42.95-.37.25-.43.02-.51-.16-.51.09-.5.19-.23-.15-.41-.22-2.74-.77-4.53.11-1.02.19-.23-.36-.54.22-.5-.3-3.49-.49-.55,2.99-.49,10.97-1.26.61-.34.05-.51-.32-.15-1.02-.08-11.75,1.49-.65-.06-.45-.97-.39-2.44-.58-1.56-.41-.46-3.81.87-3.89.52-.24-.19-.54.35-.23-.19-.27-.03-2.05.47-.23-.2-.52-.06-1.24.39-1.79.22-.33.23-.92-.03-.49.54-.08.51.21,2.06.35,1.78-.17.18-11.91,1.38-2.37.33-.42.16-.18.18.06.13.44.52.27.03,12.98-1.58.07,5.89-.32.72-.05.76.15.25-.02.51-.16,1.5-.26.47-.11,1.02.37,5.26.16.17M377.51,202.33h0l1.16-.49.73-.47-.06-.29-.22-.24-.52-.06-1.49.5-.45.39-.03.26.29.36M451.71,209.85h0l-1.36-1.06-.3-.95.11-1.03.91-1.57,1.28-.9,1.21-.29.78.08,1.09.76.24.29.31.96-.08.78-.79,1.34-1.12,1.03-.18-.15-.61.45M410.33,204.28h0l7.85-1.55,1.37-.42.19-.17.05-.51-.46-.19-.42-.78-1.62-14.89-.34-2.08-.36-.64-.64.52.25,1.77-.11,1.02-.36.05-.58-.46.3-.41-.05-.61-.76-.08-.17.57.13.78-.47.44-.03.26.52.64.39-.05.41-.3.67.06.37.63-.07.88-1.3.48-.02.43.55.48.53-.15.57.17-.08.76-.57-.19-.76-.04-.14.58.3.36.25.06,1.03-.1.04.5-1.89.96-.18.17-.06.41.54.49.27.02.81-.6.76.08.03.86-.92.49-.9-.29-.49.54-.02.27.29.36.77.08,1.25-.53.31.84-.03.27-.18.17-1.76.75-.17.36-.02.51.3.36.26.03.9-.7.66-.3.31.85-.47.41-1.67.45-.18.17-.08.76.32.15.52.03,1.55-.52.53.63.02.44.21.3-8.35,1.77-.44.4.51.65M384.6,201.63h0l-1.15-.14-.27-1.79.58-10.66.27-2.25.33.11.65-.71,1.02-.17,13.62-1.49.65,1.45.28,1.26-.25.49.19,2.54-.19.25.31,1.03-.19.25.26,1.56.69,3.07-.29.74.33,1.28-.16,1.52-.35.08-.74-.28-.35.24-.52.13-3.49.36-1.02-.08-.49-.25-2.32.69-.76-.26-1.49.36-3.41.31-1.24.39M378.03,199.86h0l1.41-.55.49-.55.05-.52-.15-.06-1.68.42-1.23.45.02.73M457.14,207.04h0l-.27-1.85-.59-1.26.08-.07.37.12.94,1,.36.65M377.78,197.77h0l.83-.43,1.79-.65.04-.42-.3-.36-.52-.06-2.01.7-.45.39-.06.41.55.48M455.14,203.4h0l-.94-.54-.79.13-.31-.15.63-.53.52.05.93.56.29.42M378.27,195.09h0l2.47-.87.17-.17.03-.26-.52-.64-.26-.03-.34.24-2.19.65-.19.17-.08.76.32.15M372.12,193.89h0l.25-.22.06-.25.13-1.25-.16-.51.28-.74-.19-.53-.37-.16-.64.54-.16,1.26.27,1.74.16.16M374.05,192.33h0l.25-.22.08-.77-.48-1.62-.56.31.41,2.21.17.16M378.31,192.31h0l1.93-.66.19-.18.03-.26-.29-.36-.77-.09-1.47.5-.46.41.36.64M417.11,195.12h0v-.15M436.36,196.91h0l.35-.07.06-.25.08-.75-.16-.51.06-.51.59.16,2.5-.74.48-.55-.29-.38-.52-.06-2.52.66-.27.2-1.32-13.19,41.18-6.74,3.64-.69h.38s.23,1.62.23,1.62l1.37,14.35.34.61.51.05.15-.32.08-1.02-1.4-14.46-.37-1.54-.18-.18-.27.12-.23-.19-1.02-.11-40.81,6.74-3.34.69-.51.28-.77.8,1.17,13.85.36,1.88.18.19M438.63,196.22h0l.86-.69.45-.63-.07-.1-.52-.06-.9.35-.79.57-.05.51.31.36M407.98,191.57h0l.23-.17.78-.2,3.43-.58,1.43-1.3.46-.62.08-.77-.63-.94-1.32-.64-.51-.02-.25.15-.48-.22-.51-.05-.53.37-.48-.22-.67-.08-.63.41-.49-.25-.63.46-.51.2-.96.29h-.43s-.61.63-.61.63l-.46.62-.05.26.19.68.62.66-.24.48.08.38.22.24.25.06.76.05.26-.14.23.19.78-.12.48.24M463.5,195.93h0l2.07-.97.53-.78.6-.37.99-1.25.71-.59,1.85-2.18.98-.81.77-1.54.45-.6.59-1.39.02-.51-.52-1.22-1.29-1.61-.12-.3-2.22-1.76-3.11-1.54-.77-.05-.94.39-1.42,1.36-1.27,1.64-.69,1.23-1.58,1.75-.72,1.03-.44.37-.78,1.54-.7.57-.46.62-.06.26-.07,1.01.33.7.47.58.56.42.74.91.11.29.85.89,1.37.89,2.64.94M407.04,190.04h0l-.78-.08-.72-.97.46-.6,4.81-.91.5.22.26-.13.27.02,1.3.61-.06.37-1,.84-2.51.64-.25-.19M438.21,192.45h0l.22-.17,1.2-.28.41-.37-.3-.37-1.27-.13-.78.39-.17.36.05.6M383.89,186.61h0l-.33-.11.36-.29M463.08,194.6h0l-1.9-.64-1.14-.57-.68-.56-.83-1.3-.74-.64-.52-.64-.06-.63.16-.36.71-.45.76-.79-.14-.26.05-.52,1.34-1.79,1.11-1.03-.02.57-.8,1.35-.31.28-.09.5.29.92.57.58.4,1.07,1.96,1.63.27-.12.23.19,1.25.16.52-.14.48.24.46-.14.53-.88.35-.29,1.76-3.27.14-1.28-.23-2.1-.34-1.16-.68-.84-.62-.46-1.01-.14-.52.14-.24-.18-1.26.28-.54.24-.77.63-.79,1.54-.63.51-.2-.02.12-.37.21-.18,1.06-1.76,1.52-1.59.92-.59.76.04,2.34,1.19.35.42,1.03.72.92.85.32.67.33.26.59.92-.07,1.01-1.73,2.77-1.24,1.1-.74.97-.99.81-.53.78-1.14.8-.46.82-.63.42-.9.35M385.31,185.03h0l-.45-.56-.14-.39-.29-1.27.02-.52.12-.75,1.17-.72.75.26,1.54-.53.52.06.22.2.26.03.33-.24,1.21-.29.76.26.49-.19,4.91-.69,2.04-.55.43.04.65,1.24.41,2.49-.2.43-14.25,1.71M437.45,190.1h0l1.25-1.02.17-.26.65-.4.03-.24-.22-.25-.76-.08-1.25.86-.49.55.02.64.22.24M416.22,186.69h0v-.15M437.41,187.82h0l.59-.44,1.1-.45.18-.17.03-.26-.32-.15-1.27-.1-1.16.57-.06.67.19.27.36.16M473.66,191.35h0l.24-2.27-.44-.39-.54.78-.13,1.28.37.63M464.61,190.27h0l-.49-.25-.27.13-1.1-.75-.43-.38-.39-.91-.66-.68.52-1.05.42-.33.53,1.36.18.22.82.46.34.41,1.39.55.53-.15.57.17-.05.51-.46.39-.7.33M442.7,187.67h0l1.72-.22.23.2.27.04,1.72-.24,2.07-.54.43-.34,1.95-1.01.6-.62.5-.88.05-.52-.8-1.29-1.09-.76-.51-.08-4.71.64-2.95.77-1.05.4-.76.86-.21,2.02.55.98.4.46.51.05.26-.14.23.19M475.52,190.53h0l.11-1.02-.24-.34-.33-1.09-.28-.02-.49.54-.03.28.61,1.22.56.49M477.74,190.08h0l.52.05.12-.34-.72-1.75-.4-.45-.37.28-.08.76.55.98M466.77,188.93h0v-.15M441.9,186.26h-.33s-.33-.58-.33-.58l.55-1.39,1-.56.49.21.88-.44,1.72-.46.77.09.23.19.34-.22,2.51-.43.5.09.72.97-.55.81-1.02.69-1.72.46-.62.3-1.99.44-.49-.25-2.03.25M437.92,185.6h0l1.58-1.29-.76-.48-1.74.92-.23.24.36.64M480.43,189.78h0l.24-.23-.18-.43-.63-.61-.79-.48-.48.54.07.14.89,1.07.52-.11.24.18M466.12,187.86h0l-1.41-.55-.91-.68-.76-1.7.53-1.14,1.11-.9.96-.31.75.26.25-.15.42.03.79,1.43-.24,2.27-.46.62M437.32,184.02h0l.31-.12,1.03-1.01-.28-.37-.52-.06-.89.5-.08.76.31.35M478.61,187.36h0l2.2-.64.19-.18.05-.51-.32-.15-.52-.02-1.93.73-.04.42M479.1,185.14h0l1.42-.47.19-.17.05-.51-.32-.15-.77-.05-.49.19-1.5.27-.16.16-.03.26.29.36M477.55,183.41h0l.58-.57,1.54-.56.03-.43-.32-.15-1.27-.1-.7.33-.19.17-.11,1.01.31.35M477.74,181.42h0l.27-.41,1.67-.22.16-.16.05-.41-.56-.49-1.99.45-.45.39-.05.51.3.36M469.9,179.33h0l.25-.22.03-.27-.72-1.75-.18-.18-.37.28-.11,1.02.62,1.06.37.12M472.45,179.09h0l.52-.45.03-.27-.46-.19-.37-.89.22-.5-.28-.37-.26-.03-.37.29-.18,1.76.52.64M477.75,179.14h0l.23-.17,2.1-.48-.42-.67-.36-.16-1.82.52-.08-.08.12-.37.98-1.28.11-.76-.09-.35-1.04.82-1.31,1.55.05.39.22.24.52-.12.32.12-.24.48.08.35M474.52,178.33h0l.59-.47.03-.26-.04-.34-.5-1.04-.32.27-.11.75"/></svg>