<?xml version="1.0" encoding="UTF-8"?><svg id="Layer_1" xmlns="http://www.w3.org/2000/svg" viewBox="0 0 792 500"><defs><style>.cls-1,.cls-2,.cls-3,.cls-4,.cls-5,.cls-6,.cls-7,.cls-8{fill:none;}.cls-2,.cls-3,.cls-4,.cls-5,.cls-6,.cls-9,.cls-7,.cls-10,.cls-11,.cls-8,.cls-12,.cls-13,.cls-14,.cls-15,.cls-16,.cls-17,.cls-18{stroke-linecap:round;}.cls-2,.cls-3,.cls-9,.cls-10,.cls-11,.cls-12,.cls-13,.cls-14,.cls-15,.cls-16,.cls-17,.cls-18{stroke-linejoin:round;}.cls-2,.cls-9,.cls-19,.cls-20,.cls-10,.cls-11,.cls-12,.cls-13,.cls-14,.cls-21,.cls-15,.cls-16,.cls-17,.cls-18{stroke:#613c1d;}.cls-2,.cls-9,.cls-10,.cls-11,.cls-12,.cls-13{stroke-width:1.53px;}.cls-3{stroke:#603b1b;stroke-width:1.53px;}.cls-4{stroke-dasharray:0 0 0 0 3.77 3.77 3.77 3.77;}.cls-4,.cls-5,.cls-6,.cls-7,.cls-19,.cls-20,.cls-8,.cls-21{stroke-miterlimit:10;}.cls-4,.cls-5,.cls-6,.cls-7,.cls-8{stroke:#8c8783;stroke-width:3px;}.cls-6{stroke-dasharray:0 0 0 0 0 0 3.83 3.83 3.83 3.83 3.83 3.83;}.cls-9{fill:#bed7e6;}.cls-9,.cls-22{opacity:.37;}.cls-23{fill:#e9e8e7;}.cls-24{fill:#fdd6a7;}.cls-25{fill:#e7e6e9;}.cls-26,.cls-27{fill:#eed441;}.cls-28{fill:#fef2f7;}.cls-29,.cls-11,.cls-17,.cls-30{fill:#fff;}.cls-31,.cls-20,.cls-21{fill:#fef081;}.cls-32{fill:#90ced3;}.cls-33{fill:#825a3a;}.cls-34{fill:#7d5fa9;}.cls-35{fill:#abdee5;}.cls-36{fill:#bebebb;}.cls-37{fill:#dddcd6;}.cls-38{fill:#cfcbe6;}.cls-39{fill:#d4d2ca;}.cls-40{fill:#e0c098;}.cls-41{fill:#603b1b;}.cls-42,.cls-19{fill:#60b3be;}.cls-43{fill:#469fa5;}.cls-44{fill:#52449b;}.cls-7{stroke-dasharray:0 0 0 0 0 0 3.77 3.77 3.77 3.77 3.77 3.77;}.cls-19{stroke-width:.5px;}.cls-45,.cls-46,.cls-47,.cls-48{opacity:.35;}.cls-10{fill:#5d130c;}.cls-8{stroke-dasharray:0 0 0 0 3.83 3.83 3.83 3.83;}.cls-12,.cls-18{fill:#999;}.cls-13,.cls-15{fill:#c7c9c6;}.cls-14{fill:#a39c8d;}.cls-14,.cls-21,.cls-15,.cls-16,.cls-17,.cls-18{stroke-width:.75px;}.cls-16{fill:#ccbca3;}.cls-27{opacity:.49;}.cls-30{opacity:.27;}.cls-46{fill:#565554;}.cls-47{fill:#aa9b8c;}.cls-48{fill:#8c8783;}.cls-22{fill:#603526;}</style></defs><path class="cls-44" d="m0,0v500h792V0H0Z"/><g><path class="cls-43" d="m641.29,446.51s-100.92-116.32-348.1-40.63S0,446.51,0,446.51v53.49h688.44l-47.15-53.49Z"/><polygon class="cls-38" points="585.38 500 189.78 500 214.02 478.74 377.22 436.08 480.76 436.08 564.96 463.31 585.38 500"/><path class="cls-32" d="m657.8,500s-118.07-147.98-345.02-67.27C85.83,513.43,0,500,0,500h189.78s197.96-79.65,295.35-51.19c87.73,25.64,100.24,51.19,100.24,51.19h72.42Z"/></g><g><rect class="cls-37" x="311.31" y="429.85" width="1.16" height="7.71" transform="translate(-221.98 414.85) rotate(-52.26)"/><rect class="cls-37" x="313.16" y="427.47" width="1.16" height="7.71" transform="translate(-219.38 415.38) rotate(-52.26)"/><g><path class="cls-37" d="m108.42,477.11c-3.96,0-6.5-.1-6.97-.12-.53-.04-13.67-1.19-26.21-5.5-16.09-5.52-24.03-13.46-23.59-23.6,1.05-24.41,28.83-26.03,29.11-26.04h0c.58,0,1.02.42,1.04.95.01.27-.08.53-.26.73-.18.2-.42.31-.69.32-1.08.06-26.24,1.6-27.21,24.13-.97,22.52,47.45,26.98,47.94,27.02.44.02,2.66.09,6.17.09,12.25,0,42.66-.99,60.55-10.11,6.72-3.43,13.65-10.07,21.68-17.76,17.43-16.69,39.12-37.46,71.85-37.46,4.13,0,8.41.33,12.7.99.8.17,20.36,4.42,31.97,15.17.2.18.31.43.32.69.01.27-.08.52-.27.72-.19.21-.45.32-.73.32-.25,0-.49-.09-.68-.27-11.02-10.21-30.17-14.5-30.97-14.67-4.16-.64-8.27-.96-12.25-.96-32.02,0-53.39,20.46-70.56,36.9-8.15,7.8-15.18,14.54-22.16,18.1-4.96,2.53-11.18,4.65-18.49,6.28-15.83,3.54-33.29,4.07-42.29,4.07Z"/><path class="cls-41" d="m261.83,410.26c4.1,0,8.34.33,12.6.98,1.15.25,20.35,4.51,31.74,15.05.13.12.16.27.16.35,0,.08-.01.23-.13.36-.13.14-.29.16-.37.16-.13,0-.25-.05-.34-.13-11.21-10.38-31.01-14.75-31.21-14.8h-.03s-.03-.01-.03-.01c-4.15-.64-8.29-.96-12.3-.96-32.22,0-53.67,20.54-70.91,37.05-8.11,7.77-15.12,14.48-22.03,18.01-4.93,2.51-11.11,4.61-18.37,6.24-15.78,3.53-33.2,4.06-42.19,4.06-3.96,0-6.48-.1-6.9-.12-.55-.05-13.62-1.19-26.11-5.47-15.86-5.44-23.68-13.21-23.26-23.11,1.03-23.91,28.36-25.55,28.66-25.57.27,0,.48.21.5.48,0,.18-.08.31-.13.36-.05.06-.16.15-.35.16-1.09.06-26.69,1.62-27.68,24.61-.41,9.54,7.85,17.33,23.89,22.51,12.14,3.93,24.38,5.01,24.5,5.02h.03s.02,0,.02,0c.41.02,2.64.09,6.15.09,12.28,0,42.79-.99,60.78-10.17,6.78-3.46,13.74-10.12,21.8-17.84,17.37-16.63,38.98-37.32,71.51-37.32m0-1c-32.93,0-54.49,20.64-72.2,37.6-8,7.66-14.91,14.28-21.56,17.67-17.68,9.02-47.53,10.06-60.32,10.06-3.75,0-6.04-.09-6.12-.09-.48-.04-48.43-4.4-47.48-26.5.95-22.13,25.68-23.6,26.73-23.65.83-.04,1.47-.74,1.42-1.57-.04-.8-.7-1.43-1.49-1.43-.02,0-.05,0-.07,0-.29.01-28.52,1.64-29.59,26.52-1.07,24.95,48.13,29.44,50.29,29.62.41.02,2.98.12,6.99.12,9.39,0,26.66-.56,42.4-4.08,6.73-1.5,13.18-3.55,18.61-6.32,7.04-3.6,14.1-10.35,22.27-18.18,17.32-16.58,38.4-36.77,70.22-36.77,3.88,0,7.93.3,12.14.95.2.04,19.73,4.36,30.74,14.55.29.27.65.4,1.02.4.4,0,.81-.16,1.1-.48.56-.61.53-1.56-.08-2.12-11.6-10.74-31.31-15.1-32.24-15.3-4.45-.68-8.7-1-12.78-1h0Z"/></g><g><path class="cls-37" d="m308.79,435.99c-.33,0-.64-.15-.84-.42l-5.18-6.81c-.31-.41-.29-.98.07-1.36l1.71-1.84,1.49-1.55c.2-.21.48-.33.77-.33.13,0,.26.02.38.07l8,3.06c.33.12.56.39.65.72.09.34,0,.68-.21.95l-5.99,7.14c-.2.24-.5.38-.81.38h0Z"/><path class="cls-41" d="m306.79,424.18c.07,0,.14.01.2.04l8,3.06c.24.09.32.28.34.38.03.1.05.31-.11.5l-5.99,7.14c-.15.17-.33.2-.43.2-.18,0-.34-.08-.45-.22l-5.18-6.81c-.17-.22-.15-.52.03-.72l1.7-1.83,1.49-1.56c.11-.11.25-.17.41-.17m0-1c-.42,0-.83.17-1.13.48l-1.49,1.56-1.71,1.85c-.52.56-.56,1.4-.1,2.01l5.18,6.81c.31.41.78.62,1.24.62.44,0,.88-.18,1.19-.56l5.99-7.14c.69-.82.36-2.08-.64-2.46l-8-3.06c-.18-.07-.37-.1-.56-.1h0Z"/></g><g><g><rect class="cls-37" x="75.67" y="328.87" width="119.71" height="76.64" rx="2.44" ry="2.44" transform="translate(-76.89 38.44) rotate(-12.61)"/><path class="cls-37" d="m67.44,442.02l161.56-36.14c1.35-.3,1.62-.95.62-1.44l-26.51-12.97c-.51-.25-1.69-.28-2.64-.07l-113.4,25.37c-.95.21-2,.74-2.36,1.19l-18.45,23.03c-.69.87-.17,1.34,1.17,1.03Z"/><rect class="cls-28" x="81.57" y="335.19" width="108.32" height="66.55" transform="translate(348.61 698.41) rotate(167.39)"/><path class="cls-36" d="m73.24,443.35l151.08-33.79c1.65-.37,3.1-1.13,3.91-2.04l2.01-2.27-164.2,36.73,2.79,1.19c1.12.48,2.76.54,4.4.18Z"/><polygon class="cls-23" points="77.14 354.6 71.81 355.79 72.79 359.99 78.04 358.81 77.14 354.6"/><polygon class="cls-23" points="78.5 360.25 73.16 361.44 73.66 363.5 78.92 362.32 78.5 360.25"/><path class="cls-39" d="m101.55,425.1l90.09-20.15c.45-.1.58-.39.3-.63l-6.5-5.61c-.22-.19-.72-.28-1.12-.19l-78.63,17.59c-.39.09-.82.38-.94.65l-3.71,7.89c-.16.35.07.55.52.45Z"/><path class="cls-39" d="m131.44,425.41l36.13-8.08c.56-.13.85-.52.64-.87l-2.15-3.77c-.17-.3-.73-.46-1.24-.34l-33.03,7.39c-.51.11-.95.49-.97.84l-.34,4.32c-.03.41.39.64.95.51Z"/><g><polygon class="cls-25" points="174.24 404.29 178.85 403.25 178.08 402.48 173.55 403.49 174.24 404.29"/><polygon class="cls-25" points="168.54 405.56 173.15 404.53 172.48 403.73 167.95 404.74 168.54 405.56"/><polygon class="cls-25" points="162.84 406.84 167.45 405.8 166.88 404.98 162.35 406 162.84 406.84"/><polygon class="cls-25" points="157.05 408.13 161.67 407.1 161.2 406.25 156.67 407.27 157.05 408.13"/><polygon class="cls-25" points="151.27 409.42 155.89 408.39 155.52 407.52 150.99 408.54 151.27 409.42"/><polygon class="cls-25" points="145.57 410.7 150.19 409.67 149.92 408.78 145.39 409.79 145.57 410.7"/><polygon class="cls-25" points="139.75 412 144.37 410.97 144.2 410.05 139.67 411.07 139.75 412"/><polygon class="cls-25" points="133.93 413.3 138.55 412.27 138.48 411.33 133.95 412.35 133.93 413.3"/><polygon class="cls-25" points="128.23 414.58 132.85 413.54 132.89 412.59 128.35 413.6 128.23 414.58"/><polygon class="cls-25" points="122.45 415.87 127.06 414.84 127.2 413.86 122.67 414.87 122.45 415.87"/><polygon class="cls-25" points="116.66 417.16 121.28 416.13 121.52 415.13 116.99 416.14 116.66 417.16"/><polygon class="cls-25" points="110.96 418.44 115.58 417.41 115.93 416.38 111.39 417.39 110.96 418.44"/><polygon class="cls-25" points="105.26 419.71 109.88 418.68 110.33 417.63 105.79 418.65 105.26 419.71"/><polygon class="cls-25" points="173.36 405.72 178.09 404.66 177.31 403.84 172.67 404.88 173.36 405.72"/><polygon class="cls-25" points="167.53 407.02 172.26 405.97 171.58 405.12 166.95 406.16 167.53 407.02"/><polygon class="cls-25" points="161.7 408.33 166.42 407.27 165.86 406.41 161.22 407.44 161.7 408.33"/><polygon class="cls-25" points="155.79 409.65 160.51 408.6 160.05 407.7 155.41 408.74 155.79 409.65"/><polygon class="cls-25" points="149.87 410.98 154.59 409.92 154.24 409 149.6 410.04 149.87 410.98"/><polygon class="cls-25" points="144.04 412.28 148.76 411.22 148.52 410.28 143.88 411.32 144.04 412.28"/><polygon class="cls-25" points="138.08 413.61 142.81 412.56 142.67 411.59 138.03 412.63 138.08 413.61"/><polygon class="cls-25" points="132.13 414.94 136.85 413.89 136.82 412.9 132.18 413.94 132.13 414.94"/><polygon class="cls-25" points="126.3 416.25 131.02 415.19 131.09 414.18 126.46 415.22 126.3 416.25"/><polygon class="cls-25" points="120.38 417.57 125.11 416.51 125.29 415.48 120.65 416.52 120.38 417.57"/><polygon class="cls-25" points="114.47 418.89 119.19 417.84 119.48 416.78 114.84 417.82 114.47 418.89"/><polygon class="cls-25" points="171.01 407.54 175.84 406.46 175.09 405.59 170.35 406.65 171.01 407.54"/><polygon class="cls-25" points="165.04 408.88 169.87 407.8 169.23 406.9 164.49 407.96 165.04 408.88"/><polygon class="cls-25" points="159.07 410.21 163.91 409.13 163.37 408.21 158.63 409.27 159.07 410.21"/><polygon class="cls-25" points="153.02 411.57 157.85 410.49 157.43 409.54 152.69 410.6 153.02 411.57"/><polygon class="cls-25" points="146.96 412.92 151.8 411.84 151.49 410.87 146.74 411.93 146.96 412.92"/><polygon class="cls-25" points="140.99 414.26 145.83 413.18 145.63 412.18 140.88 413.24 140.99 414.26"/><polygon class="cls-25" points="134.9 415.62 139.73 414.54 139.65 413.52 134.9 414.58 134.9 415.62"/><polygon class="cls-25" points="128.8 416.98 133.64 415.9 133.66 414.86 128.92 415.92 128.8 416.98"/><polygon class="cls-25" points="122.83 418.32 127.67 417.24 127.81 416.17 123.06 417.23 122.83 418.32"/><polygon class="cls-25" points="116.78 419.67 121.61 418.59 121.86 417.5 117.12 418.56 116.78 419.67"/><polygon class="cls-25" points="180.64 401.66 185.15 400.65 184.29 399.94 179.85 400.93 180.64 401.66"/><polygon class="cls-25" points="175.06 402.91 179.58 401.9 178.81 401.16 174.37 402.15 175.06 402.91"/><polygon class="cls-25" points="169.49 404.16 174 403.15 173.33 402.39 168.9 403.38 169.49 404.16"/><polygon class="cls-25" points="163.84 405.42 168.35 404.41 167.78 403.63 163.34 404.62 163.84 405.42"/><polygon class="cls-25" points="158.18 406.69 162.69 405.68 162.22 404.87 157.78 405.87 158.18 406.69"/><polygon class="cls-25" points="152.61 407.93 157.12 406.92 156.74 406.1 152.31 407.09 152.61 407.93"/><polygon class="cls-25" points="146.92 409.21 151.43 408.2 151.15 407.35 146.71 408.34 146.92 409.21"/><polygon class="cls-25" points="141.22 410.48 145.74 409.47 145.55 408.6 141.12 409.59 141.22 410.48"/><polygon class="cls-25" points="135.65 411.73 140.16 410.72 140.08 409.83 135.64 410.82 135.65 411.73"/><polygon class="cls-25" points="130 412.99 134.51 411.98 134.52 411.07 130.08 412.06 130 412.99"/><polygon class="cls-25" points="124.34 414.25 128.85 413.24 128.96 412.31 124.53 413.3 124.34 414.25"/><polygon class="cls-25" points="118.77 415.5 123.28 414.49 123.49 413.54 119.05 414.53 118.77 415.5"/><polygon class="cls-25" points="113.19 416.75 117.71 415.74 118.01 414.76 113.57 415.75 113.19 416.75"/><polygon class="cls-25" points="179.64 400.75 184.15 399.74 183.74 399.39 179.26 400.39 179.64 400.75"/><polygon class="cls-25" points="174.08 401.99 178.59 400.98 178.21 400.63 173.74 401.63 174.08 401.99"/><polygon class="cls-25" points="168.51 403.24 173.02 402.23 172.69 401.86 168.22 402.86 168.51 403.24"/><polygon class="cls-25" points="162.86 404.5 167.37 403.49 167.09 403.12 162.62 404.12 162.86 404.5"/><polygon class="cls-25" points="157.21 405.77 161.72 404.76 161.49 404.37 157.02 405.37 157.21 405.77"/><polygon class="cls-25" points="151.64 407.01 156.15 406 155.97 405.6 151.5 406.6 151.64 407.01"/><polygon class="cls-25" points="145.95 408.28 150.46 407.28 150.33 406.87 145.86 407.87 145.95 408.28"/><polygon class="cls-25" points="140.27 409.56 144.78 408.55 144.69 408.13 140.22 409.13 140.27 409.56"/><polygon class="cls-25" points="134.7 410.8 139.21 409.79 139.17 409.36 134.7 410.36 134.7 410.8"/><polygon class="cls-25" points="129.05 412.07 133.56 411.06 133.57 410.61 129.1 411.61 129.05 412.07"/><polygon class="cls-25" points="123.4 413.33 127.91 412.32 127.97 411.87 123.5 412.87 123.4 413.33"/><polygon class="cls-25" points="117.83 414.57 122.34 413.57 122.45 413.1 117.98 414.1 117.83 414.57"/><polygon class="cls-25" points="112.26 415.82 116.77 414.81 116.93 414.34 112.46 415.34 112.26 415.82"/><polygon class="cls-25" points="106.56 417.1 111.07 416.09 111.27 415.6 106.8 416.6 106.56 417.1"/><polygon class="cls-25" points="180.05 402.99 186.37 401.57 185.47 400.82 179.26 402.21 180.05 402.99"/><polygon class="cls-25" points="179.27 404.4 187.55 402.55 186.61 401.76 178.47 403.58 179.27 404.4"/><polygon class="cls-25" points="177.01 406.2 188.79 403.57 187.8 402.75 176.24 405.33 177.01 406.2"/><polygon class="cls-25" points="105.9 418.38 112.08 417 112.48 416 106.41 417.36 105.9 418.38"/><polygon class="cls-25" points="104.55 421.11 113.09 419.2 113.49 418.12 105.1 420 104.55 421.11"/><polygon class="cls-25" points="103.83 422.57 115.46 419.97 115.82 418.85 104.41 421.4 103.83 422.57"/><polygon class="cls-25" points="164.58 410.34 134.87 416.99 134.87 415.9 164.02 409.38 164.58 410.34"/><polygon class="cls-25" points="127.26 418.69 133.32 417.33 133.35 416.24 127.4 417.57 127.26 418.69"/><polygon class="cls-25" points="121.29 420.03 125.87 419 126.05 417.87 121.55 418.88 121.29 420.03"/><polygon class="cls-25" points="171.83 408.72 165.76 410.08 165.18 409.12 171.13 407.79 171.83 408.72"/><polygon class="cls-25" points="177.79 407.39 173.21 408.41 172.49 407.48 176.99 406.48 177.79 407.39"/><polygon class="cls-25" points="183.94 406.01 179.35 407.04 178.52 406.13 183.02 405.13 183.94 406.01"/><polygon class="cls-25" points="190.08 404.64 185.5 405.66 184.55 404.78 189.04 403.78 190.08 404.64"/><polygon class="cls-25" points="114.92 421.45 119.97 420.32 120.12 419.74 115.11 420.86 114.92 421.45"/><polygon class="cls-25" points="108.99 422.78 114.04 421.65 114.24 421.05 109.23 422.17 108.99 422.78"/><polygon class="cls-25" points="103.05 424.1 108.11 422.97 108.37 422.37 103.36 423.48 103.05 424.1"/><polygon class="cls-25" points="109.23 422.17 114.24 421.05 114.44 420.47 109.48 421.58 109.23 422.17"/></g><path class="cls-41" d="m183.68,318.71c.43,0,.8.3.89.72l15.66,70.02c.05.24.01.49-.12.69-.13.21-.34.35-.58.4l-112.05,25.06c-.07.02-.14.02-.2.02-.43,0-.8-.3-.89-.72l-15.66-70.02c-.11-.49.2-.99.7-1.1l112.05-25.06c.07-.02.14-.02.2-.02m0-1.53c-.18,0-.36.02-.54.06l-112.05,25.06c-1.32.29-2.15,1.6-1.85,2.92l15.66,70.02c.25,1.14,1.26,1.91,2.38,1.91.18,0,.36-.02.54-.06l112.05-25.06c1.32-.29,2.15-1.6,1.85-2.92l-15.66-70.02c-.25-1.14-1.26-1.91-2.38-1.91h0Z"/><path class="cls-41" d="m201.76,392.77c.39,0,.62.05.64.06l24.42,11.95-157.96,35.33,16.98-21.2c.15-.15.82-.52,1.52-.68l113.4-25.37c.3-.07.65-.1.99-.1m0-1.53c-.43,0-.9.05-1.33.14l-113.4,25.37c-.95.21-2,.74-2.36,1.19l-18.45,23.03c-.55.69-.34,1.13.45,1.13.2,0,.45-.03.72-.09l161.56-36.14c1.35-.3,1.62-.95.62-1.44l-26.51-12.98c-.28-.14-.77-.21-1.31-.21h0Z"/><rect class="cls-3" x="81.52" y="335.17" width="108.32" height="66.55" transform="translate(348.52 698.39) rotate(167.39)"/><path class="cls-3" d="m66.01,441.97l2.79,1.19c1.12.48,2.76.54,4.4.18l151.08-33.79c1.65-.37,3.1-1.13,3.91-2.04l2.01-2.27"/><path class="cls-41" d="m184.59,399.13c.15,0,.26.04.27.04,0,0,0,0,0,0l6,5.49-88.68,19.84,3.26-7.53c.04-.06.22-.2.39-.23l78.63-17.59s.07-.01.14-.01m0-.8c-.11,0-.21.01-.31.03l-78.63,17.59c-.39.09-.81.39-.94.68l-3.61,8.33c-.13.31.01.51.32.51.06,0,.13,0,.21-.02l90.09-20.15c.45-.1.58-.4.29-.67l-6.6-6.04c-.17-.16-.49-.25-.81-.25h0Z"/><path class="cls-41" d="m165.18,413.1c.11,0,.19.02.23.04l1.94,3.4-36.04,8.06.31-3.91c.05-.06.18-.15.36-.19l33.03-7.39c.06-.01.11-.02.17-.02m-33.55,7.52h0,0m33.55-8.33c-.11,0-.23.01-.35.04l-33.03,7.39c-.51.11-.95.49-.97.84l-.34,4.32c-.03.33.25.55.66.55.09,0,.19-.01.29-.03l36.13-8.08c.56-.12.85-.52.64-.87l-2.15-3.77c-.13-.24-.5-.38-.89-.38h0Z"/><g><polygon class="cls-41" points="178.08 402.47 173.55 403.48 174.24 404.28 178.86 403.25 178.08 402.47 178.08 402.47"/><polygon class="cls-41" points="172.48 403.72 167.95 404.74 168.54 405.55 173.16 404.52 172.48 403.72 172.48 403.72"/><polygon class="cls-41" points="166.89 404.97 162.35 405.99 162.84 406.83 167.46 405.8 166.89 404.97 166.89 404.97"/><polygon class="cls-41" points="161.2 406.24 156.67 407.26 157.06 408.12 161.67 407.09 161.2 406.24 161.2 406.24"/><polygon class="cls-41" points="155.52 407.51 150.99 408.53 151.27 409.41 155.89 408.38 155.52 407.51 155.52 407.51"/><polygon class="cls-41" points="149.92 408.77 145.39 409.78 145.57 410.69 150.19 409.66 149.92 408.77 149.92 408.77"/><polygon class="cls-41" points="144.21 410.05 139.67 411.06 139.75 411.99 144.37 410.96 144.21 410.05 144.21 410.05"/><polygon class="cls-41" points="138.49 411.33 133.95 412.34 133.93 413.29 138.55 412.26 138.49 411.33 138.49 411.33"/><path class="cls-41" d="m132.89,412.58h0,0Zm0,0l-4.53,1.01-.12.98,4.62-1.03.04-.96h0Z"/><path class="cls-41" d="m127.21,413.85h0,0Zm0,0l-4.53,1.01-.22,1,4.62-1.03.14-.98h0Z"/><path class="cls-41" d="m121.53,415.12h0,0Zm0,0l-4.53,1.01-.33,1.02,4.62-1.03.24-1h0Z"/><path class="cls-41" d="m115.93,416.37h0,0Zm0,0l-4.53,1.01-.43,1.05,4.62-1.03.34-1.03h0Z"/><path class="cls-41" d="m110.33,417.62h0,0Zm0,0l-4.53,1.01-.53,1.07,4.62-1.03.45-1.05h0Z"/><polygon class="cls-41" points="177.31 403.84 172.68 404.87 173.37 405.71 178.09 404.66 177.31 403.84 177.31 403.84"/><polygon class="cls-41" points="171.59 405.12 166.95 406.15 167.54 407.02 172.26 405.96 171.59 405.12 171.59 405.12"/><polygon class="cls-41" points="165.86 406.4 161.23 407.43 161.71 408.32 166.43 407.26 165.86 406.4 165.86 406.4"/><polygon class="cls-41" points="160.05 407.7 155.42 408.73 155.79 409.64 160.51 408.59 160.05 407.7 160.05 407.7"/><polygon class="cls-41" points="154.24 409 149.61 410.03 149.87 410.97 154.6 409.91 154.24 409 154.24 409"/><polygon class="cls-41" points="148.52 410.28 143.88 411.31 144.04 412.27 148.77 411.21 148.52 410.28 148.52 410.28"/><polygon class="cls-41" points="142.67 411.58 138.03 412.62 138.09 413.6 142.81 412.55 142.67 411.58 142.67 411.58"/><polygon class="cls-41" points="136.82 412.89 132.19 413.93 132.13 414.94 136.86 413.88 136.82 412.89 136.82 412.89"/><path class="cls-41" d="m131.1,414.17h0,0Zm0,0l-4.64,1.04-.16,1.03,4.72-1.06.07-1.01h0Z"/><path class="cls-41" d="m125.29,415.47h0,0Zm0,0l-4.64,1.04-.27,1.05,4.72-1.06.18-1.03h0Z"/><path class="cls-41" d="m119.48,416.77h0,0Zm0,0l-4.64,1.04-.37,1.08,4.72-1.06.29-1.06h0Z"/><polygon class="cls-41" points="175.09 405.58 170.35 406.64 171.01 407.54 175.85 406.45 175.09 405.58 175.09 405.58"/><polygon class="cls-41" points="169.24 406.89 164.49 407.95 165.04 408.87 169.88 407.79 169.24 406.89 169.24 406.89"/><polygon class="cls-41" points="163.38 408.2 158.63 409.26 159.08 410.21 163.91 409.12 163.38 408.2 163.38 408.2"/><polygon class="cls-41" points="157.43 409.53 152.69 410.59 153.02 411.56 157.85 410.48 157.43 409.53 157.43 409.53"/><polygon class="cls-41" points="151.49 410.86 146.75 411.92 146.97 412.91 151.8 411.83 151.49 410.86 151.49 410.86"/><polygon class="cls-41" points="145.63 412.17 140.89 413.23 141 414.25 145.83 413.17 145.63 412.17 145.63 412.17"/><polygon class="cls-41" points="139.65 413.51 134.91 414.57 134.9 415.61 139.74 414.53 139.65 413.51 139.65 413.51"/><path class="cls-41" d="m133.67,414.85h0,0Zm0,0l-4.74,1.06-.12,1.07,4.83-1.08.03-1.05h0Z"/><path class="cls-41" d="m127.81,416.16h0,0Zm0,0l-4.74,1.06-.23,1.09,4.83-1.08.14-1.07h0Z"/><path class="cls-41" d="m121.87,417.49h0,0Zm0,0l-4.74,1.06-.34,1.12,4.83-1.08.25-1.1h0Z"/><polygon class="cls-41" points="184.29 399.93 179.85 400.92 180.64 401.65 185.15 400.64 184.29 399.93 184.29 399.93"/><polygon class="cls-41" points="178.81 401.15 174.38 402.15 175.07 402.9 179.58 401.89 178.81 401.15 178.81 401.15"/><polygon class="cls-41" points="173.34 402.38 168.9 403.37 169.49 404.15 174.01 403.14 173.34 402.38 173.34 402.38"/><polygon class="cls-41" points="167.78 403.62 163.34 404.61 163.84 405.41 168.35 404.4 167.78 403.62 167.78 403.62"/><polygon class="cls-41" points="162.22 404.87 157.79 405.86 158.18 406.68 162.7 405.67 162.22 404.87 162.22 404.87"/><polygon class="cls-41" points="156.74 406.09 152.31 407.08 152.61 407.92 157.13 406.91 156.74 406.09 156.74 406.09"/><polygon class="cls-41" points="151.15 407.34 146.72 408.33 146.92 409.2 151.43 408.19 151.15 407.34 151.15 407.34"/><polygon class="cls-41" points="145.56 408.59 141.12 409.58 141.23 410.47 145.74 409.46 145.56 408.59 145.56 408.59"/><polygon class="cls-41" points="140.08 409.82 135.64 410.81 135.65 411.72 140.17 410.71 140.08 409.82 140.08 409.82"/><path class="cls-41" d="m134.52,411.06h0,0Zm0,0l-4.44.99-.09.93,4.51-1.01v-.91h.01Z"/><path class="cls-41" d="m128.97,412.3h0,0Zm0,0l-4.44.99-.19.95,4.51-1.01.11-.93h0Z"/><path class="cls-41" d="m123.49,413.53h0,0Zm0,0l-4.44.99-.28.97,4.51-1.01.2-.95h0Z"/><path class="cls-41" d="m118.01,414.75h0,0Zm0,0l-4.44.99-.38.99,4.51-1.01.3-.98h0Z"/><polygon class="cls-41" points="183.74 399.39 179.27 400.39 179.65 400.74 184.16 399.73 183.74 399.39 183.74 399.39"/><polygon class="cls-41" points="178.22 400.62 173.75 401.62 174.08 401.98 178.59 400.98 178.22 400.62 178.22 400.62"/><polygon class="cls-41" points="172.7 401.86 168.23 402.86 168.51 403.23 173.02 402.22 172.7 401.86 172.7 401.86"/><polygon class="cls-41" points="167.1 403.11 162.62 404.11 162.86 404.49 167.37 403.49 167.1 403.11 167.1 403.11"/><polygon class="cls-41" points="161.49 404.36 157.02 405.36 157.21 405.76 161.72 404.75 161.49 404.36 161.49 404.36"/><polygon class="cls-41" points="155.97 405.6 151.5 406.6 151.64 407 156.15 405.99 155.97 405.6 155.97 405.6"/><polygon class="cls-41" points="150.33 406.86 145.86 407.86 145.96 408.28 150.47 407.27 150.33 406.86 150.33 406.86"/><polygon class="cls-41" points="144.7 408.12 140.23 409.12 140.27 409.55 144.78 408.54 144.7 408.12 144.7 408.12"/><polygon class="cls-41" points="139.18 409.35 134.7 410.35 134.7 410.79 139.21 409.78 139.18 409.35 139.18 409.35"/><path class="cls-41" d="m133.57,410.61h0,0Zm0,0l-4.47,1-.05.45,4.51-1.01v-.44h.01Z"/><path class="cls-41" d="m127.97,411.86h0,0Zm0,0l-4.47,1-.1.46,4.51-1.01.06-.45h0Z"/><path class="cls-41" d="m122.45,413.09h0,0Zm0,0l-4.47,1-.15.47,4.51-1.01.11-.46h0Z"/><path class="cls-41" d="m116.93,414.33h0,0Zm0,0l-4.47,1-.19.48,4.51-1.01.16-.47h0Z"/><path class="cls-41" d="m111.27,415.59h0,0Zm0,0l-4.47,1-.24.49,4.51-1.01.2-.48h0Z"/><polygon class="cls-41" points="185.47 400.82 179.26 402.2 180.05 402.98 186.38 401.56 185.47 400.82 185.47 400.82"/><polygon class="cls-41" points="186.61 401.76 178.48 403.57 179.27 404.39 187.56 402.54 186.61 401.76 186.61 401.76"/><polygon class="cls-41" points="187.8 402.74 176.24 405.32 177.02 406.19 188.79 403.56 187.8 402.74 187.8 402.74"/><path class="cls-41" d="m112.48,415.99h0,0Zm0,0l-6.08,1.36-.5,1.02,6.18-1.38.4-1h0Z"/><path class="cls-41" d="m113.49,418.11h0,0Zm0,0l-8.38,1.88-.55,1.12,8.54-1.91.4-1.08h0Z"/><path class="cls-41" d="m115.83,418.84h0,0Zm0,0l-11.41,2.55-.58,1.17,11.63-2.6.36-1.12h0Z"/><path class="cls-41" d="m163.77,409.95l.02.04-28.41,6.35v-.05s28.39-6.35,28.39-6.35m.25-.58l-29.15,6.52v1.09s29.7-6.65,29.7-6.65l-.56-.97h0Z"/><path class="cls-41" d="m132.83,416.87v.05s-4.97,1.11-4.97,1.11v-.05s4.97-1.11,4.97-1.11m.53-.64h0,0Zm0,0l-5.95,1.33-.15,1.12,6.06-1.36.03-1.1h0Z"/><path class="cls-41" d="m125.44,418.52v.05s-3.47.77-3.47.77v-.05s3.47-.77,3.47-.77m.62-.66h0,0Zm0,0l-4.5,1.01-.26,1.15,4.59-1.03.17-1.13h0Z"/><path class="cls-41" d="m170.92,408.35l.03.04-4.94,1.11-.03-.04,4.94-1.1m.21-.57l-5.95,1.33.58.96,6.06-1.36-.69-.94h0Z"/><path class="cls-41" d="m176.81,407.03l.04.04-3.43.77-.03-.04,3.43-.77m.18-.56l-4.5,1.01.72.93,4.59-1.03-.81-.91h0Z"/><path class="cls-41" d="m182.86,405.67l.04.04-3.37.75-.04-.04,3.37-.75m.15-.56l-4.5,1.01.84.9,4.59-1.03-.92-.88h0Z"/><path class="cls-41" d="m188.92,404.32l.05.04-3.31.74-.04-.04,3.31-.74m.13-.55l-4.5,1.01.95.88,4.59-1.03-1.04-.86h0Z"/><path class="cls-41" d="m120.12,419.73h0,0Zm0,0l-5.01,1.12-.19.59,5.06-1.13.14-.58h0Z"/><path class="cls-41" d="m114.25,421.04h0,0Zm0,0l-5.01,1.12-.25.61,5.06-1.13.2-.6h0Z"/><path class="cls-41" d="m108.37,422.36h0,0Zm0,0l-5.01,1.12-.31.62,5.06-1.13.26-.61h0Z"/><path class="cls-41" d="m114.44,420.46h0,0Zm0,0l-4.96,1.11-.24.59,5.01-1.12.2-.58h0Z"/></g></g><path class="cls-19" d="m128.39,382.65c-.43.06-.88-.03-1.26-.29-.81-.56-1.01-1.66-.46-2.47.08-.12,8.15-11.54,22.7-5.49.91.38,1.33,1.42.96,2.32-.38.91-1.42,1.33-2.32.96-11.92-4.96-18.15,3.85-18.41,4.22-.29.43-.74.68-1.21.75Z"/><path class="cls-19" d="m156.99,369.26c-.37.08-.78.05-1.15-.13-22.63-10.73-36.69,7.18-37.28,7.94-.6.78-1.71.93-2.49.33-.78-.59-.93-1.71-.34-2.49.16-.21,16.35-20.98,41.63-9,.89.42,1.26,1.48.84,2.37-.24.51-.7.86-1.22.97Z"/><path class="cls-19" d="m167.26,362.3c-.4.09-.83.04-1.22-.16-14.77-7.81-29-8.18-42.31-1.11-10.03,5.33-15.78,13.12-15.83,13.2-.58.79-1.69.97-2.48.39s-.97-1.69-.39-2.48c.25-.34,6.2-8.45,16.91-14.18,9.93-5.32,25.94-9.45,45.77,1.04.87.46,1.2,1.53.74,2.4-.25.48-.69.79-1.18.9Z"/><circle class="cls-19" cx="139.51" cy="384.16" r="2.49"/></g></g><path class="cls-42" d="m792,106.98s-79.45,46.13-92.39,150.97c-11.34,91.84,11.35,134.95-58.32,188.56-15.18,11.68-31.92,21.13-49.56,28.57-10.53,4.44-25.71,12.23-41.19,24.92h107.26s60.72-50.01,60.72-154.32,73.48-173.98,73.48-173.98v-64.71Z"/><polygon class="cls-34" points="792 171.69 741.46 250 726.23 371.53 709.62 499.69 792 500 792 171.69"/><path class="cls-35" d="m792,153.77s-60.49,48.54-72.44,135.75-8.94,128.47-43.79,164.58-74.27,44.82-74.27,44.82l108.12.78s65.5-33.41,41.8-139.87,40.58-167.24,40.58-167.24v-38.82Z"/><g><path class="cls-11" d="m547.34,468.09s12.49,26.43,15.27,45.61c2.78,19.18,8.22,44.04,12.04,53.43,3.82,9.39,26.49,60.11,22.79,83.11,0,0-13.31,17.6-37.07,9.62,0,0-12.94-68.58-23.51-84.44-10.57-15.86-21.6-48.91-21.6-48.91,0,0,11.84-41.25,27.07-58.23l5-.19Z"/><path class="cls-11" d="m456.94,491.15s1.7,29.18,8.44,47.35c6.74,18.17,13.88,42.6,15.02,52.67,1.14,10.07,5.54,65.45,19.81,83.88,0,0,20.11,9.08,37.15-9.31,0,0-21.49-66.4-19.81-85.38,1.68-18.98-4.47-53.28-4.47-53.28,0,0-30.16-30.54-51.66-38.15l-4.48,2.23Z"/><path class="cls-14" d="m535.05,402.79s17.58-3.58,32.83-35.39c0,0-11.5-1.18-22.1,12.57-10.6,13.75-10.72,22.83-10.72,22.83Z"/><path class="cls-14" d="m393.27,426.91s18.91,10.75,44.1,12.84c0,0-23.32-17.37-44.1-12.84Z"/><path class="cls-29" d="m427.97,423.75l2.22,23.93,2.19,26.08s-.36,1.96,2.02,4.62c2.38,2.66,25.16,22.9,25.16,22.9l.96.79s-7.24-1-13.94,9.59l-9.29,11.54s-1.23,2.11-1.35,2.6l-23.96-22.31s-9.6-10.79-11.29-13.96-3.08-6.67-3.58-11.36c-.5-4.69-1.14-29.82-.73-37.95l.32-8.49,31.25-7.97Z"/><path class="cls-29" d="m586.86,385.56s5.53,3.99,10.79,2.51c5.25-1.47,10.27-9.62,11.72-13.47s4.84-15.16,4.64-17.78c-.19-2.63,0,0,0,0,0,0,1.2,3.37,10.95,6.02,9.75,2.65,0,0,0,0l15.86,5.3s3.98.48,6.54-1.77c2.56-2.25,0,0,0,0,0,0-2.02,16.77-7.27,26.85-5.26,10.08-10.68,22.41-27.56,30.02-16.88,7.61-54.15-11.35-54.15-11.35l-25.07-15.91,51-12.16.88.35"/><path class="cls-29" d="m428.72,423.25l.63-.16,100.19-26.11,18.85,65.21s-32.81,4.31-52.05,11.04c-19.24,6.74-25.14,8.38-38.99,16.73l-27.88-66.62-.74-.09Z"/><path class="cls-10" d="m420.61,352.56s31.91-25.18,87.37-24.03c0,0-21.2,16.92-37.78,20.79,0,0-24.6,6.78-49.59,3.24Z"/><path class="cls-33" d="m415.08,302.57l-3.07-8.52c-1.5-.89-5.36-3.45-7.7-8.51-2.63-5.68-1.67-10.87-1.3-12.49-1.63,1.28-3.56,1.38-4.66.47-.43-.35-1.04-1.12-.81-1.67.25-.61,1.58-1.03,6.03-.33.32-.74.65-1.49.97-2.23-.66-.64-1.81-1.91-2.46-3.86-.1-.3-1.15-3.61.43-7.02.9-1.96,1.75-1.96,4.97-5.1.41-.4,3.78-3.71,6.75-8.1,1.71-2.51,2.68-4.49,3.12-5.33,2.59-5.01,12.23-23.67,28.21-26.92,5.34-1.09,9.42-.05,10.54.26,6.53,1.82,12.19,6.86,14.7,13.05,3.65,8.99.7,20.03-7.53,27.21.65,1.07,1.55,2.73,2.31,4.87.91,2.56,1.21,4.63,1.37,5.84.54,4.06,1.44,12.96,2.32,24.71l-54.19,13.68Z"/><path class="cls-24" d="m431.15,342.66c0-7.38-1.82-13.05-3.2-16.96-3.27-9.26-6.5-15.42-8.16-18.97-2.88-6.18-13.02-28.33-4.34-45.21,3.83-7.45,11.06-13.1,19.24-14.89,8.18-1.79,17.16.36,23.57,5.75,8.54,7.19,11.73,18.74,14.49,29.56,4.07,15.99,8.13,31.98,12.2,47.97l.26.88c1.48-.07,2.97-.13,4.45-.2-1.9,4.64-6.09,12.84-14.78,19.05-19.9,14.23-44.45,4.47-46.42,3.66.8-1.85,1.6-3.7,2.4-5.54.14-1.23.28-2.99.28-5.1Z"/><path class="cls-40" d="m407.55,298.01c.22-1.11.75-3.74,3.17-4.67,1.53-.59,3.04-.23,3.94.12-2.81-9.42-4.56-21.74.76-32.09,3.83-7.45,11.06-13.1,19.24-14.89,1.78-.39,3.59-.59,5.41-.62h0c-3.32,1.48-8.18,4.27-11.52,9.46-3.27,5.08-5.67,13.38.37,34.43,4.96,17.29,11.54,29.03,14.12,34,4.23,8.15,8.5,19,11.02,33.23-13.17,1.16-24.33-3.28-25.63-3.83.8-1.85,1.6-3.7,2.4-5.54.14-1.23.28-2.99.28-5.1,0-7.38-1.82-13.05-3.2-16.96-3.27-9.26-6.5-15.42-8.16-18.97-.29-.62-.65-1.39-1.05-2.31-.29.58-.99,1.7-2.39,2.34-2.22,1.02-4.45.04-4.95-.18-3.29-1.45-4.42-5.41-3.81-8.43Z"/><path class="cls-29" d="m572.76,387.16c3.93-1,7.86-2,11.79-3-8.96-3.81-15.55-7.82-19.69-10.58-10.9-7.26-21.28-16.83-31.44-26.19-7.15-6.58-9.28-8.9-14.19-11.1-6.58-2.94-13.81-3.69-20.65-4.46-4.48-.51-8.27-.66-10.99-.69-.41,1.42-5.51,18.03-22.66,23.67-18.53,6.09-33.38-6.46-34.06-7.06-8.28,8.69-16.56,17.37-24.83,26.06-.93,1.02-2.18,2.49-3.48,4.4-1.32,1.93-2.96,4.38-4.12,7.89-1.05,3.22-1.22,5.87-1.28,7.43-.26,5.96-.47,19.94-.35,38.53"/><path class="cls-24" d="m415.5,293.96c-.31-.17-2.51-1.33-4.74-.48-2.42.93-2.95,3.56-3.17,4.67-.61,3.02.52,6.98,3.81,8.42.5.22,2.73,1.2,4.95.18,1.62-.75,2.3-2.13,2.49-2.58-1.12-3.41-2.23-6.81-3.35-10.22Z"/><g><path class="cls-33" d="m418.79,290.64c0,.96-.02,1.93-.03,2.89-.97.5-1.94,1-2.91,1.5-.12-.36-.23-.71-.35-1.07l-.89-.4c-1.74-1.87-3.48-3.74-5.22-5.61-.19-3.15-.25-6.61-.1-10.34.16-3.98.53-7.65,1.01-10.95,2.34,4.07,3.97,7.69,5.09,10.51,3.06,7.66,3.42,11.79,3.4,13.46Z"/><path class="cls-33" d="m408.14,273.16c-.68-4.19-1.15-11.36,2.45-18.48.42-.83,1.4-2.66,4.34-6.29,3.12-3.86,7.94-9.14,15.02-14.62,4.72,3.58,9.43,7.17,14.15,10.75-3.2.76-7.62,2.3-11.63,5.76-4.23,3.65-5.22,7.03-8.24,11.07-2.77,3.7-7.51,8.29-16.09,11.81Z"/></g><path class="cls-22" d="m427.35,256.74c-1.19.58-2.58.97-3.81.48-4.1-1.63-3.32-11.72-3.15-13.94.3-3.88,1.45-10.3,6.07-17.59-.72,1.1-1.87,2.87-3.25,5.09-3.8,6.1-4.52,7.84-7.23,11.88-2.31,3.45-3.47,5.17-5.37,7.24-4.42,4.81-6.58,4.9-8.11,8.49-.29.69-2.27,5.34.16,8.61,1.09,1.46,2.65,2.09,3.6,2.37-.17-.01-1.11-.06-1.89.63-.63.57-.78,1.28-.81,1.49-1.84-.48-3.3-.45-4.27-.35-1.39.15-1.67.46-1.76.68-.22.55.38,1.31.81,1.67,1.54,1.28,4.18.2,4.51.06-.32,1.63-1.27,7.53,2.2,13.33,1.99,3.33,4.6,5.24,6.15,6.2.17-.06,1.97-.71,3.46.36.73.52,1.05,1.22,1.19,1.58.97-.5,1.94-1,2.91-1.5.19-1.33.35-3.31.08-5.66-.2-1.78-.63-3.54-2.54-8.37-.87-2.19-2.04-5.02-3.55-8.3,2.53-1.45,5.82-3.71,9.06-7.11,2.5-2.62,4.28-5.21,5.54-7.35Z"/><path class="cls-29" d="m479.18,343.92c-3.34,2.36-8.21,5.22-14.55,7.2-10.11,3.16-18.89,2.51-23.83,1.74,3.07,1.36,6.13,2.72,9.2,4.08,2.76.4,7.26.71,12.57-.52,5.08-1.18,8.84-3.29,11.12-4.81,1.83-2.57,3.66-5.13,5.48-7.7Z"/><path class="cls-29" d="m485.47,331.05c-.81,2.64-2.54,7.02-6.33,11.23-5.63,6.27-12.39,8.36-15.19,9.06,5.19-.99,10.19.77,12.68,4.49,1.67,2.5,1.75,5.17,1.68,6.49,3.65-5.03,8.04-12.56,10.3-22.45.7-3.07,1.1-5.96,1.31-8.61-1.48-.07-2.97-.14-4.45-.21Z"/><path class="cls-29" d="m430.87,347.76c2.86,1.56,6.96,3.39,12.16,4.47,6.73,1.4,12.44.94,16.09.35-.83.24-4.07,1.28-5.9,4.51-1.91,3.36-1.53,7.74.95,11.18-5.69-2.08-13.7-6.01-20.61-13.62-1.62-1.79-3-3.58-4.18-5.31.5-.52,1-1.05,1.5-1.57Z"/><polygon class="cls-31" points="430.87 347.76 435.68 350.26 444.49 352.92 440.81 353.61 430.34 353.15 425.62 352.9 430.87 347.76"/><path class="cls-47" d="m437.2,523.24s-1.23,2.11-1.35,2.6l-23.96-22.31s-9.6-10.79-11.29-13.96-3.08-6.67-3.58-11.36c-.5-4.69-1.14-29.82-.73-37.95l.32-8.49,1.1-.28c-.37.09-.74.18-1.11.27.08-5.43.06-9.86.03-12.85-.02-1.59-.15-13.82.44-25.51.09-1.73.25-4.29,1.28-7.43,1.15-3.51,2.8-5.96,4.12-7.89,1.54-2.25,2.93-3.79,3.48-4.4,3.5-3.85,13.26-14.45,24.71-26.23,0,0,2.44,1.24,7.77,3.32,1.13.37,10.91,2.83,18.2,1.81.63-.09,5.18,2.35,2.5,6.37-2.67,4-7.63-5.11-12.43,2.71,0,0-15.66-5.63-16.53-1.52-.5,2.35,11.69,27.71,12.47,35.95.93,9.76,4.88,17.43,8.1,22.32,0,0,24.41,45.5,26.27,61.52l-19.6,9.9s-26.41-65.47-29.91-69.79l-20.1,2.89-.02,25.9c0,6.58.28,13.16.84,19.71l1.08,12.58c.76,8.09,11.88,16.9,17.53,22.74l14.68,12.72-4.33,6.68Z"/><line class="cls-1" x1="488.93" y1="407.33" x2="481.55" y2="409.21"/><path class="cls-47" d="m457.56,493.89s-1.71,25.28,13.34,61.99c1.26,3.07,2.34,6.2,3.2,9.4,1.31,4.91,4.06,12.99,5.74,21.81,1.08,5.69,1.16,11.65,1.97,17.4.75,5.3,1.79,10.01,1.84,14.5,0,0,4.1,29.26,10.33,42.66l6.23,13.39s13.21,5.66,22.47.63c0,0-20.55-37.03-23.21-88.42-2.65-51.39-14.57-82.96-14.57-82.96l-21.13-12.5-6.21,2.09Z"/><path class="cls-31" d="m485.47,331.05s13.78-.29,16.77,1.21c0,0-14.29,12.26-29.29,15.93,0,0,7.03-5.69,7.57-7.04s4.52-8.52,4.95-10.1Z"/><g><path class="cls-2" d="m396.72,431.72c-.12-18.59.09-32.57.35-38.53.07-1.56.23-4.22,1.28-7.43,1.15-3.51,2.8-5.96,4.12-7.89,1.53-2.24,2.91-3.77,3.48-4.4,3.54-3.9,12.63-13.49,24.83-26.06"/><path class="cls-2" d="m427.02,399.19c-.68,3.73-1.19,9.03-.29,15.25.55,3.76,1.48,6.97,2.44,9.56"/><g><path class="cls-2" d="m411.12,292.73c-1.58-.99-4.81-3.31-6.9-7.56-.72-1.61-1.59-4.08-1.76-7.2-.09-1.72.05-3.24.25-4.47.02-.13-.1-.23-.22-.18-.79.29-2.92.93-4.24-.17-.43-.36-1.03-1.12-.81-1.67.09-.22.37-.53,1.76-.68.94-.1,2.35-.13,4.11.31.09.02.18-.03.2-.12.12-.43.34-.92.77-1.34.02-.02.06-.05.1-.09.62-.52,1.39-.56,1.79-.54-.56-.06-1.7-.28-2.68-1.16-.39-.35-1.07-1.09-1.51-2.81-.94-3.73.43-7.02.43-7.02,1.48-3.47,3.82-3.7,8.11-8.49,1.23-1.38,2.03-2.49,3.61-4.71,6.31-8.83,8.98-15.13,12.24-19.5,5.07-6.81,16.24-15.25,27.89-12.89,7.02,1.42,14.3,6.75,16.99,14.99,2.87,8.79-.23,18.93-7.97,25.59-.06.05-.08.14-.03.21.98,1.53,2.09,3.64,2.91,6.28.58,1.88.88,3.59,1.02,5.02"/><path class="cls-2" d="m430.78,347.41c.67-6.48.02-11.52-.67-14.87-1.14-5.52-2.83-8.49-10.4-26.17-.98-2.29-1.78-4.16-2.27-5.32"/><path class="cls-2" d="m439.15,245.87c2.13-.03,5.18.14,8.68,1.1,1.9.52,6.21,1.9,10.34,5.04,7.62,5.79,10.04,14.09,10.76,17.01"/><path class="cls-2" d="m472.05,279.06c.48,1.94.85,3.46,1.04,4.21,5.74,23.4,7.67,32.43,11.77,46.28.12.42.22.75.26.88"/><path class="cls-2" d="m414.8,293.32c-.87-.36-2.49-.82-4.12-.19-2.42.93-2.95,3.56-3.17,4.67-.61,3.02.52,6.98,3.81,8.42.43.19,2.75,1.34,4.95.18,1.28-.67,1.9-1.8,2.14-2.31"/><path class="cls-2" d="m412.67,270.84c1.19,2.41,2.05,4.48,2.64,5.98,1.68,4.29,3.45,8.27,3.4,13.46,0,.97-.02,1.93-.03,2.9l-3.24.5h0s-.05-.08-.09-.1l-.82-.36"/><path class="cls-2" d="m446.26,243.61c-3.8.64-9.22,2.17-13.89,6.31-4.04,3.58-4.83,6.74-8.24,11.07-2.8,3.56-7.59,8.17-16.09,11.81"/><path class="cls-2" d="m621.27,357.32l5.65,6.17c.09,0,11.47,10.06,11.48,10.15.05,2.99,11.47,22.45-16.79,44.75-28.9,22.81-85.59-20.57-86.61-21.35-.01,0-.02-.01-.03-.02-1.77-.79-3.55-1.59-5.32-2.38"/><path class="cls-2" d="m486.29,330.75c2.7.04,7.76.24,12.2.74,6.3.71,13.76,1.56,20.65,4.46,5.72,2.41,6.8,4.34,20.26,16.57,18.95,17.23,26.76,22.07,29.99,23.97,5.04,2.97,9.59,5.1,13.08,6.57,1.58.66,3.11,1.42,4.59,2.29,2.71,1.59,7.79,4.05,11.17,2.5,0,0,6.3-1.34,11.14-13.25,4.83-11.91,11.8-17.29,11.8-17.29"/><circle class="cls-41" cx="452.3" cy="279.86" r="2.03"/><circle class="cls-41" cx="470.69" cy="275.17" r="2.03"/><path class="cls-2" d="m465.91,281.64c-.07.13-1.22,2.24-3.68,2.42-2.43.18-3.88-1.68-3.98-1.8"/><path class="cls-2" d="m413.96,296.41c-1.06-.27-2.17.12-2.83.99-.67.88-.73,2.1-.16,3.05"/><path class="cls-2" d="m527.31,384.29c.68,2.29,1.6,7.73,2.09,10.98.28,1.83.67,3.64,1.19,5.43l17.86,61.76s-58.41,7.01-90.82,27.69l-30.18-71.95s4.97,51.98,4.98,56.72c.02,5.15,35.66,33.24,35.66,33.24l-16.79,28.61c-15.94-9.07-47.3-38.54-52.28-50.41-4.97-11.87-2.22-54.28-2.22-54.28"/></g></g><path class="cls-2" d="m432.24,348.41s14.97,9.09,32.83,2.61c.47-.17.94-.33,1.41-.47,2.64-.78,13.52-4.73,18.37-17.7"/><path class="cls-9" d="m510.16,249.52s-16.9-72.64-97.2-41.55c-51.62,19.98-43.64,70.47-31.36,103.97,12.06,32.89,47,51.87,80.95,43.24.57-.15,1.15-.3,1.73-.46,44.37-12.38,68.3-42.52,45.88-105.2Z"/><path class="cls-13" d="m420.61,352.56l1.31,5.12s17.34,7.61,41.6,1.75c24.26-5.86,37.27-17.06,45.68-26.13l-1.22-4.77s-18.79,14.55-31.07,18.57c-12.28,4.02-20.68,8.08-56.3,5.46Z"/><path class="cls-30" d="m403.9,223.14s-27.2,19.27-19.91,60.56c6.63,37.57,28.16,57.22,48.96,61.57,2.4.5,4.25-2.1,2.96-4.19-5.96-9.7-18.39-31.19-20.26-44.39-.38-2.68-.86-5.35-1.49-7.98-2.99-12.5-9.63-45.83-.4-62.98.69-1.28,1.11-2.71,1.22-4.16.24-3.19-1.06-6.6-11.08,1.58Z"/><g class="cls-45"><g><path class="cls-5" d="m423.21,355.24s.68.21,1.93.5"/><path class="cls-4" d="m428.83,356.49c3.24.57,7.73,1.14,13.12,1.27"/><path class="cls-7" d="m443.83,357.78c16.01.05,38.99-4.02,60.21-22.94"/><path class="cls-5" d="m505.45,333.56c.49-.45.97-.91,1.45-1.37"/></g></g><path class="cls-47" d="m647.36,366.37c-2.26,2.96-6.54,1.77-6.54,1.77l-7.13-2.35s-7.45,43.47-34.52,44.82c-18.99.95-49.6-16.86-49.6-16.86-3.36-1.76-7.11-3.54-11.26-5.23-3.85-1.56-7.52-2.83-10.92-3.87.46,1.57.9,3.28,1.28,5.12.35,1.68.61,3.28.8,4.78,1.94.8,3.87,1.61,5.81,2.41l-.3.07,11.95,8.18c23.11,14.81,40.41,18.14,40.41,18.14,0,0,19.75,6.4,34.25-4.97,14.5-11.36,20.64-30.55,20.64-30.55,0,0,7.39-24.43,5.13-21.47Z"/><path class="cls-17" d="m509.2,333.3s14.76-7.07,58.67,34.09c0,0-21.91-2.4-32.83,35.39,0,0-28.75-20.77-38.95-33.62,0,0-1.04-13.18,2.6-23.01l1.79-4.55,8.71-8.31Z"/><path class="cls-47" d="m540.67,387.47s-38.25-29.93-40.19-45.86c0,0-6.19,13.63-4.39,27.56.39,3.04,38.95,33.62,38.95,33.62,0,0,1.06-6.34,5.63-15.32Z"/><path class="cls-20" d="m430.18,360.12s30,37.15,36.79,124.45c0,0,16.43-7.3,34.72-12.58,14.93-4.31,31.18-7.37,38.68-8.63,0,0-61.36-74.39-39.88-121.75,0,0-13.75,12.17-33.21,16.88,0,0-18.32,5.56-37.1,1.63Z"/><path class="cls-27" d="m430.18,360.12s14.73,3.44,29.35.34c0,0,9.23,79.96,33.64,105.93,0,0-21.98,7.96-26.91,10.11,0,0-3.31-26.54-4.93-34.39-1.62-7.85-8.08-37.65-13.8-48.76,0,0-10.35-26.18-17.36-33.23Z"/><path class="cls-15" d="m452.76,482.71l5.8,11.66s43.35-23.06,93.09-26.5l-3.19-12.49s-48.05,3.66-95.7,27.33Z"/><g class="cls-45"><g><path class="cls-5" d="m546.88,462.77c-.46.04-1.13.11-1.99.19"/><path class="cls-8" d="m541.09,463.39c-3.38.4-7.92,1.02-13.25,1.9"/><path class="cls-6" d="m525.95,465.61c-17.42,3.02-42.4,8.89-63.69,19.87"/><path class="cls-5" d="m460.56,486.37c-.59.31-1.17.63-1.76.95"/></g></g><circle class="cls-16" cx="448.24" cy="399.68" r="12.41"/><path class="cls-21" d="m394.89,465.29c-.32,6.23-.25,25.86,12.33,36.21.64.53,1.55.61,2.25.16,3.16-2.02,11.36-8.77,8.12-22.88-3.17-13.81-15.61-15.41-20.53-15.49-1.15-.02-2.11.86-2.17,2.01Z"/><path class="cls-17" d="m445.12,387.45l-7.75,52.31s-26.62-19.33-44.1-12.84c0,0-11.98-50.14,28.65-69.23l8.26,2.43s9.69,13.77,14.94,27.33Z"/><path class="cls-47" d="m430.18,360.12s-24.35,28.71-14.26,68.36c0,0-10.07-5.66-22.65-1.56,0,0-8.21-35.22,12.32-57.2,0,0,10.33-10.66,16.33-12.03,0,0,5.86,2.85,8.26,2.43Z"/><path class="cls-21" d="m589.28,427.55c6.19.81,25.77,2.26,37.06-9.46.58-.6.73-1.5.34-2.23-1.77-3.31-7.86-12.01-22.18-9.88-14.01,2.08-16.58,14.36-17.05,19.26-.11,1.14.69,2.17,1.83,2.32Z"/><path class="cls-27" d="m396.85,465.42s-1.98,24.67,11.39,34.81c0,0,9.27-6.26,6.15-13.74-3.12-7.47-14.27-11.12-17.54-21.07Z"/><path class="cls-27" d="m589.77,425.73s24.48,3.67,35.51-8.98c0,0-5.61-9.68-13.28-7.07-7.67,2.6-12.07,13.48-22.23,16.06Z"/><path class="cls-21" d="m463.77,491.8s31.85,16.15,45.85,33.5c13.99,17.36,10.66-38.18,34.09-56.72,0,0-24.65,3.1-40.79,8.41-16.14,5.3-33.95,12.24-39.15,14.81Z"/><path class="cls-47" d="m527.38,495.94l-6.75,23.14s-2.23,7.24-4.62,9.19c0,0,8.52,24.31,13.52,33.84,5,9.54,9.1,16.36,9.1,16.36,0,0,12.58,26.12,21.75,81.38,0,0,10.08,4.44,23.09.14,0,0-35.09-147.68-53.61-170.86l-2.49,6.79Z"/><path class="cls-27" d="m463.77,491.8l39.15-14.81s12.22-3.38,26.94,12.17l-11.13,35.02s-2.87,8.78-9.12,1.13c-6.25-7.65-28.49-25.95-45.85-33.5Z"/><path class="cls-16" d="m549.79,500.29l7.37-13.4s5.62,11.87,9.5,32.78c3.87,20.91,3.84,22.06,3.84,22.06l-8.33-.8s-2.34-14.33-12.38-40.64Z"/><line class="cls-16" x1="551.52" y1="504.93" x2="559.68" y2="493.23"/><g><path class="cls-18" d="m628.48,330.45s-5.81-11.48-3.12-12.5,18.59-7.2,18.59-7.2c0,0,2.29-.2,2.82,1.78.53,1.98,8.15,28.15,8.15,28.15,0,0,2.59,4.23-2.05,6.18s-15.25,4.63-15.25,4.63c0,0-1.61,2.1-3.07-3.05-1.46-5.15-6.08-17.98-6.08-17.98Z"/><path class="cls-11" d="m631.19,339.81s-.88-13.81-8.11-11.76c-3.62,1.02-4.35,4.44-4.18,7.6.17,3.03,1.17,5.96,2.77,8.54,1.3,2.11,3.17,5.11,4.55,7.12,2.32,3.4,20.7,9.86,20.7,9.86,0,0-2.88-4.17,7.64-8.39,0,0,6.23-6.37,6.09-11.73-.15-5.35,7.42-14.52-7.42-23.81,0,0-4.89-1.87-6.51,3.2s7.99,4.87,7.99,4.87c0,0-5.01.43-4.01,4.76,1,4.33,7.4,3.46,7.4,3.46,0,0-8.83-.34-8.42,4.96.02.32.21.59.48.76.93.57,3.29,1.69,6.12.6,0,0-11.61,6.21-15.15,10.93,0,0-8.5,2-9.94-10.97Z"/><path class="cls-12" d="m633.72,345.66s1.6,7.62,6.74,5.93c5.14-1.69,16.25-6.35,16.25-6.35,0,0,2.09-.34-.44-5.39,0,0-2.66,1.66-6.31-.74"/><path class="cls-47" d="m623.07,328.05s-.28,10.77,5.11,16.54c5.39,5.77,19.51,12.49,19.51,12.49,0,0-1.92,1.49-.78,4.1,0,0-15.36-5.39-20.09-9.19l-6.12-9.54s-3.94-7.4-.43-12.57c0,0,1.16-1.62,2.8-1.82Z"/><path class="cls-46" d="m632.92,315.03l-7.55,2.92s-2.27.38,1.38,8.73,9.22,23.66,9.22,23.66c0,0,.1,3.21,9.56-.58,9.46-3.79-12.6-34.72-12.6-34.72Z"/><circle class="cls-21" cx="640.87" cy="332.36" r="8.26"/><path class="cls-26" d="m636.83,326.86s-4.82,2.64-2.23,8.89c2.59,6.24,10.77,3.25,10.98,2.05,0,0-6.98-2.23-8.75-10.94Z"/><path class="cls-18" d="m631.69,315.51l-5.19-21.49s-2.23-.2-1.67-2.85c.56-2.65,3.03-2.15,3.57-1.02,0,0,1.51,1.64-.06,3.32l7.76,20.34-4.41,1.71Z"/><polygon class="cls-46" points="626.5 294.01 634.09 314.58 631.69 315.51 626.5 294.01"/></g><path class="cls-13" d="m609.01,369.96l6.41-20.12c1.06-3.34,4.68-4.63,7.29-2.6,5.12,3.99,14.23,9.51,27.6,12.04,3.12.59,4.94,4.27,3.66,7.5l-9.03,22.83c-.86,2.17-2.89,3.47-5,3.16-6.41-.94-20.03-4.43-30.01-17.44-1.14-1.49-1.51-3.52-.92-5.36Z"/><path class="cls-48" d="m625.75,388.21s10.36-20.02,5.32-35.58c0,0,8.61,4.85,19.31,6.49,0,0,6.15,1.19,3.45,8.18-2.69,6.99-9.07,23.22-9.07,23.22,0,0-1.29,3.85-8.93,1.33-7.65-2.52-10.08-3.64-10.08-3.64Z"/><path class="cls-19" d="m614.98,287.89c-.42.11-.87.06-1.28-.16-.86-.47-1.18-1.54-.72-2.41.07-.12,6.88-12.34,21.99-7.87.94.28,1.48,1.27,1.2,2.21-.28.94-1.27,1.48-2.21,1.2-12.38-3.67-17.64,5.75-17.86,6.15-.25.45-.66.76-1.12.88Z"/><path class="cls-19" d="m642.7,272.94c-.37.09-.77.07-1.15-.09-22.94-10.05-36.46,8.26-37.03,9.05-.57.8-1.68.98-2.48.41-.8-.57-.98-1.68-.41-2.48.15-.22,15.72-21.46,41.34-10.23.9.39,1.31,1.44.91,2.34-.23.52-.68.88-1.19,1.01Z"/><path class="cls-19" d="m652.75,265.67c-.4.1-.83.07-1.22-.13-14.99-7.37-29.23-7.32-42.33.15-9.87,5.63-15.38,13.59-15.43,13.67-.55.81-1.66,1.02-2.47.47s-1.02-1.66-.47-2.47c.24-.35,5.95-8.63,16.48-14.68,9.77-5.61,25.65-10.22,45.78-.32.88.43,1.24,1.5.81,2.38-.24.49-.67.81-1.16.94Z"/><path class="cls-13" d="m463.96,501.46l17.49,11.83c2.91,1.97,3.12,5.8.43,7.73-5.27,3.79-13.15,10.97-19.34,23.07-1.45,2.83-5.49,3.53-8.23,1.4l-19.35-15.11c-1.84-1.44-2.51-3.75-1.62-5.69,2.71-5.89,9.91-17.96,25.21-23.86,1.75-.67,3.8-.45,5.4.63Z"/></g><path class="cls-29" d="m716.89,175.17l7.76-4.08c2.55-1.34,5.54.83,5.05,3.67l-1.48,8.64c-.19,1.13.18,2.28,1,3.08l6.28,6.12c2.07,2.01.93,5.52-1.93,5.94l-8.67,1.26c-1.13.16-2.11.88-2.62,1.9l-3.88,7.86c-1.28,2.59-4.97,2.59-6.25,0l-3.88-7.86c-.51-1.03-1.49-1.74-2.62-1.9l-8.67-1.26c-2.86-.42-4-3.92-1.93-5.94l6.28-6.12c.82-.8,1.2-1.95,1-3.08l-1.48-8.64c-.49-2.84,2.5-5.01,5.05-3.67l7.76,4.08c1.01.53,2.23.53,3.24,0Z"/><path class="cls-29" d="m47.95,347.43l2.32-.2c.77-.07,1.27.77.86,1.42l-1.26,1.97c-.16.26-.19.58-.07.86l.91,2.15c.3.71-.34,1.45-1.09,1.26l-2.26-.59c-.3-.08-.61,0-.84.2l-1.76,1.53c-.58.5-1.49.12-1.53-.64l-.14-2.33c-.02-.3-.19-.58-.45-.74l-2-1.2c-.66-.4-.58-1.38.14-1.66l2.17-.85c.28-.11.5-.36.56-.65l.53-2.27c.17-.75,1.13-.97,1.62-.38l1.48,1.8c.19.24.49.36.8.33Z"/><path class="cls-29" d="m690.65,215.96l2.32-.2c.77-.07,1.27.77.86,1.42l-1.26,1.97c-.16.26-.19.58-.07.86l.91,2.15c.3.71-.34,1.45-1.09,1.26l-2.26-.59c-.3-.08-.61,0-.84.2l-1.76,1.53c-.58.5-1.49.12-1.53-.64l-.14-2.33c-.02-.3-.19-.58-.45-.74l-2-1.2c-.66-.4-.58-1.38.14-1.66l2.17-.85c.28-.11.5-.36.56-.65l.53-2.27c.17-.75,1.13-.97,1.62-.38l1.48,1.8c.19.24.49.36.8.33Z"/><path class="cls-29" d="m729.2,267.6l4.18-.36c1.38-.12,2.29,1.39,1.55,2.56l-2.26,3.54c-.3.46-.34,1.04-.13,1.55l1.63,3.86c.54,1.27-.62,2.61-1.95,2.26l-4.06-1.05c-.53-.14-1.1,0-1.51.35l-3.17,2.75c-1.04.9-2.67.22-2.76-1.16l-.25-4.19c-.03-.55-.33-1.04-.8-1.33l-3.59-2.17c-1.18-.71-1.03-2.47.25-2.98l3.9-1.53c.51-.2.89-.64,1.01-1.17l.95-4.09c.31-1.35,2.03-1.75,2.91-.68l2.67,3.24c.35.42.88.65,1.43.6Z"/><path class="cls-29" d="m93.46,291.1l5.12-.44c1.69-.14,2.81,1.71,1.9,3.13l-2.77,4.33c-.36.57-.42,1.28-.16,1.89l2,4.74c.66,1.56-.76,3.2-2.39,2.77l-4.98-1.29c-.65-.17-1.34,0-1.85.43l-3.89,3.37c-1.28,1.11-3.28.27-3.38-1.42l-.31-5.13c-.04-.67-.41-1.28-.98-1.63l-4.4-2.65c-1.45-.87-1.27-3.03.31-3.65l4.79-1.88c.63-.25,1.09-.78,1.24-1.44l1.16-5.01c.38-1.65,2.49-2.14,3.57-.84l3.27,3.97c.43.52,1.08.79,1.75.74Z"/></svg>